{
.appVersion = "1342";
DisplayStrings = (

glyphs = (
{
color = 0;
glyphname = A;
layers = (
{
anchors = (
{
name = bottom;
position = "{359, 0}";
},
{
name = ogonek;
position = "{691, 0}";
},
{
name = top;
position = "{363, 705}";
}
);
background = {
paths = (
{
closed = 1;
nodes = (
"50 -5 OFFCURVE",
"160 0 OFFCURVE",
"185 0 CURVE",
"271 0 LINE",
"276 54 LINE",
"170 69 LINE",
"203 41 LINE",
"205 68 OFFCURVE",
"207 99 OFFCURVE",
"216 127 CURVE SMOOTH",
"365 592 LINE",
"342 591 LINE",
"489 172 LINE SMOOTH",
"504 129 OFFCURVE",
"513 87 OFFCURVE",
"521 41 CURVE",
"551 74 LINE",
"443 44 LINE",
"447 -5 LINE",
"447 -5 OFFCURVE",
"559 0 OFFCURVE",
"590 0 CURVE",
"691 0 LINE",
"696 54 LINE",
"598 70 LINE",
"643 43 LINE",
"627 76 OFFCURVE",
"608 112 OFFCURVE",
"595 149 CURVE SMOOTH",
"389 715 LINE",
"331 705 LINE",
"152 160 LINE SMOOTH",
"138 118 OFFCURVE",
"116 76 OFFCURVE",
"100 44 CURVE",
"144 70 LINE",
"46 44 LINE",
"50 -5 LINE"
);
},
{
closed = 1;
nodes = (
"503 232 LINE",
"503 285 LINE",
"223 285 LINE",
"223 232 LINE"
);
}
);
};
layerId = UUID0;
paths = (
{
closed = 1;
nodes = (
"95 -3 OFFCURVE",
"160 0 OFFCURVE",
"185 0 CURVE SMOOTH",
"271 0 LINE",
"276 54 LINE",
"170 69 LINE",
"203 41 LINE",
"205 68 OFFCURVE",
"207 99 OFFCURVE",
"216 127 CURVE SMOOTH",
"365 592 LINE",
"342 591 LINE",
"489 172 LINE SMOOTH",
"504 129 OFFCURVE",
"513 87 OFFCURVE",
"521 41 CURVE",
"551 74 LINE",
"443 44 LINE",
"447 -5 LINE",
"495 -3 OFFCURVE",
"565 0 OFFCURVE",
"590 0 CURVE SMOOTH",
"691 0 LINE",
"696 54 LINE",
"598 70 LINE",
"643 43 LINE",
"627 76 OFFCURVE",
"608 112 OFFCURVE",
"595 149 CURVE SMOOTH",
"389 715 LINE",
"331 705 LINE",
"152 160 LINE SMOOTH",
"138 118 OFFCURVE",
"116 76 OFFCURVE",
"100 44 CURVE",
"144 70 LINE",
"46 44 LINE",
"50 -5 LINE"
);
},
{
closed = 1;
nodes = (
"503 232 LINE",
"503 285 LINE",
"223 285 LINE",
"223 232 LINE"
);
}
);
width = 742;
},
{
anchors = (
{
name = bottom;
position = "{360, 0}";
},
{
name = ogonek;
position = "{700, 0}";
},
{
name = top;
position = "{376, 705}";
}
);
background = {
paths = (
{
closed = 1;
nodes = (
"47 -5 OFFCURVE",
"157 0 OFFCURVE",
"186 0 CURVE SMOOTH",
"286 0 LINE",
"291 67 LINE",
"174 80 LINE",
"224 31 LINE",
"227 66 OFFCURVE",
"229 93 OFFCURVE",
"237 118 CURVE SMOOTH",
"375 567 LINE",
"343 567 LINE",
"470 140 LINE SMOOTH",
"478 112 OFFCURVE",
"484 79 OFFCURVE",
"489 36 CURVE",
"536 85 LINE",
"418 60 LINE",
"423 -5 LINE",
"423 -5 OFFCURVE",
"567 0 OFFCURVE",
"612 0 CURVE SMOOTH",
"700 0 LINE",
"705 67 LINE",
"590 85 LINE",
"665 39 LINE",
"648 68 OFFCURVE",
"631 100 OFFCURVE",
"620 133 CURVE SMOOTH",
"419 716 LINE",
"320 705 LINE",
"134 161 LINE SMOOTH",
"119 118 OFFCURVE",
"98 80 OFFCURVE",
"74 38 CURVE",
"146 81 LINE",
"42 60 LINE",
"47 -5 LINE"
);
},
{
closed = 1;
nodes = (
"487 192 LINE",
"487 269 LINE",
"229 269 LINE",
"229 192 LINE"
);
}
);
};
guideLines = (
{
position = "{340, 65}";
}
);
layerId = "16643525-C5DD-48EC-8E99-463BF28F5E85";
paths = (
{
closed = 1;
nodes = (
"89 -3 OFFCURVE",
"161 0 OFFCURVE",
"186 0 CURVE SMOOTH",
"286 0 LINE",
"291 67 LINE",
"174 80 LINE",
"224 31 LINE",
"227 66 OFFCURVE",
"229 93 OFFCURVE",
"237 118 CURVE SMOOTH",
"375 567 LINE",
"343 567 LINE",
"470 140 LINE SMOOTH",
"478 112 OFFCURVE",
"484 79 OFFCURVE",
"489 36 CURVE",
"536 85 LINE",
"418 60 LINE",
"423 -5 LINE",
"483 -3 OFFCURVE",
"587 0 OFFCURVE",
"612 0 CURVE SMOOTH",
"700 0 LINE",
"705 67 LINE",
"590 85 LINE",
"665 39 LINE",
"648 68 OFFCURVE",
"631 100 OFFCURVE",
"620 133 CURVE SMOOTH",
"419 716 LINE",
"320 705 LINE",
"134 161 LINE SMOOTH",
"119 118 OFFCURVE",
"98 80 OFFCURVE",
"74 38 CURVE",
"146 81 LINE",
"42 60 LINE",
"47 -5 LINE"
);
},
{
closed = 1;
nodes = (
"487 192 LINE",
"487 269 LINE",
"229 269 LINE",
"229 192 LINE"
);
}
);
width = 747;
}
);
leftKerningGroup = UC_A;
rightKerningGroup = UC_A;
unicode = 0041;
},
{
color = 0;
glyphname = AE;
layers = (
{
anchors = (
{
name = bottom;
position = "{619, 0}";
},
{
name = top;
position = "{678, 720}";
}
);
background = {
paths = (
{
closed = 1;
nodes = (
"86 -3 OFFCURVE",
"140 0 OFFCURVE",
"185 0 CURVE",
"271 0 LINE",
"276 54 LINE",
"168 69 LINE",
"197 33 LINE",
"202 54 OFFCURVE",
"215 116 OFFCURVE",
"220 127 CURVE SMOOTH",
"435 617 LINE",
"413 620 LINE",
"506 130 LINE SMOOTH",
"511 103 OFFCURVE",
"515 78 OFFCURVE",
"514 33 CURVE",
"548 74 LINE",
"443 44 LINE",
"447 -5 LINE",
"447 -5 OFFCURVE",
"559 0 OFFCURVE",
"590 0 CURVE",
"775 0 LINE SMOOTH",
"795 0 OFFCURVE",
"889 -4 OFFCURVE",
"889 -4 CURVE",
"908 14 LINE",
"923 165 LINE",
"868 170 LINE",
"866 154 OFFCURVE",
"857 118 OFFCURVE",
"853 103 CURVE SMOOTH",
"850 92 OFFCURVE",
"829 59 OFFCURVE",
"815 46 CURVE",
"847 69 LINE",
"830 65 OFFCURVE",
"783 57 OFFCURVE",
"745 57 CURVE SMOOTH",
"585 57 LINE",
"625 21 LINE",
"595 168 LINE SMOOTH",
"518 538 LINE SMOOTH",
"514 581 OFFCURVE",
"506 666 OFFCURVE",
"505 683 CURVE",
"471 649 LINE",
"688 649 LINE SMOOTH",
"724 649 OFFCURVE",
"767 644 OFFCURVE",
"787 643 CURVE",
"751 665 LINE",
"765 651 OFFCURVE",
"788 621 OFFCURVE",
"791 610 CURVE",
"795 595 OFFCURVE",
"801 572 OFFCURVE",
"804 556 CURVE",
"861 561 LINE",
"850 697 LINE",
"830 715 LINE",
"830 715 OFFCURVE",
"736 705 OFFCURVE",
"716 705 CURVE SMOOTH",
"405 705 LINE",
"164 160 LINE SMOOTH",
"156 141 OFFCURVE",
"115 69 OFFCURVE",
"94 44 CURVE",
"142 70 LINE",
"46 44 LINE",
"50 -5 LINE"
);
},
{
closed = 1;
nodes = (
"543 232 LINE",
"541 285 LINE",
"231 285 LINE",
"233 232 LINE"
);
},
{
closed = 1;
nodes = (
"797 259 LINE",
"797 259 OFFCURVE",
"792 318 OFFCURVE",
"790 368 CURVE SMOOTH",
"789 388 OFFCURVE",
"788 452 OFFCURVE",
"788 452 CURVE",
"742 457 LINE",
"732 352 LINE",
"756 387 LINE",
"747 386 OFFCURVE",
"704 382 OFFCURVE",
"676 382 CURVE SMOOTH",
"510 382 LINE",
"512 326 LINE",
"658 326 LINE SMOOTH",
"684 326 OFFCURVE",
"751 321 OFFCURVE",
"770 319 CURVE",
"732 356 LINE",
"749 253 LINE"
);
}
);
};
layerId = UUID0;
paths = (
{
closed = 1;
nodes = (
"86 -3 OFFCURVE",
"140 0 OFFCURVE",
"185 0 CURVE",
"271 0 LINE",
"276 54 LINE",
"168 69 LINE",
"197 33 LINE",
"202 54 OFFCURVE",
"215 116 OFFCURVE",
"220 127 CURVE SMOOTH",
"435 617 LINE",
"413 620 LINE",
"506 130 LINE SMOOTH",
"511 103 OFFCURVE",
"515 78 OFFCURVE",
"514 33 CURVE",
"548 74 LINE",
"443 44 LINE",
"447 -5 LINE",
"447 -5 OFFCURVE",
"559 0 OFFCURVE",
"590 0 CURVE",
"625 21 LINE",
"595 168 LINE SMOOTH",
"518 538 LINE SMOOTH",
"514 581 OFFCURVE",
"506 666 OFFCURVE",
"505 683 CURVE",
"505 705 LINE",
"405 705 LINE",
"164 160 LINE SMOOTH",
"156 141 OFFCURVE",
"115 69 OFFCURVE",
"94 44 CURVE",
"142 70 LINE",
"46 44 LINE",
"50 -5 LINE"
);
},
{
closed = 1;
nodes = (
"543 232 LINE",
"541 285 LINE",
"231 285 LINE",
"233 232 LINE"
);
},
{
closed = 1;
nodes = (
"909 14 LINE",
"924 165 LINE",
"869 170 LINE",
"854 103 LINE SMOOTH",
"851 88 OFFCURVE",
"831 62 OFFCURVE",
"816 43 CURVE",
"848 69 LINE",
"830 65 OFFCURVE",
"786 57 OFFCURVE",
"746 57 CURVE SMOOTH",
"538 57 LINE",
"538 0 LINE",
"776 0 LINE SMOOTH",
"794 0 OFFCURVE",
"852 -2 OFFCURVE",
"890 -4 CURVE"
);
},
{
closed = 1;
nodes = (
"828 271 LINE",
"826 307 OFFCURVE",
"825 344 OFFCURVE",
"825 380 CURVE SMOOTH",
"825 464 LINE",
"780 469 LINE",
"766 364 LINE",
"797 404 LINE",
"783 402 OFFCURVE",
"739 394 OFFCURVE",
"711 394 CURVE SMOOTH",
"538 394 LINE",
"538 338 LINE",
"691 338 LINE SMOOTH",
"717 338 OFFCURVE",
"780 331 OFFCURVE",
"803 328 CURVE",
"766 368 LINE",
"780 265 LINE"
);
},
{
closed = 1;
nodes = (
"903 561 LINE",
"896 692 LINE",
"877 710 LINE",
"839 707 OFFCURVE",
"781 705 OFFCURVE",
"763 705 CURVE SMOOTH",
"458 705 LINE",
"458 649 LINE",
"733 649 LINE SMOOTH",
"769 649 OFFCURVE",
"811 646 OFFCURVE",
"831 643 CURVE",
"796 665 LINE",
"811 651 OFFCURVE",
"832 620 OFFCURVE",
"834 610 CURVE SMOOTH",
"845 556 LINE"
);
}
);
width = 990;
},
{
anchors = (
{
name = bottom;
position = "{627, 0}";
},
{
name = top;
position = "{661, 720}";
}
);
background = {
paths = (
{
closed = 1;
nodes = (
"85 -3 OFFCURVE",
"138 0 OFFCURVE",
"182 0 CURVE",
"281 0 LINE",
"286 67 LINE",
"160 80 LINE",
"212 41 LINE",
"215 65 OFFCURVE",
"223 100 OFFCURVE",
"231 118 CURVE SMOOTH",
"448 550 LINE",
"411 556 LINE",
"491 129 LINE SMOOTH",
"498 96 OFFCURVE",
"502 67 OFFCURVE",
"503 37 CURVE",
"554 85 LINE",
"439 60 LINE",
"444 -5 LINE",
"444 -5 OFFCURVE",
"588 0 OFFCURVE",
"633 0 CURVE SMOOTH",
"782 0 LINE SMOOTH",
"801 0 OFFCURVE",
"896 -4 OFFCURVE",
"896 -4 CURVE",
"915 14 LINE",
"930 184 LINE",
"863 189 LINE",
"861 173 OFFCURVE",
"854 142 OFFCURVE",
"851 129 CURVE",
"848 118 OFFCURVE",
"827 73 OFFCURVE",
"813 49 CURVE",
"853 93 LINE",
"838 89 OFFCURVE",
"794 80 OFFCURVE",
"752 80 CURVE SMOOTH",
"586 80 LINE",
"655 24 LINE",
"617 187 LINE",
"550 542 LINE SMOOTH",
"545 570 OFFCURVE",
"541 643 OFFCURVE",
"539 676 CURVE",
"484 630 LINE",
"711 630 LINE SMOOTH",
"754 630 OFFCURVE",
"798 623 OFFCURVE",
"812 623 CURVE",
"775 657 LINE",
"779 649 OFFCURVE",
"801 607 OFFCURVE",
"804 594 CURVE SMOOTH",
"808 580 OFFCURVE",
"814 556 OFFCURVE",
"815 542 CURVE",
"884 547 LINE",
"872 697 LINE",
"852 715 LINE",
"852 715 OFFCURVE",
"757 705 OFFCURVE",
"738 705 CURVE SMOOTH",
"420 705 LINE",
"142 161 LINE SMOOTH",
"129 135 OFFCURVE",
"80 62 OFFCURVE",
"70 46 CURVE",
"139 82 LINE",
"42 60 LINE",
"47 -5 LINE"
);
},
{
closed = 1;
nodes = (
"509 192 LINE",
"507 269 LINE",
"242 269 LINE",
"244 192 LINE"
);
},
{
closed = 1;
nodes = (
"810 257 LINE",
"810 257 OFFCURVE",
"804 330 OFFCURVE",
"803 379 CURVE SMOOTH",
"802 399 OFFCURVE",
"801 463 OFFCURVE",
"801 463 CURVE",
"743 468 LINE",
"732 367 LINE",
"763 401 LINE",
"744 397 OFFCURVE",
"709 394 OFFCURVE",
"688 394 CURVE SMOOTH",
"503 394 LINE",
"506 319 LINE",
"671 319 LINE SMOOTH",
"703 319 OFFCURVE",
"758 313 OFFCURVE",
"777 312 CURVE",
"732 350 LINE",
"750 251 LINE"
);
}
);
};
layerId = "16643525-C5DD-48EC-8E99-463BF28F5E85";
paths = (
{
closed = 1;
nodes = (
"85 -3 OFFCURVE",
"138 0 OFFCURVE",
"182 0 CURVE",
"281 0 LINE",
"286 67 LINE",
"160 80 LINE",
"212 41 LINE",
"215 65 OFFCURVE",
"223 100 OFFCURVE",
"231 118 CURVE SMOOTH",
"448 550 LINE",
"411 556 LINE",
"491 129 LINE SMOOTH",
"498 96 OFFCURVE",
"502 67 OFFCURVE",
"503 37 CURVE",
"554 85 LINE",
"439 60 LINE",
"444 -5 LINE",
"444 -5 OFFCURVE",
"588 0 OFFCURVE",
"633 0 CURVE",
"655 24 LINE",
"617 187 LINE",
"550 542 LINE SMOOTH",
"545 570 OFFCURVE",
"541 643 OFFCURVE",
"539 676 CURVE",
"539 705 LINE",
"420 705 LINE",
"142 161 LINE SMOOTH",
"129 135 OFFCURVE",
"80 62 OFFCURVE",
"70 46 CURVE",
"139 82 LINE",
"42 60 LINE",
"47 -5 LINE"
);
},
{
closed = 1;
nodes = (
"509 192 LINE",
"507 269 LINE",
"242 269 LINE",
"244 192 LINE"
);
},
{
closed = 1;
nodes = (
"918 14 LINE",
"933 184 LINE",
"867 189 LINE",
"854 129 LINE SMOOTH",
"850 112 OFFCURVE",
"829 73 OFFCURVE",
"803 42 CURVE",
"856 93 LINE",
"841 89 OFFCURVE",
"799 80 OFFCURVE",
"755 80 CURVE SMOOTH",
"529 80 LINE",
"529 0 LINE",
"785 0 LINE SMOOTH",
"813 0 OFFCURVE",
"861 -2 OFFCURVE",
"899 -4 CURVE"
);
},
{
closed = 1;
nodes = (
"829 260 LINE",
"827 301 OFFCURVE",
"826 341 OFFCURVE",
"826 382 CURVE SMOOTH",
"826 466 LINE",
"769 471 LINE",
"755 367 LINE",
"788 409 LINE",
"769 403 OFFCURVE",
"735 397 OFFCURVE",
"712 397 CURVE SMOOTH",
"529 397 LINE",
"529 322 LINE",
"692 322 LINE SMOOTH",
"722 322 OFFCURVE",
"774 317 OFFCURVE",
"804 315 CURVE",
"755 352 LINE",
"769 254 LINE"
);
},
{
closed = 1;
nodes = (
"911 547 LINE",
"904 692 LINE",
"885 710 LINE",
"847 707 OFFCURVE",
"789 705 OFFCURVE",
"771 705 CURVE SMOOTH",
"529 705 LINE",
"529 630 LINE",
"744 630 LINE SMOOTH",
"784 630 OFFCURVE",
"831 625 OFFCURVE",
"856 623 CURVE",
"801 675 LINE",
"815 647 OFFCURVE",
"834 603 OFFCURVE",
"836 590 CURVE SMOOTH",
"843 542 LINE"
);
}
);
width = 996;
}
);
leftKerningGroup = UC_AE;
rightKerningGroup = UC_E;
unicode = 00C6;
},
{
color = 0;
glyphname = Aogonek;
layers = (
{
anchors = (
{
name = bottom;
position = "{359, 0}";
},
{
name = ogonek;
position = "{691, 0}";
},
{
name = top;
position = "{363, 705}";
}
);
background = {
anchors = (
{
name = bottom;
position = "{359, 0}";
},
{
name = ogonek;
position = "{691, 0}";
},
{
name = top;
position = "{363, 705}";
}
);
components = (
{
name = ogonekcomb;
transform = "{1, 0, 0, 1, 359, 0}";
}
);
paths = (
{
closed = 1;
nodes = (
"489 172 LINE SMOOTH",
"501 137 OFFCURVE",
"508 100 OFFCURVE",
"516 64 CURVE",
"500 10 LINE",
"532 -5 LINE",
"532 -5 OFFCURVE",
"559 0 OFFCURVE",
"590 0 CURVE",
"691 0 LINE",
"696 54 LINE",
"634 64 LINE",
"621 91 OFFCURVE",
"605 120 OFFCURVE",
"595 149 CURVE SMOOTH",
"389 715 LINE",
"331 705 LINE",
"152 160 LINE SMOOTH",
"141 126 OFFCURVE",
"123 89 OFFCURVE",
"109 61 CURVE",
"46 44 LINE",
"50 -5 LINE",
"50 -5 OFFCURVE",
"160 0 OFFCURVE",
"185 0 CURVE",
"271 0 LINE",
"276 54 LINE",
"206 64 LINE",
"208 85 OFFCURVE",
"210 107 OFFCURVE",
"216 127 CURVE SMOOTH",
"354 557 LINE"
);
},
{
closed = 1;
nodes = (
"453 285 LINE",
"261 285 LINE",
"243 232 LINE",
"473 232 LINE"
);
}
);
};
components = (
{
name = ogonekcomb;
transform = "{1, 0, 0, 1, 359, 0}";
}
);
layerId = UUID0;
paths = (
{
closed = 1;
nodes = (
"50 -5 OFFCURVE",
"160 0 OFFCURVE",
"185 0 CURVE",
"271 0 LINE",
"276 54 LINE",
"170 69 LINE",
"203 41 LINE",
"205 68 OFFCURVE",
"208 99 OFFCURVE",
"216 127 CURVE SMOOTH",
"365 592 LINE",
"342 591 LINE",
"489 172 LINE SMOOTH",
"504 129 OFFCURVE",
"513 84 OFFCURVE",
"521 41 CURVE",
"521 80 LINE",
"497 0 LINE",
"590 0 LINE",
"691 0 LINE",
"696 54 LINE",
"598 70 LINE",
"643 43 LINE",
"627 76 OFFCURVE",
"608 112 OFFCURVE",
"595 149 CURVE SMOOTH",
"389 715 LINE",
"331 705 LINE",
"152 160 LINE SMOOTH",
"139 118 OFFCURVE",
"115 72 OFFCURVE",
"100 44 CURVE",
"144 70 LINE",
"46 44 LINE",
"50 -5 LINE"
);
},
{
closed = 1;
nodes = (
"503 232 LINE",
"503 285 LINE",
"223 285 LINE",
"223 232 LINE"
);
}
);
width = 742;
},
{
anchors = (
{
name = bottom;
position = "{361, 0}";
},
{
name = ogonek;
position = "{704, 0}";
},
{
name = top;
position = "{381, 705}";
}
);
background = {
anchors = (
{
name = bottom;
position = "{361, 0}";
},
{
name = ogonek;
position = "{704, 0}";
},
{
name = top;
position = "{381, 705}";
}
);
components = (
{
name = ogonekcomb;
transform = "{1, 0, 0, 1, 284, 0}";
}
);
paths = (
{
closed = 1;
nodes = (
"318 705 LINE",
"129 161 LINE SMOOTH",
"119 131 OFFCURVE",
"102 102 OFFCURVE",
"86 73 CURVE",
"42 65 LINE",
"47 -5 LINE",
"47 -5 OFFCURVE",
"157 0 OFFCURVE",
"187 0 CURVE",
"292 0 LINE",
"297 71 LINE",
"239 77 LINE",
"240 90 OFFCURVE",
"241 102 OFFCURVE",
"245 115 CURVE SMOOTH",
"387 584 LINE"
);
},
{
closed = 1;
nodes = (
"429 263 LINE",
"288 263 LINE",
"262 179 LINE",
"453 179 LINE"
);
},
{
closed = 1;
nodes = (
"465 129 LINE SMOOTH",
"470 112 OFFCURVE",
"469 94 OFFCURVE",
"470 76 CURVE",
"452 0 LINE",
"522 -5 LINE",
"522 -5 OFFCURVE",
"570 0 OFFCURVE",
"620 0 CURVE",
"704 0 LINE",
"709 71 LINE",
"650 80 LINE",
"642 96 OFFCURVE",
"636 111 OFFCURVE",
"630 128 CURVE SMOOTH",
"430 716 LINE",
"318 705 LINE",
"337 582 LINE"
);
}
);
};
components = (
{
name = ogonekcomb;
transform = "{1, 0, 0, 1, 284, 0}";
}
);
layerId = "16643525-C5DD-48EC-8E99-463BF28F5E85";
paths = (
{
closed = 1;
nodes = (
"47 -5 OFFCURVE",
"157 0 OFFCURVE",
"187 0 CURVE SMOOTH",
"292 0 LINE",
"297 71 LINE",
"176 83 LINE",
"232 28 LINE",
"236 65 OFFCURVE",
"237 88 OFFCURVE",
"245 115 CURVE SMOOTH",
"379 558 LINE",
"344 559 LINE",
"465 129 LINE SMOOTH",
"474 99 OFFCURVE",
"477 65 OFFCURVE",
"480 34 CURVE",
"481 124 LINE",
"452 0 LINE",
"620 0 LINE",
"704 0 LINE",
"709 71 LINE",
"588 90 LINE",
"674 38 LINE",
"652 73 OFFCURVE",
"641 97 OFFCURVE",
"630 128 CURVE SMOOTH",
"430 716 LINE",
"318 705 LINE",
"129 161 LINE SMOOTH",
"115 118 OFFCURVE",
"90 77 OFFCURVE",
"67 36 CURVE",
"148 84 LINE",
"42 65 LINE",
"47 -5 LINE"
);
},
{
closed = 1;
nodes = (
"483 179 LINE",
"483 263 LINE",
"232 263 LINE",
"232 179 LINE"
);
}
);
width = 751;
}
);
leftKerningGroup = UC_A;
rightKerningGroup = UC_A;
unicode = 0104;
},
{
color = 0;
glyphname = B;
layers = (
{
anchors = (
{
name = bottom;
position = "{317, 0}";
},
{
name = top;
position = "{317, 705}";
}
);
background = {
paths = (
{
closed = 1;
nodes = (
"106 -3 OFFCURVE",
"171 0 OFFCURVE",
"196 0 CURVE SMOOTH",
"246 0 OFFCURVE",
"313 -4 OFFCURVE",
"363 -4 CURVE SMOOTH",
"477 -4 OFFCURVE",
"567 69 OFFCURVE",
"567 183 CURVE SMOOTH",
"567 296 OFFCURVE",
"483 359 OFFCURVE",
"370 366 CURVE",
"397 327 LINE",
"397 406 LINE",
"372 365 LINE",
"466 377 OFFCURVE",
"536 446 OFFCURVE",
"536 543 CURVE SMOOTH",
"536 648 OFFCURVE",
"449 710 OFFCURVE",
"346 710 CURVE SMOOTH",
"296 710 OFFCURVE",
"228 705 OFFCURVE",
"178 705 CURVE SMOOTH",
"158 705 OFFCURVE",
"83 709 OFFCURVE",
"63 710 CURVE",
"58 656 LINE",
"158 641 LINE",
"131 670 LINE",
"134 652 OFFCURVE",
"144 590 OFFCURVE",
"144 568 CURVE SMOOTH",
"144 137 LINE SMOOTH",
"144 115 OFFCURVE",
"135 50 OFFCURVE",
"131 25 CURVE",
"171 68 LINE",
"56 45 LINE",
"61 -5 LINE"
);
},
{
closed = 1;
nodes = (
"241 46 OFFCURVE",
"235 113 OFFCURVE",
"235 167 CURVE SMOOTH",
"235 538 LINE SMOOTH",
"235 591 OFFCURVE",
"243 664 OFFCURVE",
"245 679 CURVE",
"221 654 LINE",
"250 656 OFFCURVE",
"288 656 OFFCURVE",
"325 656 CURVE SMOOTH",
"395 656 OFFCURVE",
"443 606 OFFCURVE",
"443 531 CURVE SMOOTH",
"443 442 OFFCURVE",
"381 394 OFFCURVE",
"301 394 CURVE SMOOTH",
"294 394 LINE",
"287 337 LINE",
"298 337 LINE SMOOTH",
"387 337 OFFCURVE",
"466 292 OFFCURVE",
"466 191 CURVE SMOOTH",
"466 102 OFFCURVE",
"411 54 OFFCURVE",
"332 54 CURVE SMOOTH",
"290 54 OFFCURVE",
"248 58 OFFCURVE",
"223 60 CURVE",
"246 22 LINE"
);
}
);
};
layerId = UUID0;
paths = (
{
closed = 1;
nodes = (
"106 -3 OFFCURVE",
"171 0 OFFCURVE",
"196 0 CURVE SMOOTH",
"246 0 OFFCURVE",
"313 -4 OFFCURVE",
"363 -4 CURVE SMOOTH",
"477 -4 OFFCURVE",
"567 69 OFFCURVE",
"567 183 CURVE SMOOTH",
"567 296 OFFCURVE",
"483 359 OFFCURVE",
"370 366 CURVE",
"397 327 LINE",
"397 406 LINE",
"372 365 LINE",
"466 377 OFFCURVE",
"536 446 OFFCURVE",
"536 543 CURVE SMOOTH",
"536 648 OFFCURVE",
"449 710 OFFCURVE",
"346 710 CURVE SMOOTH",
"296 710 OFFCURVE",
"228 705 OFFCURVE",
"178 705 CURVE SMOOTH",
"158 705 OFFCURVE",
"100 708 OFFCURVE",
"63 710 CURVE",
"58 656 LINE",
"158 641 LINE",
"131 670 LINE",
"134 652 OFFCURVE",
"144 590 OFFCURVE",
"144 568 CURVE SMOOTH",
"144 137 LINE SMOOTH",
"144 115 OFFCURVE",
"135 50 OFFCURVE",
"131 25 CURVE",
"171 68 LINE",
"56 45 LINE",
"61 -5 LINE"
);
},
{
closed = 1;
nodes = (
"241 46 OFFCURVE",
"235 113 OFFCURVE",
"235 167 CURVE SMOOTH",
"235 538 LINE SMOOTH",
"235 591 OFFCURVE",
"243 664 OFFCURVE",
"245 679 CURVE",
"221 654 LINE",
"250 656 OFFCURVE",
"288 656 OFFCURVE",
"325 656 CURVE SMOOTH",
"395 656 OFFCURVE",
"443 606 OFFCURVE",
"443 531 CURVE SMOOTH",
"443 442 OFFCURVE",
"381 394 OFFCURVE",
"301 394 CURVE SMOOTH",
"294 394 LINE",
"287 337 LINE",
"298 337 LINE SMOOTH",
"387 337 OFFCURVE",
"466 292 OFFCURVE",
"466 191 CURVE SMOOTH",
"466 102 OFFCURVE",
"411 54 OFFCURVE",
"332 54 CURVE SMOOTH",
"290 54 OFFCURVE",
"248 58 OFFCURVE",
"223 60 CURVE",
"246 22 LINE"
);
}
);
width = 632;
},
{
anchors = (
{
name = bottom;
position = "{332, 0}";
},
{
name = top;
position = "{332, 705}";
}
);
background = {
paths = (
{
closed = 1;
nodes = (
"100 -3 OFFCURVE",
"177 0 OFFCURVE",
"205 0 CURVE SMOOTH",
"255 0 OFFCURVE",
"324 -5 OFFCURVE",
"374 -5 CURVE SMOOTH",
"499 -5 OFFCURVE",
"604 60 OFFCURVE",
"604 188 CURVE SMOOTH",
"604 304 OFFCURVE",
"514 363 OFFCURVE",
"391 368 CURVE",
"434 308 LINE",
"434 427 LINE",
"394 365 LINE",
"496 371 OFFCURVE",
"573 442 OFFCURVE",
"573 543 CURVE SMOOTH",
"573 648 OFFCURVE",
"472 710 OFFCURVE",
"357 710 CURVE SMOOTH",
"307 710 OFFCURVE",
"229 705 OFFCURVE",
"179 705 CURVE SMOOTH",
"152 705 OFFCURVE",
"96 708 OFFCURVE",
"60 710 CURVE",
"55 640 LINE",
"176 619 LINE",
"118 668 LINE",
"118 666 OFFCURVE",
"132 580 OFFCURVE",
"132 549 CURVE SMOOTH",
"132 157 LINE SMOOTH",
"132 131 OFFCURVE",
"122 61 OFFCURVE",
"118 36 CURVE",
"179 83 LINE",
"54 60 LINE",
"59 -5 LINE"
);
},
{
closed = 1;
nodes = (
"279 64 OFFCURVE",
"271 141 OFFCURVE",
"271 187 CURVE SMOOTH",
"271 519 LINE SMOOTH",
"271 569 OFFCURVE",
"278 643 OFFCURVE",
"279 658 CURVE",
"240 635 LINE",
"269 635 OFFCURVE",
"303 635 OFFCURVE",
"333 635 CURVE SMOOTH",
"403 635 OFFCURVE",
"441 591 OFFCURVE",
"441 524 CURVE SMOOTH",
"441 449 OFFCURVE",
"398 404 OFFCURVE",
"326 404 CURVE SMOOTH",
"320 404 LINE",
"313 324 LINE",
"323 324 LINE SMOOTH",
"402 324 OFFCURVE",
"464 292 OFFCURVE",
"464 200 CURVE SMOOTH",
"464 118 OFFCURVE",
"413 71 OFFCURVE",
"340 71 CURVE SMOOTH",
"302 71 OFFCURVE",
"272 75 OFFCURVE",
"242 80 CURVE",
"282 46 LINE"
);
}
);
};
layerId = "16643525-C5DD-48EC-8E99-463BF28F5E85";
paths = (
{
closed = 1;
nodes = (
"100 -3 OFFCURVE",
"177 0 OFFCURVE",
"205 0 CURVE SMOOTH",
"255 0 OFFCURVE",
"324 -5 OFFCURVE",
"374 -5 CURVE SMOOTH",
"499 -5 OFFCURVE",
"604 60 OFFCURVE",
"604 188 CURVE SMOOTH",
"604 304 OFFCURVE",
"514 363 OFFCURVE",
"391 368 CURVE",
"434 308 LINE",
"434 427 LINE",
"394 365 LINE",
"496 371 OFFCURVE",
"573 442 OFFCURVE",
"573 543 CURVE SMOOTH",
"573 648 OFFCURVE",
"472 710 OFFCURVE",
"357 710 CURVE SMOOTH",
"307 710 OFFCURVE",
"229 705 OFFCURVE",
"179 705 CURVE SMOOTH",
"152 705 OFFCURVE",
"96 708 OFFCURVE",
"60 710 CURVE",
"55 640 LINE",
"176 619 LINE",
"118 668 LINE",
"118 666 OFFCURVE",
"132 580 OFFCURVE",
"132 549 CURVE SMOOTH",
"132 157 LINE SMOOTH",
"132 131 OFFCURVE",
"122 61 OFFCURVE",
"118 36 CURVE",
"179 83 LINE",
"54 60 LINE",
"59 -5 LINE"
);
},
{
closed = 1;
nodes = (
"279 64 OFFCURVE",
"271 141 OFFCURVE",
"271 187 CURVE SMOOTH",
"271 519 LINE SMOOTH",
"271 569 OFFCURVE",
"278 643 OFFCURVE",
"279 658 CURVE",
"240 635 LINE",
"269 635 OFFCURVE",
"303 635 OFFCURVE",
"333 635 CURVE SMOOTH",
"403 635 OFFCURVE",
"441 591 OFFCURVE",
"441 524 CURVE SMOOTH",
"441 449 OFFCURVE",
"398 404 OFFCURVE",
"326 404 CURVE SMOOTH",
"320 404 LINE",
"313 324 LINE",
"323 324 LINE SMOOTH",
"402 324 OFFCURVE",
"464 292 OFFCURVE",
"464 200 CURVE SMOOTH",
"464 118 OFFCURVE",
"413 71 OFFCURVE",
"340 71 CURVE SMOOTH",
"302 71 OFFCURVE",
"272 75 OFFCURVE",
"242 80 CURVE",
"282 46 LINE"
);
}
);
width = 664;
}
);
leftKerningGroup = UC_Stem;
rightKerningGroup = UC_B;
unicode = 0042;
},
{
color = 0;
glyphname = C;
layers = (
{
anchors = (
{
name = bottom;
position = "{379, 0}";
},
{
name = top;
position = "{379, 720}";
}
);
background = {
anchors = (
{
name = bottom;
position = "{383, 0}";
},
{
name = top;
position = "{395, 715}";
}
);
paths = (
{
closed = 1;
nodes = (
"470 -15 OFFCURVE",
"542 3 OFFCURVE",
"605 19 CURVE",
"599 170 LINE",
"540 168 LINE",
"540 168 OFFCURVE",
"540 131 OFFCURVE",
"538 121 CURVE",
"538 107 OFFCURVE",
"525 66 OFFCURVE",
"514 37 CURVE",
"545 72 LINE",
"501 55 OFFCURVE",
"436 43 OFFCURVE",
"388 43 CURVE SMOOTH",
"245 43 OFFCURVE",
"175 180 OFFCURVE",
"175 353 CURVE SMOOTH",
"175 526 OFFCURVE",
"245 662 OFFCURVE",
"389 662 CURVE SMOOTH",
"434 662 OFFCURVE",
"495 648 OFFCURVE",
"536 631 CURVE",
"507 665 LINE",
"514 641 OFFCURVE",
"527 602 OFFCURVE",
"527 589 CURVE SMOOTH",
"527 542 LINE",
"586 538 LINE",
"596 686 LINE",
"533 702 OFFCURVE",
"471 720 OFFCURVE",
"389 720 CURVE SMOOTH",
"179 720 OFFCURVE",
"72 570 OFFCURVE",
"72 352 CURVE SMOOTH",
"72 134 OFFCURVE",
"179 -15 OFFCURVE",
"389 -15 CURVE SMOOTH"
);
}
);
};
layerId = UUID0;
paths = (
{
closed = 1;
nodes = (
"470 -15 OFFCURVE",
"542 3 OFFCURVE",
"605 19 CURVE",
"599 170 LINE",
"540 168 LINE",
"538 121 LINE SMOOTH",
"537 107 OFFCURVE",
"525 66 OFFCURVE",
"514 37 CURVE",
"545 72 LINE",
"501 55 OFFCURVE",
"436 43 OFFCURVE",
"388 43 CURVE SMOOTH",
"245 43 OFFCURVE",
"175 180 OFFCURVE",
"175 353 CURVE SMOOTH",
"175 526 OFFCURVE",
"245 662 OFFCURVE",
"389 662 CURVE SMOOTH",
"434 662 OFFCURVE",
"495 648 OFFCURVE",
"536 631 CURVE",
"507 665 LINE",
"514 641 OFFCURVE",
"527 602 OFFCURVE",
"527 589 CURVE SMOOTH",
"527 542 LINE",
"586 538 LINE",
"596 686 LINE",
"533 702 OFFCURVE",
"471 720 OFFCURVE",
"389 720 CURVE SMOOTH",
"179 720 OFFCURVE",
"72 570 OFFCURVE",
"72 352 CURVE SMOOTH",
"72 134 OFFCURVE",
"179 -15 OFFCURVE",
"389 -15 CURVE SMOOTH"
);
}
);
width = 677;
},
{
anchors = (
{
name = bottom;
position = "{398, 0}";
},
{
name = top;
position = "{398, 720}";
}
);
background = {
anchors = (
{
name = bottom;
position = "{388, 0}";
},
{
name = top;
position = "{412, 715}";
}
);
paths = (
{
closed = 1;
nodes = (
"628 191 LINE",
"553 189 LINE",
"553 189 OFFCURVE",
"551 153 OFFCURVE",
"550 142 CURVE",
"550 127 OFFCURVE",
"527 78 OFFCURVE",
"515 50 CURVE",
"583 105 LINE",
"512 87 OFFCURVE",
"467 78 OFFCURVE",
"410 78 CURVE SMOOTH",
"287 78 OFFCURVE",
"241 200 OFFCURVE",
"241 353 CURVE SMOOTH",
"241 506 OFFCURVE",
"288 627 OFFCURVE",
"411 627 CURVE SMOOTH",
"464 627 OFFCURVE",
"505 618 OFFCURVE",
"573 601 CURVE",
"508 654 LINE",
"518 626 OFFCURVE",
"535 584 OFFCURVE",
"535 572 CURVE SMOOTH",
"538 511 LINE",
"615 507 LINE",
"627 686 LINE",
"562 704 OFFCURVE",
"497 720 OFFCURVE",
"411 720 CURVE SMOOTH",
"179 720 OFFCURVE",
"61 570 OFFCURVE",
"61 352 CURVE SMOOTH",
"61 134 OFFCURVE",
"179 -15 OFFCURVE",
"411 -15 CURVE SMOOTH",
"496 -15 OFFCURVE",
"571 3 OFFCURVE",
"636 19 CURVE"
);
}
);
};
layerId = "16643525-C5DD-48EC-8E99-463BF28F5E85";
paths = (
{
closed = 1;
nodes = (
"490 -15 OFFCURVE",
"565 3 OFFCURVE",
"630 19 CURVE",
"622 186 LINE",
"551 184 LINE",
"548 137 LINE SMOOTH",
"547 123 OFFCURVE",
"528 75 OFFCURVE",
"516 47 CURVE",
"575 97 LINE",
"507 78 OFFCURVE",
"458 69 OFFCURVE",
"406 69 CURVE SMOOTH",
"278 69 OFFCURVE",
"226 195 OFFCURVE",
"226 353 CURVE SMOOTH",
"226 511 OFFCURVE",
"279 636 OFFCURVE",
"407 636 CURVE SMOOTH",
"458 636 OFFCURVE",
"506 625 OFFCURVE",
"565 609 CURVE",
"509 657 LINE",
"518 630 OFFCURVE",
"535 589 OFFCURVE",
"535 576 CURVE SMOOTH",
"537 519 LINE",
"609 515 LINE",
"621 686 LINE",
"554 704 OFFCURVE",
"491 720 OFFCURVE",
"407 720 CURVE SMOOTH",
"181 720 OFFCURVE",
"65 570 OFFCURVE",
"65 352 CURVE SMOOTH",
"65 134 OFFCURVE",
"181 -15 OFFCURVE",
"407 -15 CURVE SMOOTH"
);
}
);
width = 699;
}
);
leftKerningGroup = UC_Round;
rightKerningGroup = UC_C;
unicode = 0043;
},
{
color = 0;
glyphname = D;
layers = (
{
anchors = (
{
name = bottom;
position = "{344, 0}";
},
{
name = center;
position = "{199, 353}";
},
{
name = top;
position = "{345, 720}";
}
);
background = {
paths = (
{
closed = 1;
nodes = (
"106 -3 OFFCURVE",
"171 0 OFFCURVE",
"196 0 CURVE SMOOTH",
"246 0 OFFCURVE",
"298 -4 OFFCURVE",
"348 -4 CURVE SMOOTH",
"564 -4 OFFCURVE",
"693 141 OFFCURVE",
"693 352 CURVE SMOOTH",
"693 570 OFFCURVE",
"571 710 OFFCURVE",
"348 710 CURVE SMOOTH",
"282 710 OFFCURVE",
"242 705 OFFCURVE",
"178 705 CURVE SMOOTH",
"158 705 OFFCURVE",
"96 708 OFFCURVE",
"63 710 CURVE",
"58 656 LINE",
"171 638 LINE",
"130 674 LINE",
"133 656 OFFCURVE",
"144 590 OFFCURVE",
"144 568 CURVE SMOOTH",
"144 137 LINE SMOOTH",
"144 115 OFFCURVE",
"133 47 OFFCURVE",
"129 23 CURVE",
"171 68 LINE",
"56 45 LINE",
"61 -5 LINE"
);
},
{
closed = 1;
nodes = (
"242 58 OFFCURVE",
"235 108 OFFCURVE",
"235 167 CURVE SMOOTH",
"235 538 LINE SMOOTH",
"235 587 OFFCURVE",
"242 660 OFFCURVE",
"246 677 CURVE",
"227 650 LINE",
"251 650 OFFCURVE",
"293 650 OFFCURVE",
"349 650 CURVE SMOOTH",
"516 650 OFFCURVE",
"594 514 OFFCURVE",
"594 352 CURVE SMOOTH",
"594 189 OFFCURVE",
"516 55 OFFCURVE",
"349 55 CURVE SMOOTH",
"295 55 OFFCURVE",
"252 58 OFFCURVE",
"226 58 CURVE",
"244 36 LINE"
);
}
);
};
guideLines = (
{
position = "{288, 55}";
}
);
layerId = UUID0;
paths = (
{
closed = 1;
nodes = (
"106 -3 OFFCURVE",
"171 0 OFFCURVE",
"196 0 CURVE SMOOTH",
"246 0 OFFCURVE",
"298 -4 OFFCURVE",
"348 -4 CURVE SMOOTH",
"564 -4 OFFCURVE",
"693 141 OFFCURVE",
"693 352 CURVE SMOOTH",
"693 570 OFFCURVE",
"571 710 OFFCURVE",
"348 710 CURVE SMOOTH",
"282 710 OFFCURVE",
"241 705 OFFCURVE",
"177 705 CURVE SMOOTH",
"157 705 OFFCURVE",
"100 708 OFFCURVE",
"63 710 CURVE",
"58 656 LINE",
"171 638 LINE",
"130 674 LINE",
"133 656 OFFCURVE",
"144 590 OFFCURVE",
"144 568 CURVE SMOOTH",
"144 137 LINE SMOOTH",
"144 115 OFFCURVE",
"133 47 OFFCURVE",
"129 23 CURVE",
"171 68 LINE",
"56 45 LINE",
"61 -5 LINE"
);
},
{
closed = 1;
nodes = (
"242 58 OFFCURVE",
"235 108 OFFCURVE",
"235 167 CURVE SMOOTH",
"235 538 LINE SMOOTH",
"235 587 OFFCURVE",
"242 660 OFFCURVE",
"246 677 CURVE",
"227 650 LINE",
"251 650 OFFCURVE",
"293 650 OFFCURVE",
"349 650 CURVE SMOOTH",
"516 650 OFFCURVE",
"594 514 OFFCURVE",
"594 352 CURVE SMOOTH",
"594 189 OFFCURVE",
"516 55 OFFCURVE",
"349 55 CURVE SMOOTH",
"295 55 OFFCURVE",
"252 58 OFFCURVE",
"226 58 CURVE",
"244 36 LINE"
);
}
);
width = 762;
},
{
anchors = (
{
name = bottom;
position = "{353, 0}";
},
{
name = center;
position = "{209, 353}";
},
{
name = top;
position = "{355, 720}";
}
);
background = {
paths = (
{
closed = 1;
nodes = (
"59 -5 OFFCURVE",
"177 0 OFFCURVE",
"205 0 CURVE SMOOTH",
"255 0 OFFCURVE",
"313 -5 OFFCURVE",
"363 -5 CURVE SMOOTH",
"591 -5 OFFCURVE",
"714 142 OFFCURVE",
"714 352 CURVE SMOOTH",
"714 564 OFFCURVE",
"593 710 OFFCURVE",
"363 710 CURVE SMOOTH",
"309 710 OFFCURVE",
"233 705 OFFCURVE",
"179 705 CURVE SMOOTH",
"152 705 OFFCURVE",
"69 710 OFFCURVE",
"60 710 CURVE",
"55 640 LINE",
"179 619 LINE",
"118 676 LINE",
"122 648 OFFCURVE",
"132 577 OFFCURVE",
"132 549 CURVE SMOOTH",
"132 157 LINE SMOOTH",
"132 130 OFFCURVE",
"123 70 OFFCURVE",
"117 31 CURVE",
"179 83 LINE",
"54 60 LINE",
"59 -5 LINE"
);
},
{
closed = 1;
nodes = (
"277 51 OFFCURVE",
"271 139 OFFCURVE",
"271 187 CURVE SMOOTH",
"271 519 LINE SMOOTH",
"271 568 OFFCURVE",
"278 663 OFFCURVE",
"279 671 CURVE",
"249 630 LINE",
"267 630 OFFCURVE",
"318 633 OFFCURVE",
"353 633 CURVE SMOOTH",
"505 633 OFFCURVE",
"564 504 OFFCURVE",
"564 354 CURVE SMOOTH",
"564 198 OFFCURVE",
"506 72 OFFCURVE",
"352 72 CURVE SMOOTH",
"313 72 OFFCURVE",
"270 75 OFFCURVE",
"246 75 CURVE",
"280 35 LINE"
);
}
);
};
layerId = "16643525-C5DD-48EC-8E99-463BF28F5E85";
paths = (
{
closed = 1;
nodes = (
"107 -3 OFFCURVE",
"176 0 OFFCURVE",
"205 0 CURVE SMOOTH",
"255 0 OFFCURVE",
"313 -5 OFFCURVE",
"363 -5 CURVE SMOOTH",
"591 -5 OFFCURVE",
"714 142 OFFCURVE",
"714 352 CURVE SMOOTH",
"714 564 OFFCURVE",
"593 710 OFFCURVE",
"363 710 CURVE SMOOTH",
"309 710 OFFCURVE",
"233 705 OFFCURVE",
"179 705 CURVE SMOOTH",
"152 705 OFFCURVE",
"96 708 OFFCURVE",
"60 710 CURVE",
"55 640 LINE",
"179 619 LINE",
"118 676 LINE",
"122 648 OFFCURVE",
"132 577 OFFCURVE",
"132 549 CURVE SMOOTH",
"132 157 LINE SMOOTH",
"132 130 OFFCURVE",
"123 70 OFFCURVE",
"117 31 CURVE",
"179 83 LINE",
"54 60 LINE",
"59 -5 LINE"
);
},
{
closed = 1;
nodes = (
"277 51 OFFCURVE",
"271 139 OFFCURVE",
"271 187 CURVE SMOOTH",
"271 519 LINE SMOOTH",
"271 568 OFFCURVE",
"278 663 OFFCURVE",
"279 671 CURVE",
"249 630 LINE",
"267 630 OFFCURVE",
"318 633 OFFCURVE",
"353 633 CURVE SMOOTH",
"505 633 OFFCURVE",
"564 504 OFFCURVE",
"564 354 CURVE SMOOTH",
"564 198 OFFCURVE",
"506 72 OFFCURVE",
"352 72 CURVE SMOOTH",
"313 72 OFFCURVE",
"270 75 OFFCURVE",
"246 75 CURVE",
"280 35 LINE"
);
}
);
width = 777;
}
);
leftKerningGroup = UC_Stem;
rightKerningGroup = UC_Round;
unicode = 0044;
},
{
color = 0;
glyphname = Dcroat;
layers = (
{
background = {
paths = (
{
closed = 1;
nodes = (
"41 656 LINE",
"118 644 LINE",
"120 631 OFFCURVE",
"127 585 OFFCURVE",
"127 568 CURVE SMOOTH",
"127 380 LINE",
"39 380 LINE",
"39 337 LINE",
"127 337 LINE",
"127 137 LINE SMOOTH",
"127 120 OFFCURVE",
"120 74 OFFCURVE",
"118 61 CURVE",
"39 45 LINE",
"44 -5 LINE",
"44 -5 OFFCURVE",
"141 0 OFFCURVE",
"162 0 CURVE SMOOTH",
"222 0 OFFCURVE",
"291 -6 OFFCURVE",
"331 -6 CURVE SMOOTH",
"547 -6 OFFCURVE",
"676 139 OFFCURVE",
"676 352 CURVE SMOOTH",
"676 575 OFFCURVE",
"554 715 OFFCURVE",
"331 715 CURVE SMOOTH",
"265 715 OFFCURVE",
"208 707 OFFCURVE",
"144 705 CURVE",
"110 707 OFFCURVE",
"46 710 OFFCURVE",
"46 710 CURVE"
);
},
{
closed = 1;
nodes = (
"218 337 LINE",
"356 337 LINE",
"361 380 LINE",
"218 380 LINE",
"218 538 LINE SMOOTH",
"218 578 OFFCURVE",
"223 631 OFFCURVE",
"225 650 CURVE",
"250 653 OFFCURVE",
"286 655 OFFCURVE",
"332 655 CURVE SMOOTH",
"499 655 OFFCURVE",
"577 519 OFFCURVE",
"577 352 CURVE SMOOTH",
"577 187 OFFCURVE",
"499 53 OFFCURVE",
"332 53 CURVE SMOOTH",
"288 53 OFFCURVE",
"251 55 OFFCURVE",
"225 57 CURVE",
"224 61 OFFCURVE",
"218 119 OFFCURVE",
"218 167 CURVE SMOOTH"
);
}
);
};
components = (
{
name = D;
},
{
name = barcomp;
transform = "{1, 0, 0, 1, -27, -252}";
}
);
layerId = UUID0;
width = 762;
},
{
components = (
{
name = D;
},
{
name = barcomp;
transform = "{1, 0, 0, 1, -56, -239}";
}
);
layerId = "16643525-C5DD-48EC-8E99-463BF28F5E85";
width = 777;
}
);
leftKerningGroup = UC_Eth;
rightKerningGroup = UC_Round;
unicode = 0110;
},
{
color = 0;
glyphname = E;
layers = (
{
anchors = (
{
name = bottom;
position = "{322, 0}";
},
{
name = ogonek;
position = "{530, -4}";
},
{
name = top;
position = "{308, 720}";
}
);
background = {
paths = (
{
closed = 1;
nodes = (
"61 -5 OFFCURVE",
"171 0 OFFCURVE",
"196 0 CURVE SMOOTH",
"416 0 LINE SMOOTH",
"436 0 OFFCURVE",
"530 -4 OFFCURVE",
"530 -4 CURVE",
"549 14 LINE",
"564 165 LINE",
"509 170 LINE",
"507 154 OFFCURVE",
"497 117 OFFCURVE",
"494 103 CURVE SMOOTH",
"491 89 OFFCURVE",
"471 62 OFFCURVE",
"456 43 CURVE",
"488 69 LINE",
"470 65 OFFCURVE",
"426 57 OFFCURVE",
"386 57 CURVE SMOOTH",
"206 57 LINE",
"247 16 LINE",
"242 45 OFFCURVE",
"235 118 OFFCURVE",
"235 167 CURVE",
"235 538 LINE",
"235 586 OFFCURVE",
"242 660 OFFCURVE",
"245 675 CURVE",
"206 649 LINE",
"373 649 LINE SMOOTH",
"409 649 OFFCURVE",
"451 644 OFFCURVE",
"471 643 CURVE",
"436 665 LINE",
"450 651 OFFCURVE",
"472 621 OFFCURVE",
"474 610 CURVE",
"478 595 OFFCURVE",
"483 572 OFFCURVE",
"485 556 CURVE",
"543 561 LINE",
"536 692 LINE",
"517 710 LINE",
"517 710 OFFCURVE",
"423 705 OFFCURVE",
"403 705 CURVE SMOOTH",
"178 705 LINE SMOOTH",
"158 705 OFFCURVE",
"63 710 OFFCURVE",
"63 710 CURVE",
"58 656 LINE",
"171 638 LINE",
"130 681 LINE",
"135 644 OFFCURVE",
"144 590 OFFCURVE",
"144 568 CURVE SMOOTH",
"144 137 LINE SMOOTH",
"144 115 OFFCURVE",
"133 45 OFFCURVE",
"129 24 CURVE",
"171 68 LINE",
"56 45 LINE",
"61 -5 LINE"
);
},
{
closed = 1;
nodes = (
"468 271 LINE",
"468 271 OFFCURVE",
"465 330 OFFCURVE",
"465 380 CURVE SMOOTH",
"465 400 OFFCURVE",
"466 464 OFFCURVE",
"466 464 CURVE",
"420 469 LINE",
"406 364 LINE",
"437 404 LINE",
"423 402 OFFCURVE",
"379 394 OFFCURVE",
"351 394 CURVE SMOOTH",
"205 394 LINE",
"205 338 LINE",
"331 338 LINE SMOOTH",
"357 338 OFFCURVE",
"420 331 OFFCURVE",
"443 328 CURVE",
"406 368 LINE",
"420 265 LINE"
);
}
);
};
guideLines = (
{
position = "{196, 338}";
}
);
layerId = UUID0;
paths = (
{
closed = 1;
nodes = (
"106 -2 OFFCURVE",
"171 0 OFFCURVE",
"196 0 CURVE SMOOTH",
"416 0 LINE SMOOTH",
"434 0 OFFCURVE",
"492 -2 OFFCURVE",
"530 -4 CURVE",
"549 14 LINE",
"564 165 LINE",
"509 170 LINE",
"494 103 LINE SMOOTH",
"491 88 OFFCURVE",
"471 62 OFFCURVE",
"456 43 CURVE",
"488 69 LINE",
"470 65 OFFCURVE",
"426 57 OFFCURVE",
"386 57 CURVE SMOOTH",
"206 57 LINE",
"247 16 LINE",
"242 45 OFFCURVE",
"235 118 OFFCURVE",
"235 167 CURVE SMOOTH",
"235 538 LINE SMOOTH",
"235 564 OFFCURVE",
"240 629 OFFCURVE",
"245 675 CURVE",
"206 649 LINE",
"373 649 LINE SMOOTH",
"409 649 OFFCURVE",
"451 646 OFFCURVE",
"471 643 CURVE",
"436 665 LINE",
"451 651 OFFCURVE",
"472 620 OFFCURVE",
"474 610 CURVE SMOOTH",
"485 556 LINE",
"543 561 LINE",
"536 692 LINE",
"517 710 LINE",
"479 707 OFFCURVE",
"421 705 OFFCURVE",
"403 705 CURVE SMOOTH",
"178 705 LINE SMOOTH",
"158 705 OFFCURVE",
"100 708 OFFCURVE",
"63 710 CURVE",
"58 656 LINE",
"171 638 LINE",
"130 681 LINE",
"136 643 OFFCURVE",
"144 586 OFFCURVE",
"144 568 CURVE SMOOTH",
"144 137 LINE SMOOTH",
"144 115 OFFCURVE",
"133 45 OFFCURVE",
"129 24 CURVE",
"171 68 LINE",
"56 45 LINE",
"61 -5 LINE"
);
},
{
closed = 1;
nodes = (
"468 271 LINE",
"466 307 OFFCURVE",
"465 344 OFFCURVE",
"465 380 CURVE SMOOTH",
"465 464 LINE",
"420 469 LINE",
"406 364 LINE",
"437 404 LINE",
"423 402 OFFCURVE",
"379 394 OFFCURVE",
"351 394 CURVE SMOOTH",
"205 394 LINE",
"205 338 LINE",
"331 338 LINE SMOOTH",
"357 338 OFFCURVE",
"420 331 OFFCURVE",
"443 328 CURVE",
"406 368 LINE",
"420 265 LINE"
);
}
);
width = 630;
},
{
anchors = (
{
name = bottom;
position = "{338, 0}";
},
{
name = ogonek;
position = "{549, -4}";
},
{
name = top;
position = "{312, 720}";
}
);
background = {
paths = (
{
closed = 1;
nodes = (
"59 -5 OFFCURVE",
"177 0 OFFCURVE",
"205 0 CURVE SMOOTH",
"435 0 LINE SMOOTH",
"455 0 OFFCURVE",
"549 -4 OFFCURVE",
"549 -4 CURVE",
"568 14 LINE",
"583 184 LINE",
"517 189 LINE",
"517 185 OFFCURVE",
"507 138 OFFCURVE",
"504 129 CURVE SMOOTH",
"500 113 OFFCURVE",
"479 73 OFFCURVE",
"453 42 CURVE",
"506 93 LINE",
"491 89 OFFCURVE",
"449 80 OFFCURVE",
"405 80 CURVE SMOOTH",
"240 80 LINE",
"281 47 LINE",
"278 72 OFFCURVE",
"271 148 OFFCURVE",
"271 187 CURVE SMOOTH",
"271 519 LINE SMOOTH",
"271 569 OFFCURVE",
"279 654 OFFCURVE",
"279 656 CURVE",
"221 630 LINE",
"394 630 LINE SMOOTH",
"434 630 OFFCURVE",
"481 625 OFFCURVE",
"506 623 CURVE",
"451 675 LINE",
"464 647 OFFCURVE",
"479 615 OFFCURVE",
"486 590 CURVE",
"488 574 OFFCURVE",
"491 557 OFFCURVE",
"493 542 CURVE",
"561 547 LINE",
"554 692 LINE",
"535 710 LINE",
"518 709 OFFCURVE",
"443 705 OFFCURVE",
"421 705 CURVE SMOOTH",
"179 705 LINE SMOOTH",
"152 705 OFFCURVE",
"60 710 OFFCURVE",
"60 710 CURVE",
"55 640 LINE",
"179 619 LINE",
"117 671 LINE",
"122 640 OFFCURVE",
"132 575 OFFCURVE",
"132 549 CURVE SMOOTH",
"132 157 LINE SMOOTH",
"132 129 OFFCURVE",
"121 60 OFFCURVE",
"117 37 CURVE",
"179 83 LINE",
"54 60 LINE",
"59 -5 LINE"
);
},
{
closed = 1;
nodes = (
"479 260 LINE",
"479 260 OFFCURVE",
"476 333 OFFCURVE",
"476 382 CURVE SMOOTH",
"476 402 OFFCURVE",
"477 466 OFFCURVE",
"477 466 CURVE",
"419 471 LINE",
"405 367 LINE",
"438 409 LINE",
"419 403 OFFCURVE",
"385 397 OFFCURVE",
"362 397 CURVE SMOOTH",
"225 397 LINE",
"225 322 LINE",
"342 322 LINE SMOOTH",
"372 322 OFFCURVE",
"424 317 OFFCURVE",
"454 315 CURVE",
"405 352 LINE",
"419 254 LINE"
);
}
);
};
layerId = "16643525-C5DD-48EC-8E99-463BF28F5E85";
paths = (
{
closed = 1;
nodes = (
"108 -2 OFFCURVE",
"176 0 OFFCURVE",
"205 0 CURVE SMOOTH",
"435 0 LINE SMOOTH",
"463 0 OFFCURVE",
"511 -2 OFFCURVE",
"549 -4 CURVE",
"568 14 LINE",
"583 184 LINE",
"517 189 LINE",
"504 129 LINE SMOOTH",
"500 112 OFFCURVE",
"479 73 OFFCURVE",
"453 42 CURVE",
"506 93 LINE",
"491 89 OFFCURVE",
"449 80 OFFCURVE",
"405 80 CURVE SMOOTH",
"240 80 LINE",
"281 47 LINE",
"278 72 OFFCURVE",
"271 148 OFFCURVE",
"271 187 CURVE SMOOTH",
"271 519 LINE SMOOTH",
"271 545 OFFCURVE",
"274 610 OFFCURVE",
"279 656 CURVE",
"221 630 LINE",
"394 630 LINE SMOOTH",
"434 630 OFFCURVE",
"481 625 OFFCURVE",
"506 623 CURVE",
"451 675 LINE",
"465 647 OFFCURVE",
"484 603 OFFCURVE",
"486 590 CURVE SMOOTH",
"493 542 LINE",
"561 547 LINE",
"554 692 LINE",
"535 710 LINE",
"497 707 OFFCURVE",
"439 705 OFFCURVE",
"421 705 CURVE SMOOTH",
"179 705 LINE SMOOTH",
"152 705 OFFCURVE",
"96 708 OFFCURVE",
"60 710 CURVE",
"55 640 LINE",
"179 619 LINE",
"117 671 LINE",
"124 630 OFFCURVE",
"132 570 OFFCURVE",
"132 549 CURVE SMOOTH",
"132 157 LINE SMOOTH",
"132 129 OFFCURVE",
"121 60 OFFCURVE",
"117 37 CURVE",
"179 83 LINE",
"54 60 LINE",
"59 -5 LINE"
);
},
{
closed = 1;
nodes = (
"479 260 LINE",
"477 301 OFFCURVE",
"476 341 OFFCURVE",
"476 382 CURVE SMOOTH",
"476 466 LINE",
"419 471 LINE",
"405 367 LINE",
"438 409 LINE",
"419 403 OFFCURVE",
"385 397 OFFCURVE",
"362 397 CURVE SMOOTH",
"225 397 LINE",
"225 322 LINE",
"342 322 LINE SMOOTH",
"372 322 OFFCURVE",
"424 317 OFFCURVE",
"454 315 CURVE",
"405 352 LINE",
"419 254 LINE"
);
}
);
width = 646;
}
);
leftKerningGroup = UC_Stem;
rightKerningGroup = UC_E;
unicode = 0045;
},
{
color = 0;
glyphname = Eng;
layers = (
{
annotations = (
{
position = "{625, -5}";
type = Text;
}
);
background = {
paths = (
{
closed = 1;
nodes = (
"756 710 LINE",
"726 708 OFFCURVE",
"685 705 OFFCURVE",
"625 705 CURVE SMOOTH",
"605 705 OFFCURVE",
"549 708 OFFCURVE",
"518 710 CURVE",
"513 656 LINE",
"627 638 LINE",
"586 669 LINE",
"593 639 OFFCURVE",
"600 585 OFFCURVE",
"600 568 CURVE SMOOTH",
"600 131 LINE",
"621 137 LINE",
"338 530 LINE SMOOTH",
"322 552 OFFCURVE",
"241 685 OFFCURVE",
"241 685 CURVE",
"221 705 LINE",
"176 705 LINE SMOOTH",
"156 705 OFFCURVE",
"98 708 OFFCURVE",
"61 710 CURVE",
"56 656 LINE",
"172 639 LINE",
"133 665 LINE",
"136 643 OFFCURVE",
"145 586 OFFCURVE",
"145 568 CURVE SMOOTH",
"145 137 LINE SMOOTH",
"145 117 OFFCURVE",
"136 65 OFFCURVE",
"133 38 CURVE",
"172 68 LINE",
"58 45 LINE",
"63 -5 LINE",
"103 -3 OFFCURVE",
"164 0 OFFCURVE",
"184 0 CURVE SMOOTH",
"293 0 LINE",
"300 54 LINE",
"183 64 LINE",
"222 42 LINE",
"217 73 OFFCURVE",
"212 123 OFFCURVE",
"212 167 CURVE SMOOTH",
"212 556 LINE",
"621 -22 LINE",
"598 13 LINE",
"611 8 OFFCURVE",
"554 -109 OFFCURVE",
"520 -178 CURVE",
"554 -200 LINE",
"648 -60 OFFCURVE",
"666 -27 OFFCURVE",
"666 0 CURVE SMOOTH",
"667 538 LINE SMOOTH",
"667 583 OFFCURVE",
"679 633 OFFCURVE",
"685 662 CURVE",
"645 641 LINE",
"760 651 LINE"
);
}
);
};
layerId = UUID0;
paths = (
{
closed = 1;
nodes = (
"648 -60 OFFCURVE",
"666 -27 OFFCURVE",
"666 0 CURVE SMOOTH",
"667 538 LINE SMOOTH",
"667 583 OFFCURVE",
"679 633 OFFCURVE",
"685 662 CURVE",
"645 641 LINE",
"760 651 LINE",
"756 710 LINE",
"726 708 OFFCURVE",
"685 705 OFFCURVE",
"625 705 CURVE SMOOTH",
"605 705 OFFCURVE",
"549 708 OFFCURVE",
"518 710 CURVE",
"513 656 LINE",
"627 638 LINE",
"586 669 LINE",
"593 639 OFFCURVE",
"600 585 OFFCURVE",
"600 568 CURVE SMOOTH",
"600 131 LINE",
"621 137 LINE",
"338 530 LINE SMOOTH",
"322 552 OFFCURVE",
"241 685 OFFCURVE",
"241 685 CURVE",
"221 705 LINE",
"176 705 LINE SMOOTH",
"156 705 OFFCURVE",
"98 708 OFFCURVE",
"61 710 CURVE",
"56 656 LINE",
"172 639 LINE",
"133 665 LINE",
"136 643 OFFCURVE",
"145 586 OFFCURVE",
"145 568 CURVE SMOOTH",
"145 137 LINE SMOOTH",
"145 117 OFFCURVE",
"136 65 OFFCURVE",
"133 38 CURVE",
"172 68 LINE",
"58 45 LINE",
"63 -5 LINE",
"103 -3 OFFCURVE",
"164 0 OFFCURVE",
"184 0 CURVE SMOOTH",
"293 0 LINE",
"300 54 LINE",
"183 64 LINE",
"222 42 LINE",
"217 73 OFFCURVE",
"212 123 OFFCURVE",
"212 167 CURVE SMOOTH",
"212 592 LINE",
"191 586 LINE",
"621 -22 LINE",
"615 71 LINE",
"603 -17 OFFCURVE",
"554 -109 OFFCURVE",
"520 -178 CURVE",
"554 -200 LINE"
);
}
);
width = 807;
},
{
background = {
paths = (
{
closed = 1;
nodes = (
"778 710 LINE",
"733 708 OFFCURVE",
"691 705 OFFCURVE",
"623 705 CURVE SMOOTH",
"599 705 OFFCURVE",
"550 708 OFFCURVE",
"519 710 CURVE",
"514 640 LINE",
"644 617 LINE",
"577 668 LINE",
"579 638 OFFCURVE",
"591 575 OFFCURVE",
"591 549 CURVE SMOOTH",
"591 152 LINE",
"628 164 LINE",
"360 536 LINE SMOOTH",
"345 557 OFFCURVE",
"270 685 OFFCURVE",
"270 685 CURVE",
"251 705 LINE",
"171 705 LINE SMOOTH",
"146 705 OFFCURVE",
"93 708 OFFCURVE",
"59 710 CURVE",
"54 640 LINE",
"185 617 LINE",
"118 663 LINE",
"120 642 OFFCURVE",
"132 573 OFFCURVE",
"132 549 CURVE SMOOTH",
"132 157 LINE SMOOTH",
"132 127 OFFCURVE",
"121 64 OFFCURVE",
"119 37 CURVE",
"185 85 LINE",
"54 60 LINE",
"59 -5 LINE",
"99 -3 OFFCURVE",
"160 0 OFFCURVE",
"179 0 CURVE SMOOTH",
"316 0 LINE",
"322 67 LINE",
"189 78 LINE",
"256 39 LINE",
"251 74 OFFCURVE",
"244 139 OFFCURVE",
"244 187 CURVE SMOOTH",
"244 539 LINE",
"207 527 LINE",
"622 -49 LINE",
"584 18 LINE",
"599 4 OFFCURVE",
"531 -107 OFFCURVE",
"492 -169 CURVE",
"546 -200 LINE",
"631 -115 OFFCURVE",
"703 -31 OFFCURVE",
"703 0 CURVE SMOOTH",
"703 519 LINE SMOOTH",
"703 569 OFFCURVE",
"713 628 OFFCURVE",
"718 660 CURVE",
"650 622 LINE",
"782 635 LINE"
);
}
);
};
layerId = "16643525-C5DD-48EC-8E99-463BF28F5E85";
paths = (
{
closed = 1;
nodes = (
"631 -115 OFFCURVE",
"703 -31 OFFCURVE",
"703 0 CURVE SMOOTH",
"703 519 LINE SMOOTH",
"703 569 OFFCURVE",
"713 628 OFFCURVE",
"718 660 CURVE",
"650 622 LINE",
"782 635 LINE",
"778 710 LINE",
"733 708 OFFCURVE",
"691 705 OFFCURVE",
"623 705 CURVE SMOOTH",
"599 705 OFFCURVE",
"550 708 OFFCURVE",
"519 710 CURVE",
"514 640 LINE",
"644 617 LINE",
"577 668 LINE",
"579 638 OFFCURVE",
"591 575 OFFCURVE",
"591 549 CURVE SMOOTH",
"591 152 LINE",
"628 164 LINE",
"360 536 LINE SMOOTH",
"345 557 OFFCURVE",
"270 685 OFFCURVE",
"270 685 CURVE",
"251 705 LINE",
"171 705 LINE SMOOTH",
"146 705 OFFCURVE",
"93 708 OFFCURVE",
"59 710 CURVE",
"54 640 LINE",
"185 617 LINE",
"118 663 LINE",
"120 642 OFFCURVE",
"132 573 OFFCURVE",
"132 549 CURVE SMOOTH",
"132 157 LINE SMOOTH",
"132 127 OFFCURVE",
"121 64 OFFCURVE",
"119 37 CURVE",
"185 85 LINE",
"54 60 LINE",
"59 -5 LINE",
"99 -3 OFFCURVE",
"160 0 OFFCURVE",
"179 0 CURVE SMOOTH",
"316 0 LINE",
"322 67 LINE",
"189 78 LINE",
"256 39 LINE",
"251 74 OFFCURVE",
"244 139 OFFCURVE",
"244 187 CURVE SMOOTH",
"244 539 LINE",
"207 527 LINE",
"622 -49 LINE",
"599 71 LINE",
"597 -5 OFFCURVE",
"531 -107 OFFCURVE",
"492 -169 CURVE",
"546 -200 LINE"
);
}
);
width = 825;
}
);
leftKerningGroup = UC_Stem;
rightKerningGroup = UC_N;
unicode = 014A;
},
{
color = 0;
glyphname = F;
layers = (
{
anchors = (
{
name = bottom;
position = "{300, 0}";
},
{
name = top;
position = "{300, 720}";
}
);
background = {
anchors = (
{
name = bottom;
position = "{300, 0}";
},
{
name = top;
position = "{300, 705}";
}
);
paths = (
{
closed = 1;
nodes = (
"61 -5 OFFCURVE",
"171 0 OFFCURVE",
"196 0 CURVE",
"335 0 LINE",
"342 54 LINE",
"206 64 LINE",
"247 24 LINE",
"243 45 OFFCURVE",
"235 115 OFFCURVE",
"235 167 CURVE",
"235 538 LINE",
"235 586 OFFCURVE",
"244 671 OFFCURVE",
"245 678 CURVE",
"206 649 LINE",
"373 649 LINE SMOOTH",
"409 649 OFFCURVE",
"451 644 OFFCURVE",
"471 643 CURVE",
"436 665 LINE",
"450 651 OFFCURVE",
"472 621 OFFCURVE",
"474 610 CURVE",
"478 595 OFFCURVE",
"483 572 OFFCURVE",
"485 556 CURVE",
"543 561 LINE",
"536 692 LINE",
"517 710 LINE",
"517 710 OFFCURVE",
"423 705 OFFCURVE",
"403 705 CURVE SMOOTH",
"178 705 LINE SMOOTH",
"158 705 OFFCURVE",
"63 710 OFFCURVE",
"63 710 CURVE",
"58 656 LINE",
"171 638 LINE",
"129 676 LINE",
"134 652 OFFCURVE",
"144 590 OFFCURVE",
"144 568 CURVE SMOOTH",
"144 137 LINE SMOOTH",
"144 115 OFFCURVE",
"134 52 OFFCURVE",
"128 20 CURVE",
"171 68 LINE",
"56 45 LINE",
"61 -5 LINE"
);
},
{
closed = 1;
nodes = (
"468 263 LINE",
"468 263 OFFCURVE",
"465 322 OFFCURVE",
"465 372 CURVE SMOOTH",
"465 392 OFFCURVE",
"466 456 OFFCURVE",
"466 456 CURVE",
"420 461 LINE",
"407 365 LINE",
"439 402 LINE",
"421 397 OFFCURVE",
"379 386 OFFCURVE",
"351 386 CURVE SMOOTH",
"201 386 LINE",
"201 330 LINE",
"331 330 LINE SMOOTH",
"357 330 OFFCURVE",
"426 323 OFFCURVE",
"444 320 CURVE",
"407 353 LINE",
"420 257 LINE"
);
}
);
};
layerId = UUID0;
paths = (
{
closed = 1;
nodes = (
"106 -3 OFFCURVE",
"171 0 OFFCURVE",
"196 0 CURVE SMOOTH",
"335 0 LINE",
"342 54 LINE",
"206 64 LINE",
"247 24 LINE",
"243 45 OFFCURVE",
"235 115 OFFCURVE",
"235 167 CURVE",
"235 538 LINE",
"235 586 OFFCURVE",
"244 671 OFFCURVE",
"245 678 CURVE",
"206 649 LINE",
"373 649 LINE SMOOTH",
"409 649 OFFCURVE",
"451 644 OFFCURVE",
"471 643 CURVE",
"436 665 LINE",
"450 651 OFFCURVE",
"472 621 OFFCURVE",
"474 610 CURVE",
"478 595 OFFCURVE",
"483 572 OFFCURVE",
"485 556 CURVE",
"543 561 LINE",
"536 692 LINE",
"517 710 LINE",
"498 709 OFFCURVE",
"423 705 OFFCURVE",
"403 705 CURVE SMOOTH",
"178 705 LINE SMOOTH",
"158 705 OFFCURVE",
"100 708 OFFCURVE",
"63 710 CURVE",
"58 656 LINE",
"171 638 LINE",
"129 676 LINE",
"134 652 OFFCURVE",
"144 590 OFFCURVE",
"144 568 CURVE SMOOTH",
"144 137 LINE SMOOTH",
"144 115 OFFCURVE",
"134 52 OFFCURVE",
"128 20 CURVE",
"171 68 LINE",
"56 45 LINE",
"61 -5 LINE"
);
},
{
closed = 1;
nodes = (
"468 263 LINE",
"468 263 OFFCURVE",
"465 322 OFFCURVE",
"465 372 CURVE SMOOTH",
"465 456 LINE",
"420 461 LINE",
"407 365 LINE",
"439 402 LINE",
"421 397 OFFCURVE",
"379 386 OFFCURVE",
"351 386 CURVE SMOOTH",
"201 386 LINE",
"201 330 LINE",
"331 330 LINE SMOOTH",
"357 330 OFFCURVE",
"426 323 OFFCURVE",
"444 320 CURVE",
"407 353 LINE",
"420 257 LINE"
);
}
);
width = 597;
},
{
anchors = (
{
name = bottom;
position = "{306, 0}";
},
{
name = top;
position = "{306, 720}";
}
);
background = {
paths = (
{
closed = 1;
nodes = (
"59 -5 OFFCURVE",
"177 0 OFFCURVE",
"205 0 CURVE SMOOTH",
"371 0 LINE",
"376 67 LINE",
"224 77 LINE",
"286 33 LINE",
"280 69 OFFCURVE",
"271 133 OFFCURVE",
"271 187 CURVE SMOOTH",
"271 519 LINE SMOOTH",
"271 564 OFFCURVE",
"278 641 OFFCURVE",
"279 656 CURVE",
"221 630 LINE",
"391 630 LINE SMOOTH",
"435 630 OFFCURVE",
"486 623 OFFCURVE",
"500 622 CURVE",
"458 652 LINE",
"471 628 OFFCURVE",
"480 610 OFFCURVE",
"483 599 CURVE SMOOTH",
"488 581 OFFCURVE",
"491 557 OFFCURVE",
"493 541 CURVE",
"561 546 LINE",
"554 692 LINE",
"535 710 LINE",
"535 710 OFFCURVE",
"441 705 OFFCURVE",
"421 705 CURVE SMOOTH",
"179 705 LINE SMOOTH",
"152 705 OFFCURVE",
"60 710 OFFCURVE",
"60 710 CURVE",
"55 640 LINE",
"179 619 LINE",
"119 664 LINE",
"123 630 OFFCURVE",
"132 577 OFFCURVE",
"132 549 CURVE SMOOTH",
"132 157 LINE SMOOTH",
"132 132 OFFCURVE",
"124 76 OFFCURVE",
"117 33 CURVE",
"179 83 LINE",
"54 60 LINE",
"59 -5 LINE"
);
},
{
closed = 1;
nodes = (
"479 250 LINE",
"479 250 OFFCURVE",
"476 322 OFFCURVE",
"476 372 CURVE SMOOTH",
"476 455 LINE",
"419 460 LINE",
"406 360 LINE",
"436 399 LINE",
"415 394 OFFCURVE",
"381 387 OFFCURVE",
"362 387 CURVE SMOOTH",
"217 387 LINE",
"217 311 LINE",
"342 311 LINE SMOOTH",
"372 311 OFFCURVE",
"420 306 OFFCURVE",
"447 304 CURVE",
"406 335 LINE",
"419 244 LINE"
);
}
);
};
layerId = "16643525-C5DD-48EC-8E99-463BF28F5E85";
paths = (
{
closed = 1;
nodes = (
"59 -5 OFFCURVE",
"177 0 OFFCURVE",
"205 0 CURVE SMOOTH",
"371 0 LINE",
"376 67 LINE",
"224 77 LINE",
"286 33 LINE",
"280 69 OFFCURVE",
"271 133 OFFCURVE",
"271 187 CURVE SMOOTH",
"271 519 LINE SMOOTH",
"271 564 OFFCURVE",
"278 641 OFFCURVE",
"279 656 CURVE",
"221 630 LINE",
"391 630 LINE SMOOTH",
"435 630 OFFCURVE",
"486 623 OFFCURVE",
"500 622 CURVE",
"458 652 LINE",
"471 628 OFFCURVE",
"480 610 OFFCURVE",
"483 599 CURVE SMOOTH",
"488 581 OFFCURVE",
"491 557 OFFCURVE",
"493 541 CURVE",
"561 546 LINE",
"554 692 LINE",
"535 710 LINE",
"500 708 OFFCURVE",
"441 705 OFFCURVE",
"421 705 CURVE SMOOTH",
"179 705 LINE SMOOTH",
"152 705 OFFCURVE",
"96 708 OFFCURVE",
"60 710 CURVE",
"55 640 LINE",
"179 619 LINE",
"119 664 LINE",
"123 630 OFFCURVE",
"132 577 OFFCURVE",
"132 549 CURVE SMOOTH",
"132 157 LINE SMOOTH",
"132 132 OFFCURVE",
"124 76 OFFCURVE",
"117 33 CURVE",
"179 83 LINE",
"54 60 LINE",
"59 -5 LINE"
);
},
{
closed = 1;
nodes = (
"479 250 LINE",
"479 250 OFFCURVE",
"476 322 OFFCURVE",
"476 372 CURVE SMOOTH",
"476 455 LINE",
"419 460 LINE",
"406 360 LINE",
"436 399 LINE",
"415 394 OFFCURVE",
"381 387 OFFCURVE",
"362 387 CURVE SMOOTH",
"217 387 LINE",
"217 311 LINE",
"342 311 LINE SMOOTH",
"372 311 OFFCURVE",
"420 306 OFFCURVE",
"447 304 CURVE",
"406 335 LINE",
"419 244 LINE"
);
}
);
width = 611;
}
);
leftKerningGroup = UC_Stem;
rightKerningGroup = UC_P;
unicode = 0046;
},
{
color = 0;
glyphname = G;
layers = (
{
anchors = (
{
name = bottom;
position = "{421, 0}";
},
{
name = top;
position = "{419, 720}";
}
);
background = {
paths = (
{
closed = 1;
nodes = (
"491 -15 OFFCURVE",
"567 3 OFFCURVE",
"634 19 CURVE",
"634 166 LINE SMOOTH",
"634 216 OFFCURVE",
"643 319 OFFCURVE",
"643 319 CURVE",
"625 336 LINE",
"625 336 OFFCURVE",
"574 333 OFFCURVE",
"554 333 CURVE",
"443 333 LINE",
"438 275 LINE",
"580 264 LINE",
"543 298 LINE",
"546 276 OFFCURVE",
"554 223 OFFCURVE",
"554 196 CURVE SMOOTH",
"554 128 LINE SMOOTH",
"554 113 OFFCURVE",
"543 66 OFFCURVE",
"536 36 CURVE",
"564 70 LINE",
"516 54 OFFCURVE",
"449 43 OFFCURVE",
"402 43 CURVE SMOOTH",
"247 43 OFFCURVE",
"172 180 OFFCURVE",
"172 353 CURVE SMOOTH",
"172 526 OFFCURVE",
"247 662 OFFCURVE",
"402 662 CURVE SMOOTH",
"452 662 OFFCURVE",
"519 648 OFFCURVE",
"565 632 CURVE",
"536 665 LINE",
"543 641 OFFCURVE",
"556 602 OFFCURVE",
"556 589 CURVE SMOOTH",
"556 542 LINE",
"615 538 LINE",
"625 686 LINE",
"558 702 OFFCURVE",
"492 720 OFFCURVE",
"405 720 CURVE SMOOTH",
"184 720 OFFCURVE",
"71 570 OFFCURVE",
"71 352 CURVE SMOOTH",
"71 134 OFFCURVE",
"184 -15 OFFCURVE",
"405 -15 CURVE SMOOTH"
);
}
);
};
layerId = UUID0;
paths = (
{
closed = 1;
nodes = (
"491 -15 OFFCURVE",
"567 3 OFFCURVE",
"634 19 CURVE",
"634 166 LINE SMOOTH",
"634 207 OFFCURVE",
"639 268 OFFCURVE",
"643 319 CURVE",
"625 336 LINE",
"601 335 OFFCURVE",
"568 333 OFFCURVE",
"554 333 CURVE SMOOTH",
"443 333 LINE",
"438 275 LINE",
"580 264 LINE",
"543 298 LINE",
"546 276 OFFCURVE",
"554 223 OFFCURVE",
"554 196 CURVE SMOOTH",
"554 128 LINE SMOOTH",
"554 113 OFFCURVE",
"543 66 OFFCURVE",
"536 36 CURVE",
"564 70 LINE",
"516 54 OFFCURVE",
"449 43 OFFCURVE",
"402 43 CURVE SMOOTH",
"247 43 OFFCURVE",
"172 180 OFFCURVE",
"172 353 CURVE SMOOTH",
"172 526 OFFCURVE",
"247 662 OFFCURVE",
"402 662 CURVE SMOOTH",
"452 662 OFFCURVE",
"519 648 OFFCURVE",
"565 632 CURVE",
"536 665 LINE",
"543 641 OFFCURVE",
"556 602 OFFCURVE",
"556 589 CURVE SMOOTH",
"556 542 LINE",
"615 538 LINE",
"625 686 LINE",
"558 702 OFFCURVE",
"492 720 OFFCURVE",
"405 720 CURVE SMOOTH",
"184 720 OFFCURVE",
"71 570 OFFCURVE",
"71 352 CURVE SMOOTH",
"71 134 OFFCURVE",
"184 -15 OFFCURVE",
"405 -15 CURVE SMOOTH"
);
}
);
width = 725;
},
{
anchors = (
{
name = bottom;
position = "{428, 0}";
},
{
name = top;
position = "{426, 720}";
}
);
background = {
paths = (
{
closed = 1;
nodes = (
"512 -15 OFFCURVE",
"590 3 OFFCURVE",
"659 19 CURVE",
"659 189 LINE SMOOTH",
"659 238 OFFCURVE",
"668 336 OFFCURVE",
"668 336 CURVE",
"642 359 LINE",
"642 359 OFFCURVE",
"568 356 OFFCURVE",
"538 356 CURVE",
"427 356 LINE",
"422 268 LINE",
"584 255 LINE",
"523 301 LINE",
"528 276 OFFCURVE",
"538 229 OFFCURVE",
"538 196 CURVE SMOOTH",
"538 128 LINE SMOOTH",
"538 111 OFFCURVE",
"526 65 OFFCURVE",
"519 34 CURVE",
"568 87 LINE",
"515 76 OFFCURVE",
"469 69 OFFCURVE",
"421 69 CURVE SMOOTH",
"282 69 OFFCURVE",
"224 195 OFFCURVE",
"224 353 CURVE SMOOTH",
"224 511 OFFCURVE",
"283 636 OFFCURVE",
"422 636 CURVE SMOOTH",
"474 636 OFFCURVE",
"538 625 OFFCURVE",
"586 610 CURVE",
"546 651 LINE",
"557 613 OFFCURVE",
"563 583 OFFCURVE",
"563 576 CURVE SMOOTH",
"565 519 LINE",
"637 515 LINE",
"649 686 LINE",
"585 703 OFFCURVE",
"510 720 OFFCURVE",
"423 720 CURVE SMOOTH",
"186 720 OFFCURVE",
"64 570 OFFCURVE",
"64 352 CURVE SMOOTH",
"64 134 OFFCURVE",
"186 -15 OFFCURVE",
"423 -15 CURVE SMOOTH"
);
}
);
};
layerId = "16643525-C5DD-48EC-8E99-463BF28F5E85";
paths = (
{
closed = 1;
nodes = (
"512 -15 OFFCURVE",
"590 3 OFFCURVE",
"659 19 CURVE",
"659 189 LINE SMOOTH",
"659 218 OFFCURVE",
"664 287 OFFCURVE",
"668 336 CURVE",
"642 359 LINE",
"607 358 OFFCURVE",
"555 356 OFFCURVE",
"538 356 CURVE SMOOTH",
"427 356 LINE",
"422 268 LINE",
"584 255 LINE",
"523 301 LINE",
"528 276 OFFCURVE",
"538 229 OFFCURVE",
"538 196 CURVE SMOOTH",
"538 128 LINE SMOOTH",
"538 111 OFFCURVE",
"526 65 OFFCURVE",
"519 34 CURVE",
"568 87 LINE",
"515 76 OFFCURVE",
"469 69 OFFCURVE",
"421 69 CURVE SMOOTH",
"282 69 OFFCURVE",
"224 195 OFFCURVE",
"224 353 CURVE SMOOTH",
"224 511 OFFCURVE",
"283 636 OFFCURVE",
"422 636 CURVE SMOOTH",
"474 636 OFFCURVE",
"538 625 OFFCURVE",
"586 610 CURVE",
"546 651 LINE",
"557 613 OFFCURVE",
"563 583 OFFCURVE",
"563 576 CURVE SMOOTH",
"565 519 LINE",
"637 515 LINE",
"649 686 LINE",
"585 703 OFFCURVE",
"510 720 OFFCURVE",
"423 720 CURVE SMOOTH",
"186 720 OFFCURVE",
"64 570 OFFCURVE",
"64 352 CURVE SMOOTH",
"64 134 OFFCURVE",
"186 -15 OFFCURVE",
"423 -15 CURVE SMOOTH"
);
}
);
width = 747;
}
);
leftKerningGroup = UC_Round;
rightKerningGroup = UC_G;
unicode = 0047;
},
{
color = 0;
glyphname = H;
layers = (
{
anchors = (
{
name = bottom;
position = "{401, 0}";
},
{
name = center;
position = "{401, 520}";
},
{
name = top;
position = "{401, 720}";
}
);
background = {
paths = (
{
closed = 1;
nodes = (
"538 -2 OFFCURVE",
"583 0 OFFCURVE",
"618 0 CURVE SMOOTH",
"747 0 LINE",
"754 54 LINE",
"628 64 LINE",
"669 28 LINE",
"664 53 OFFCURVE",
"657 115 OFFCURVE",
"657 167 CURVE SMOOTH",
"657 538 LINE SMOOTH",
"657 590 OFFCURVE",
"664 652 OFFCURVE",
"667 677 CURVE",
"628 641 LINE",
"742 651 LINE",
"738 710 LINE",
"682 707 OFFCURVE",
"636 705 OFFCURVE",
"600 705 CURVE SMOOTH",
"572 705 OFFCURVE",
"533 707 OFFCURVE",
"485 710 CURVE",
"480 656 LINE",
"593 638 LINE",
"552 677 LINE",
"556 657 OFFCURVE",
"566 590 OFFCURVE",
"566 568 CURVE SMOOTH",
"566 137 LINE SMOOTH",
"566 115 OFFCURVE",
"557 57 OFFCURVE",
"551 28 CURVE",
"593 68 LINE",
"478 45 LINE",
"483 -5 LINE"
);
},
{
closed = 1;
nodes = (
"116 -2 OFFCURVE",
"161 0 OFFCURVE",
"196 0 CURVE SMOOTH",
"325 0 LINE",
"332 54 LINE",
"206 64 LINE",
"247 28 LINE",
"242 54 OFFCURVE",
"235 115 OFFCURVE",
"235 167 CURVE SMOOTH",
"235 538 LINE SMOOTH",
"235 590 OFFCURVE",
"243 658 OFFCURVE",
"246 677 CURVE",
"206 641 LINE",
"320 651 LINE",
"316 710 LINE",
"260 707 OFFCURVE",
"214 705 OFFCURVE",
"178 705 CURVE SMOOTH",
"150 705 OFFCURVE",
"111 707 OFFCURVE",
"63 710 CURVE",
"58 656 LINE",
"171 638 LINE",
"130 677 LINE",
"134 656 OFFCURVE",
"144 590 OFFCURVE",
"144 568 CURVE SMOOTH",
"144 137 LINE SMOOTH",
"144 115 OFFCURVE",
"133 46 OFFCURVE",
"130 28 CURVE",
"171 68 LINE",
"56 45 LINE",
"61 -5 LINE"
);
},
{
closed = 1;
nodes = (
"621 327 LINE",
"621 383 LINE",
"180 378 LINE",
"180 327 LINE"
);
}
);
};
layerId = UUID0;
paths = (
{
closed = 1;
nodes = (
"538 -2 OFFCURVE",
"583 0 OFFCURVE",
"618 0 CURVE SMOOTH",
"747 0 LINE",
"754 54 LINE",
"628 64 LINE",
"669 28 LINE",
"664 53 OFFCURVE",
"657 115 OFFCURVE",
"657 167 CURVE SMOOTH",
"657 538 LINE SMOOTH",
"657 590 OFFCURVE",
"664 652 OFFCURVE",
"667 677 CURVE",
"628 641 LINE",
"742 651 LINE",
"738 710 LINE",
"682 707 OFFCURVE",
"636 705 OFFCURVE",
"600 705 CURVE SMOOTH",
"580 705 OFFCURVE",
"522 708 OFFCURVE",
"485 710 CURVE",
"480 656 LINE",
"593 638 LINE",
"552 677 LINE",
"556 657 OFFCURVE",
"566 590 OFFCURVE",
"566 568 CURVE SMOOTH",
"566 137 LINE SMOOTH",
"566 115 OFFCURVE",
"557 57 OFFCURVE",
"551 28 CURVE",
"593 68 LINE",
"478 45 LINE",
"483 -5 LINE"
);
},
{
closed = 1;
nodes = (
"116 -2 OFFCURVE",
"161 0 OFFCURVE",
"196 0 CURVE SMOOTH",
"325 0 LINE",
"332 54 LINE",
"206 64 LINE",
"247 28 LINE",
"242 54 OFFCURVE",
"235 115 OFFCURVE",
"235 167 CURVE SMOOTH",
"235 538 LINE SMOOTH",
"235 590 OFFCURVE",
"243 658 OFFCURVE",
"246 677 CURVE",
"206 641 LINE",
"320 651 LINE",
"316 710 LINE",
"260 707 OFFCURVE",
"214 705 OFFCURVE",
"178 705 CURVE SMOOTH",
"158 705 OFFCURVE",
"100 708 OFFCURVE",
"63 710 CURVE",
"58 656 LINE",
"171 638 LINE",
"130 677 LINE",
"134 656 OFFCURVE",
"144 590 OFFCURVE",
"144 568 CURVE SMOOTH",
"144 137 LINE SMOOTH",
"144 115 OFFCURVE",
"133 46 OFFCURVE",
"130 28 CURVE",
"171 68 LINE",
"56 45 LINE",
"61 -5 LINE"
);
},
{
closed = 1;
nodes = (
"621 327 LINE",
"621 383 LINE",
"180 378 LINE",
"180 327 LINE"
);
}
);
width = 809;
},
{
anchors = (
{
name = bottom;
position = "{417, 0}";
},
{
name = center;
position = "{418, 520}";
},
{
name = top;
position = "{417, 720}";
}
);
background = {
paths = (
{
closed = 1;
nodes = (
"548 -2 OFFCURVE",
"596 0 OFFCURVE",
"635 0 CURVE SMOOTH",
"775 0 LINE",
"781 67 LINE",
"653 78 LINE",
"716 25 LINE",
"710 54 OFFCURVE",
"701 134 OFFCURVE",
"701 187 CURVE SMOOTH",
"701 519 LINE SMOOTH",
"701 572 OFFCURVE",
"707 618 OFFCURVE",
"714 663 CURVE",
"653 623 LINE",
"778 635 LINE",
"774 710 LINE",
"709 707 OFFCURVE",
"654 705 OFFCURVE",
"609 705 CURVE SMOOTH",
"579 705 OFFCURVE",
"540 707 OFFCURVE",
"490 710 CURVE",
"485 640 LINE",
"608 619 LINE",
"548 663 LINE",
"552 639 OFFCURVE",
"562 574 OFFCURVE",
"562 549 CURVE SMOOTH",
"562 157 LINE SMOOTH",
"562 128 OFFCURVE",
"550 55 OFFCURVE",
"545 25 CURVE",
"608 83 LINE",
"484 60 LINE",
"489 -5 LINE"
);
},
{
closed = 1;
nodes = (
"118 -2 OFFCURVE",
"166 0 OFFCURVE",
"205 0 CURVE SMOOTH",
"346 0 LINE",
"351 67 LINE",
"224 78 LINE",
"286 25 LINE",
"281 52 OFFCURVE",
"271 131 OFFCURVE",
"271 187 CURVE SMOOTH",
"271 519 LINE SMOOTH",
"271 569 OFFCURVE",
"279 629 OFFCURVE",
"286 669 CURVE",
"224 623 LINE",
"349 635 LINE",
"344 710 LINE",
"279 707 OFFCURVE",
"224 705 OFFCURVE",
"179 705 CURVE SMOOTH",
"149 705 OFFCURVE",
"110 707 OFFCURVE",
"60 710 CURVE",
"55 640 LINE",
"179 619 LINE",
"116 667 LINE",
"124 632 OFFCURVE",
"132 576 OFFCURVE",
"132 549 CURVE SMOOTH",
"132 157 LINE SMOOTH",
"132 127 OFFCURVE",
"121 56 OFFCURVE",
"116 25 CURVE",
"179 83 LINE",
"54 60 LINE",
"59 -5 LINE"
);
},
{
closed = 1;
nodes = (
"617 308 LINE",
"617 391 LINE",
"216 386 LINE",
"216 308 LINE"
);
}
);
};
layerId = "16643525-C5DD-48EC-8E99-463BF28F5E85";
paths = (
{
closed = 1;
nodes = (
"548 -2 OFFCURVE",
"596 0 OFFCURVE",
"635 0 CURVE SMOOTH",
"775 0 LINE",
"781 67 LINE",
"653 78 LINE",
"716 25 LINE",
"710 54 OFFCURVE",
"701 134 OFFCURVE",
"701 187 CURVE SMOOTH",
"701 519 LINE SMOOTH",
"701 572 OFFCURVE",
"707 618 OFFCURVE",
"714 663 CURVE",
"653 623 LINE",
"778 635 LINE",
"774 710 LINE",
"709 707 OFFCURVE",
"654 705 OFFCURVE",
"609 705 CURVE SMOOTH",
"582 705 OFFCURVE",
"526 708 OFFCURVE",
"490 710 CURVE",
"485 640 LINE",
"608 619 LINE",
"548 663 LINE",
"552 639 OFFCURVE",
"562 574 OFFCURVE",
"562 549 CURVE SMOOTH",
"562 157 LINE SMOOTH",
"562 128 OFFCURVE",
"550 55 OFFCURVE",
"545 25 CURVE",
"608 83 LINE",
"484 60 LINE",
"489 -5 LINE"
);
},
{
closed = 1;
nodes = (
"118 -2 OFFCURVE",
"166 0 OFFCURVE",
"205 0 CURVE SMOOTH",
"346 0 LINE",
"351 67 LINE",
"224 78 LINE",
"286 25 LINE",
"281 52 OFFCURVE",
"271 131 OFFCURVE",
"271 187 CURVE SMOOTH",
"271 519 LINE SMOOTH",
"271 569 OFFCURVE",
"279 629 OFFCURVE",
"286 669 CURVE",
"224 623 LINE",
"349 635 LINE",
"344 710 LINE",
"279 707 OFFCURVE",
"224 705 OFFCURVE",
"179 705 CURVE SMOOTH",
"152 705 OFFCURVE",
"96 708 OFFCURVE",
"60 710 CURVE",
"55 640 LINE",
"179 619 LINE",
"116 667 LINE",
"124 632 OFFCURVE",
"132 576 OFFCURVE",
"132 549 CURVE SMOOTH",
"132 157 LINE SMOOTH",
"132 127 OFFCURVE",
"121 56 OFFCURVE",
"116 25 CURVE",
"179 83 LINE",
"54 60 LINE",
"59 -5 LINE"
);
},
{
closed = 1;
nodes = (
"617 308 LINE",
"617 391 LINE",
"216 386 LINE",
"216 308 LINE"
);
}
);
width = 835;
}
);
leftKerningGroup = UC_Stem;
rightKerningGroup = UC_Stem;
unicode = 0048;
},
{
color = 0;
glyphname = Hbar;
layers = (
{
background = {
paths = (
{
closed = 1;
nodes = (
"60 542 LINE",
"60 498 LINE",
"719 498 LINE",
"724 542 LINE"
);
}
);
};
components = (
{
name = H;
},
{
name = barcomp.long;
transform = "{1, 0, 0, 1, -17, -85}";
}
);
layerId = UUID0;
width = 809;
},
{
components = (
{
name = H;
},
{
name = barcomp.long;
transform = "{1, 0, 0, 1, -9, -72}";
}
);
layerId = "16643525-C5DD-48EC-8E99-463BF28F5E85";
width = 835;
}
);
leftKerningGroup = UC_Stem;
rightKerningGroup = UC_Stem;
unicode = 0126;
},
{
color = 0;
glyphname = I;
layers = (
{
anchors = (
{
name = bottom;
position = "{198, 0}";
},
{
name = ogonek;
position = "{326, 0}";
},
{
name = top;
position = "{190, 720}";
}
);
background = {
paths = (
{
closed = 1;
nodes = (
"61 -5 OFFCURVE",
"171 0 OFFCURVE",
"196 0 CURVE",
"325 0 LINE",
"332 54 LINE",
"206 64 LINE",
"247 28 LINE",
"242 54 OFFCURVE",
"235 115 OFFCURVE",
"235 167 CURVE SMOOTH",
"235 538 LINE SMOOTH",
"235 590 OFFCURVE",
"243 658 OFFCURVE",
"246 677 CURVE",
"206 641 LINE",
"320 651 LINE",
"316 710 LINE",
"316 710 OFFCURVE",
"238 705 OFFCURVE",
"178 705 CURVE SMOOTH",
"158 705 OFFCURVE",
"63 710 OFFCURVE",
"63 710 CURVE",
"58 656 LINE",
"171 638 LINE",
"130 677 LINE",
"134 656 OFFCURVE",
"144 590 OFFCURVE",
"144 568 CURVE SMOOTH",
"144 137 LINE SMOOTH",
"144 115 OFFCURVE",
"133 46 OFFCURVE",
"130 28 CURVE",
"171 68 LINE",
"56 45 LINE",
"61 -5 LINE"
);
}
);
};
layerId = UUID0;
paths = (
{
closed = 1;
nodes = (
"106 -2 OFFCURVE",
"151 0 OFFCURVE",
"196 0 CURVE SMOOTH",
"325 0 LINE",
"332 54 LINE",
"206 64 LINE",
"247 28 LINE",
"242 54 OFFCURVE",
"235 115 OFFCURVE",
"235 167 CURVE SMOOTH",
"235 538 LINE SMOOTH",
"235 590 OFFCURVE",
"243 658 OFFCURVE",
"246 677 CURVE",
"206 641 LINE",
"320 651 LINE",
"316 710 LINE",
"270 707 OFFCURVE",
"224 705 OFFCURVE",
"178 705 CURVE SMOOTH",
"158 705 OFFCURVE",
"100 708 OFFCURVE",
"63 710 CURVE",
"58 656 LINE",
"171 638 LINE",
"130 677 LINE",
"134 656 OFFCURVE",
"144 590 OFFCURVE",
"144 568 CURVE SMOOTH",
"144 137 LINE SMOOTH",
"144 115 OFFCURVE",
"133 46 OFFCURVE",
"130 28 CURVE",
"171 68 LINE",
"56 45 LINE",
"61 -5 LINE"
);
}
);
width = 387;
},
{
anchors = (
{
name = bottom;
position = "{201, 0}";
},
{
name = ogonek;
position = "{342, 0}";
},
{
name = top;
position = "{199, 720}";
}
);
background = {
paths = (
{
closed = 1;
nodes = (
"59 -5 OFFCURVE",
"177 0 OFFCURVE",
"205 0 CURVE",
"346 0 LINE",
"351 67 LINE",
"224 78 LINE",
"286 25 LINE",
"281 52 OFFCURVE",
"271 131 OFFCURVE",
"271 187 CURVE SMOOTH",
"271 519 LINE SMOOTH",
"271 569 OFFCURVE",
"279 629 OFFCURVE",
"286 669 CURVE",
"224 623 LINE",
"349 635 LINE",
"344 710 LINE",
"344 710 OFFCURVE",
"254 705 OFFCURVE",
"179 705 CURVE SMOOTH",
"152 705 OFFCURVE",
"60 710 OFFCURVE",
"60 710 CURVE",
"55 640 LINE",
"179 619 LINE",
"116 667 LINE",
"124 632 OFFCURVE",
"132 576 OFFCURVE",
"132 549 CURVE SMOOTH",
"132 157 LINE SMOOTH",
"132 127 OFFCURVE",
"121 56 OFFCURVE",
"116 25 CURVE",
"179 83 LINE",
"54 60 LINE",
"59 -5 LINE"
);
}
);
};
layerId = "16643525-C5DD-48EC-8E99-463BF28F5E85";
paths = (
{
closed = 1;
nodes = (
"108 -2 OFFCURVE",
"156 0 OFFCURVE",
"205 0 CURVE SMOOTH",
"346 0 LINE",
"351 67 LINE",
"224 78 LINE",
"286 25 LINE",
"281 52 OFFCURVE",
"271 131 OFFCURVE",
"271 187 CURVE SMOOTH",
"271 519 LINE SMOOTH",
"271 569 OFFCURVE",
"279 629 OFFCURVE",
"286 669 CURVE",
"224 623 LINE",
"349 635 LINE",
"344 710 LINE",
"289 707 OFFCURVE",
"234 705 OFFCURVE",
"179 705 CURVE SMOOTH",
"152 705 OFFCURVE",
"96 708 OFFCURVE",
"60 710 CURVE",
"55 640 LINE",
"179 619 LINE",
"116 667 LINE",
"124 632 OFFCURVE",
"132 576 OFFCURVE",
"132 549 CURVE SMOOTH",
"132 157 LINE SMOOTH",
"132 127 OFFCURVE",
"121 56 OFFCURVE",
"116 25 CURVE",
"179 83 LINE",
"54 60 LINE",
"59 -5 LINE"
);
}
);
width = 405;
}
);
leftKerningGroup = UC_Stem;
rightKerningGroup = UC_Stem;
unicode = 0049;
},
{
color = 0;
glyphname = IJ;
layers = (
{
background = {
paths = (
{
closed = 1;
nodes = (
"326 656 LINE",
"223 644 LINE",
"221 630 OFFCURVE",
"216 580 OFFCURVE",
"216 538 CURVE SMOOTH",
"216 167 LINE SMOOTH",
"216 125 OFFCURVE",
"221 75 OFFCURVE",
"223 61 CURVE",
"313 54 LINE",
"307 0 LINE",
"160 0 LINE",
"140 0 OFFCURVE",
"42 -5 OFFCURVE",
"42 -5 CURVE",
"37 45 LINE",
"116 61 LINE",
"118 74 OFFCURVE",
"125 120 OFFCURVE",
"125 137 CURVE SMOOTH",
"125 568 LINE SMOOTH",
"125 585 OFFCURVE",
"118 631 OFFCURVE",
"116 644 CURVE",
"39 656 LINE",
"44 710 LINE",
"44 710 OFFCURVE",
"140 705 OFFCURVE",
"160 705 CURVE SMOOTH",
"326 705 LINE"
);
},
{
closed = 1;
nodes = (
"326 705 LINE",
"326 656 LINE",
"429 644 LINE",
"431 631 OFFCURVE",
"438 585 OFFCURVE",
"438 568 CURVE SMOOTH",
"438 11 LINE SMOOTH",
"438 -9 OFFCURVE",
"358 -178 OFFCURVE",
"358 -178 CURVE",
"392 -200 LINE",
"439 -144 OFFCURVE",
"529 -37 OFFCURVE",
"529 -10 CURVE SMOOTH",
"529 538 LINE SMOOTH",
"529 580 OFFCURVE",
"534 630 OFFCURVE",
"536 644 CURVE",
"614 651 LINE",
"610 710 LINE",
"610 710 OFFCURVE",
"532 705 OFFCURVE",
"472 705 CURVE"
);
}
);
};
components = (
{
name = I;
},
{
name = J;
transform = "{1, 0, 0, 1, 387, 0}";
}
);
layerId = UUID0;
width = 742;
},
{
background = {
paths = (
{
closed = 1;
nodes = (
"345 632 LINE",
"262 623 LINE",
"259 609 OFFCURVE",
"253 562 OFFCURVE",
"253 542 CURVE SMOOTH",
"253 193 LINE SMOOTH",
"253 143 OFFCURVE",
"261 86 OFFCURVE",
"262 77 CURVE",
"327 71 LINE",
"322 0 LINE",
"178 0 LINE",
"148 0 OFFCURVE",
"28 -5 OFFCURVE",
"28 -5 CURVE",
"23 65 LINE",
"89 77 LINE",
"91 91 OFFCURVE",
"98 143 OFFCURVE",
"98 163 CURVE SMOOTH",
"98 512 LINE SMOOTH",
"98 562 OFFCURVE",
"92 604 OFFCURVE",
"89 623 CURVE",
"24 635 LINE",
"29 710 LINE",
"29 710 OFFCURVE",
"100 705 OFFCURVE",
"147 705 CURVE SMOOTH",
"345 705 LINE"
);
},
{
closed = 1;
nodes = (
"457 705 OFFCURVE",
"345 705 OFFCURVE",
"345 705 CURVE",
"345 632 LINE",
"427 623 LINE",
"430 608 OFFCURVE",
"436 562 OFFCURVE",
"436 512 CURVE SMOOTH",
"436 11 LINE SMOOTH",
"436 -9 OFFCURVE",
"360 -169 OFFCURVE",
"360 -169 CURVE",
"414 -200 LINE",
"510 -111 OFFCURVE",
"591 -23 OFFCURVE",
"591 10 CURVE SMOOTH",
"591 542 LINE SMOOTH",
"591 562 OFFCURVE",
"598 614 OFFCURVE",
"600 623 CURVE",
"666 629 LINE",
"661 710 LINE",
"661 710 OFFCURVE",
"567 705 OFFCURVE",
"487 705 CURVE SMOOTH"
);
}
);
};
components = (
{
name = I;
},
{
name = J;
transform = "{1, 0, 0, 1, 405, 0}";
}
);
layerId = "16643525-C5DD-48EC-8E99-463BF28F5E85";
width = 785;
}
);
leftKerningGroup = UC_Stem;
rightKerningGroup = UC_N;
unicode = 0132;
},
{
color = 0;
glyphname = Iogonek;
layers = (
{
background = {
anchors = (
{
name = bottom;
position = "{187, 0}";
},
{
name = ogonek;
position = "{315, 0}";
},
{
name = top;
position = "{179, 705}";
}
);
components = (
{
name = ogonekcomb;
transform = "{1, 0, 0, 1, 108, 0}";
}
);
paths = (
{
closed = 1;
nodes = (
"305 710 LINE",
"305 710 OFFCURVE",
"227 705 OFFCURVE",
"167 705 CURVE SMOOTH",
"147 705 OFFCURVE",
"52 710 OFFCURVE",
"52 710 CURVE",
"47 656 LINE",
"124 644 LINE",
"126 631 OFFCURVE",
"133 585 OFFCURVE",
"133 568 CURVE SMOOTH",
"133 137 LINE SMOOTH",
"133 120 OFFCURVE",
"126 74 OFFCURVE",
"124 61 CURVE",
"45 45 LINE",
"50 -5 LINE",
"50 -5 OFFCURVE",
"160 0 OFFCURVE",
"185 0 CURVE",
"315 0 LINE",
"321 54 LINE",
"231 61 LINE",
"229 75 OFFCURVE",
"224 125 OFFCURVE",
"224 167 CURVE SMOOTH",
"224 538 LINE SMOOTH",
"224 580 OFFCURVE",
"229 630 OFFCURVE",
"231 644 CURVE",
"309 651 LINE"
);
}
);
};
components = (
{
name = ogonekcomb;
transform = "{1, 0, 0, 1, 11, 0}";
}
);
layerId = UUID0;
paths = (
{
closed = 1;
nodes = (
"147 -24 LINE",
"147 -24 OFFCURVE",
"160 0 OFFCURVE",
"185 0 CURVE",
"315 0 LINE",
"321 54 LINE",
"231 61 LINE",
"229 75 OFFCURVE",
"224 125 OFFCURVE",
"224 167 CURVE SMOOTH",
"224 538 LINE SMOOTH",
"224 580 OFFCURVE",
"229 630 OFFCURVE",
"231 644 CURVE",
"309 651 LINE",
"305 710 LINE",
"305 710 OFFCURVE",
"227 705 OFFCURVE",
"167 705 CURVE SMOOTH",
"147 705 OFFCURVE",
"52 710 OFFCURVE",
"52 710 CURVE",
"47 656 LINE",
"124 644 LINE",
"126 631 OFFCURVE",
"133 585 OFFCURVE",
"133 568 CURVE SMOOTH",
"133 137 LINE SMOOTH",
"133 93 OFFCURVE",
"122 46 OFFCURVE",
"98 -47 CURVE"
);
}
);
width = 376;
},
{
background = {
anchors = (
{
name = bottom;
position = "{198, 0}";
},
{
name = ogonek;
position = "{344, 0}";
},
{
name = top;
position = "{198, 705}";
}
);
components = (
{
name = ogonekcomb;
transform = "{1, 0, 0, 1, 73, 0}";
}
);
paths = (
{
closed = 1;
nodes = (
"345 710 LINE",
"345 710 OFFCURVE",
"251 705 OFFCURVE",
"171 705 CURVE SMOOTH",
"141 705 OFFCURVE",
"51 710 OFFCURVE",
"51 710 CURVE",
"46 635 LINE",
"111 623 LINE",
"113 607 OFFCURVE",
"120 562 OFFCURVE",
"120 542 CURVE SMOOTH",
"120 163 LINE SMOOTH",
"120 143 OFFCURVE",
"112 87 OFFCURVE",
"111 77 CURVE",
"45 65 LINE",
"50 -5 LINE",
"50 -5 OFFCURVE",
"170 0 OFFCURVE",
"200 0 CURVE",
"344 0 LINE",
"349 71 LINE",
"284 77 LINE",
"282 91 OFFCURVE",
"275 153 OFFCURVE",
"275 193 CURVE SMOOTH",
"275 512 LINE SMOOTH",
"275 552 OFFCURVE",
"281 608 OFFCURVE",
"284 623 CURVE",
"350 629 LINE"
);
}
);
};
components = (
{
name = ogonekcomb;
transform = "{1, 0, 0, 1, -29, 0}";
}
);
layerId = "16643525-C5DD-48EC-8E99-463BF28F5E85";
paths = (
{
closed = 1;
nodes = (
"156 -15 LINE",
"156 -15 OFFCURVE",
"170 0 OFFCURVE",
"200 0 CURVE",
"344 0 LINE",
"349 71 LINE",
"284 77 LINE",
"282 91 OFFCURVE",
"275 153 OFFCURVE",
"275 193 CURVE SMOOTH",
"275 512 LINE SMOOTH",
"275 552 OFFCURVE",
"281 608 OFFCURVE",
"284 623 CURVE",
"350 629 LINE",
"345 710 LINE",
"345 710 OFFCURVE",
"251 705 OFFCURVE",
"171 705 CURVE SMOOTH",
"141 705 OFFCURVE",
"51 710 OFFCURVE",
"51 710 CURVE",
"46 635 LINE",
"111 623 LINE",
"113 607 OFFCURVE",
"120 562 OFFCURVE",
"120 542 CURVE SMOOTH",
"120 163 LINE SMOOTH",
"120 111 OFFCURVE",
"109 62 OFFCURVE",
"85 -39 CURVE"
);
}
);
width = 405;
}
);
leftKerningGroup = UC_Stem;
rightKerningGroup = UC_Stem;
unicode = 012E;
},
{
color = 0;
glyphname = J;
layers = (
{
anchors = (
{
name = bottom;
position = "{178, 0}";
},
{
name = top;
position = "{178, 705}";
}
);
background = {
anchors = (
{
name = top;
position = "{172, 705}";
}
);
paths = (
{
closed = 1;
nodes = (
"133 -144 OFFCURVE",
"223 -37 OFFCURVE",
"223 -10 CURVE SMOOTH",
"223 538 LINE SMOOTH",
"223 590 OFFCURVE",
"230 648 OFFCURVE",
"233 674 CURVE",
"194 641 LINE",
"308 651 LINE",
"304 710 LINE",
"304 710 OFFCURVE",
"226 705 OFFCURVE",
"166 705 CURVE",
"128 705 OFFCURVE",
"89 708 OFFCURVE",
"51 710 CURVE",
"46 656 LINE",
"159 638 LINE",
"118 674 LINE",
"121 658 OFFCURVE",
"132 590 OFFCURVE",
"132 568 CURVE SMOOTH",
"132 11 LINE SMOOTH",
"132 -9 OFFCURVE",
"52 -178 OFFCURVE",
"52 -178 CURVE",
"86 -200 LINE"
);
}
);
};
layerId = UUID0;
paths = (
{
closed = 1;
nodes = (
"133 -144 OFFCURVE",
"223 -37 OFFCURVE",
"223 -10 CURVE SMOOTH",
"223 538 LINE SMOOTH",
"223 590 OFFCURVE",
"230 648 OFFCURVE",
"233 674 CURVE",
"194 641 LINE",
"308 651 LINE",
"304 710 LINE",
"304 710 OFFCURVE",
"226 705 OFFCURVE",
"166 705 CURVE SMOOTH",
"146 705 OFFCURVE",
"88 708 OFFCURVE",
"51 710 CURVE",
"46 656 LINE",
"159 638 LINE",
"118 674 LINE",
"121 658 OFFCURVE",
"132 590 OFFCURVE",
"132 568 CURVE SMOOTH",
"132 11 LINE SMOOTH",
"132 -9 OFFCURVE",
"52 -178 OFFCURVE",
"52 -178 CURVE",
"86 -200 LINE"
);
}
);
width = 355;
},
{
anchors = (
{
name = bottom;
position = "{190, 0}";
},
{
name = top;
position = "{190, 705}";
}
);
background = {
paths = (
{
closed = 1;
nodes = (
"176 -119 OFFCURVE",
"259 -26 OFFCURVE",
"259 5 CURVE SMOOTH",
"259 519 LINE SMOOTH",
"259 571 OFFCURVE",
"268 645 OFFCURVE",
"272 674 CURVE",
"211 623 LINE",
"337 635 LINE",
"332 710 LINE",
"332 710 OFFCURVE",
"242 705 OFFCURVE",
"167 705 CURVE",
"128 705 OFFCURVE",
"87 708 OFFCURVE",
"48 710 CURVE",
"43 640 LINE",
"167 619 LINE",
"105 674 LINE",
"110 644 OFFCURVE",
"120 577 OFFCURVE",
"120 549 CURVE SMOOTH",
"120 11 LINE SMOOTH",
"120 -9 OFFCURVE",
"43 -171 OFFCURVE",
"43 -171 CURVE",
"92 -200 LINE"
);
}
);
};
layerId = "16643525-C5DD-48EC-8E99-463BF28F5E85";
paths = (
{
closed = 1;
nodes = (
"176 -119 OFFCURVE",
"259 -26 OFFCURVE",
"259 5 CURVE SMOOTH",
"259 519 LINE SMOOTH",
"259 571 OFFCURVE",
"268 645 OFFCURVE",
"272 674 CURVE",
"211 623 LINE",
"337 635 LINE",
"332 710 LINE",
"294 708 OFFCURVE",
"232 705 OFFCURVE",
"167 705 CURVE SMOOTH",
"140 705 OFFCURVE",
"84 708 OFFCURVE",
"48 710 CURVE",
"43 640 LINE",
"167 619 LINE",
"105 674 LINE",
"110 644 OFFCURVE",
"120 577 OFFCURVE",
"120 549 CURVE SMOOTH",
"120 11 LINE SMOOTH",
"120 -9 OFFCURVE",
"43 -171 OFFCURVE",
"43 -171 CURVE",
"92 -200 LINE"
);
}
);
width = 380;
}
);
leftKerningGroup = UC_J;
rightKerningGroup = UC_N;
unicode = 004A;
},
{
color = 0;
glyphname = K;
layers = (
{
anchors = (
{
name = bottom;
position = "{363, 0}";
},
{
name = top;
position = "{363, 720}";
}
);
background = {
paths = (
{
closed = 1;
nodes = (
"426 -5 OFFCURVE",
"539 0 OFFCURVE",
"564 0 CURVE",
"695 0 LINE",
"702 54 LINE",
"596 65 LINE",
"670 28 LINE",
"651 44 OFFCURVE",
"574 109 OFFCURVE",
"555 129 CURVE",
"320 397 LINE",
"322 341 LINE",
"476 546 LINE",
"511 581 OFFCURVE",
"568 636 OFFCURVE",
"589 654 CURVE",
"542 641 LINE",
"654 651 LINE",
"650 710 LINE",
"650 710 OFFCURVE",
"572 705 OFFCURVE",
"512 705 CURVE SMOOTH",
"492 705 OFFCURVE",
"417 710 OFFCURVE",
"417 710 CURVE",
"412 656 LINE",
"502 638 LINE",
"484 677 LINE",
"427 577 LINE",
"245 353 LINE",
"410 164 LINE",
"430 138 OFFCURVE",
"486 50 OFFCURVE",
"498 30 CURVE",
"515 67 LINE",
"421 45 LINE",
"426 -5 LINE"
);
},
{
closed = 1;
nodes = (
"116 -2 OFFCURVE",
"161 0 OFFCURVE",
"196 0 CURVE SMOOTH",
"325 0 LINE",
"332 54 LINE",
"206 64 LINE",
"247 28 LINE",
"242 54 OFFCURVE",
"235 115 OFFCURVE",
"235 167 CURVE SMOOTH",
"235 538 LINE SMOOTH",
"235 590 OFFCURVE",
"243 658 OFFCURVE",
"246 677 CURVE",
"206 641 LINE",
"320 651 LINE",
"316 710 LINE",
"260 707 OFFCURVE",
"214 705 OFFCURVE",
"178 705 CURVE SMOOTH",
"150 705 OFFCURVE",
"111 707 OFFCURVE",
"63 710 CURVE",
"58 656 LINE",
"171 638 LINE",
"130 677 LINE",
"134 656 OFFCURVE",
"144 590 OFFCURVE",
"144 568 CURVE SMOOTH",
"144 137 LINE SMOOTH",
"144 115 OFFCURVE",
"133 46 OFFCURVE",
"130 28 CURVE",
"171 68 LINE",
"56 45 LINE",
"61 -5 LINE"
);
}
);
};
layerId = UUID0;
paths = (
{
closed = 1;
nodes = (
"472 -3 OFFCURVE",
"538 0 OFFCURVE",
"564 0 CURVE SMOOTH",
"695 0 LINE",
"702 54 LINE",
"596 65 LINE",
"670 28 LINE",
"651 44 OFFCURVE",
"569 113 OFFCURVE",
"555 129 CURVE SMOOTH",
"320 397 LINE",
"322 341 LINE",
"476 546 LINE SMOOTH",
"486 560 OFFCURVE",
"568 636 OFFCURVE",
"589 654 CURVE",
"542 641 LINE",
"654 651 LINE",
"650 710 LINE",
"597 707 OFFCURVE",
"553 705 OFFCURVE",
"519 705 CURVE SMOOTH",
"499 705 OFFCURVE",
"448 708 OFFCURVE",
"417 710 CURVE",
"412 656 LINE",
"502 638 LINE",
"484 677 LINE",
"427 577 LINE",
"245 353 LINE",
"410 164 LINE SMOOTH",
"426 146 OFFCURVE",
"486 50 OFFCURVE",
"498 30 CURVE",
"515 67 LINE",
"421 45 LINE",
"426 -5 LINE"
);
},
{
closed = 1;
nodes = (
"116 -2 OFFCURVE",
"161 0 OFFCURVE",
"196 0 CURVE SMOOTH",
"325 0 LINE",
"332 54 LINE",
"206 64 LINE",
"247 28 LINE",
"242 54 OFFCURVE",
"235 115 OFFCURVE",
"235 167 CURVE SMOOTH",
"235 538 LINE SMOOTH",
"235 590 OFFCURVE",
"243 658 OFFCURVE",
"246 677 CURVE",
"206 641 LINE",
"320 651 LINE",
"316 710 LINE",
"260 707 OFFCURVE",
"214 705 OFFCURVE",
"178 705 CURVE SMOOTH",
"158 705 OFFCURVE",
"100 708 OFFCURVE",
"63 710 CURVE",
"58 656 LINE",
"171 638 LINE",
"130 677 LINE",
"134 656 OFFCURVE",
"144 590 OFFCURVE",
"144 568 CURVE SMOOTH",
"144 137 LINE SMOOTH",
"144 115 OFFCURVE",
"133 46 OFFCURVE",
"130 28 CURVE",
"171 68 LINE",
"56 45 LINE",
"61 -5 LINE"
);
}
);
width = 741;
},
{
anchors = (
{
name = bottom;
position = "{379, 0}";
},
{
name = top;
position = "{379, 720}";
}
);
background = {
paths = (
{
closed = 1;
nodes = (
"453 -5 OFFCURVE",
"564 0 OFFCURVE",
"608 0 CURVE",
"743 0 LINE",
"749 67 LINE",
"639 80 LINE",
"724 47 LINE",
"706 62 OFFCURVE",
"652 110 OFFCURVE",
"635 129 CURVE",
"402 401 LINE",
"395 325 LINE",
"558 546 LINE",
"601 592 OFFCURVE",
"635 623 OFFCURVE",
"663 649 CURVE",
"584 623 LINE",
"703 635 LINE",
"698 710 LINE",
"698 710 OFFCURVE",
"614 705 OFFCURVE",
"539 705 CURVE SMOOTH",
"512 705 OFFCURVE",
"443 710 OFFCURVE",
"443 710 CURVE",
"438 640 LINE",
"530 622 LINE",
"509 681 LINE",
"439 578 LINE SMOOTH",
"281 347 LINE",
"431 164 LINE",
"450 138 OFFCURVE",
"498 61 OFFCURVE",
"509 44 CURVE",
"548 81 LINE",
"448 60 LINE",
"453 -5 LINE"
);
},
{
closed = 1;
nodes = (
"118 -2 OFFCURVE",
"166 0 OFFCURVE",
"205 0 CURVE SMOOTH",
"346 0 LINE",
"351 67 LINE",
"224 78 LINE",
"286 25 LINE",
"281 52 OFFCURVE",
"271 131 OFFCURVE",
"271 187 CURVE SMOOTH",
"271 519 LINE SMOOTH",
"271 569 OFFCURVE",
"279 629 OFFCURVE",
"286 669 CURVE",
"224 623 LINE",
"349 635 LINE",
"344 710 LINE",
"279 707 OFFCURVE",
"224 705 OFFCURVE",
"179 705 CURVE SMOOTH",
"149 705 OFFCURVE",
"110 707 OFFCURVE",
"60 710 CURVE",
"55 640 LINE",
"179 619 LINE",
"116 667 LINE",
"124 632 OFFCURVE",
"132 576 OFFCURVE",
"132 549 CURVE SMOOTH",
"132 157 LINE SMOOTH",
"132 127 OFFCURVE",
"121 56 OFFCURVE",
"116 25 CURVE",
"179 83 LINE",
"54 60 LINE",
"59 -5 LINE"
);
}
);
};
layerId = "16643525-C5DD-48EC-8E99-463BF28F5E85";
paths = (
{
closed = 1;
nodes = (
"505 -3 OFFCURVE",
"586 0 OFFCURVE",
"608 0 CURVE SMOOTH",
"743 0 LINE",
"749 67 LINE",
"639 80 LINE",
"724 47 LINE",
"706 62 OFFCURVE",
"647 115 OFFCURVE",
"635 129 CURVE SMOOTH",
"402 401 LINE",
"395 325 LINE",
"558 546 LINE SMOOTH",
"568 559 OFFCURVE",
"634 623 OFFCURVE",
"663 649 CURVE",
"584 623 LINE",
"703 635 LINE",
"698 710 LINE",
"639 707 OFFCURVE",
"590 705 OFFCURVE",
"549 705 CURVE SMOOTH",
"525 705 OFFCURVE",
"481 707 OFFCURVE",
"443 710 CURVE",
"438 640 LINE",
"530 622 LINE",
"509 681 LINE",
"439 578 LINE",
"281 347 LINE",
"431 164 LINE SMOOTH",
"445 146 OFFCURVE",
"498 61 OFFCURVE",
"509 44 CURVE",
"548 81 LINE",
"448 60 LINE",
"453 -5 LINE"
);
},
{
closed = 1;
nodes = (
"118 -2 OFFCURVE",
"166 0 OFFCURVE",
"205 0 CURVE SMOOTH",
"346 0 LINE",
"351 67 LINE",
"224 78 LINE",
"286 25 LINE",
"281 52 OFFCURVE",
"271 131 OFFCURVE",
"271 187 CURVE SMOOTH",
"271 519 LINE SMOOTH",
"271 569 OFFCURVE",
"279 629 OFFCURVE",
"286 669 CURVE",
"224 623 LINE",
"349 635 LINE",
"344 710 LINE",
"279 707 OFFCURVE",
"224 705 OFFCURVE",
"179 705 CURVE SMOOTH",
"152 705 OFFCURVE",
"96 708 OFFCURVE",
"60 710 CURVE",
"55 640 LINE",
"179 619 LINE",
"116 667 LINE",
"124 632 OFFCURVE",
"132 576 OFFCURVE",
"132 549 CURVE SMOOTH",
"132 157 LINE SMOOTH",
"132 127 OFFCURVE",
"121 56 OFFCURVE",
"116 25 CURVE",
"179 83 LINE",
"54 60 LINE",
"59 -5 LINE"
);
}
);
width = 785;
}
);
leftKerningGroup = UC_Stem;
rightKerningGroup = UC_K;
unicode = 004B;
},
{
color = 0;
glyphname = L;
layers = (
{
anchors = (
{
name = bottom;
position = "{295, 0}";
},
{
name = center;
position = "{196, 355}";
},
{
name = centerright;
position = "{515, 403}";
},
{
name = top;
position = "{235, 720}";
},
{
name = topright;
position = "{474, 494}";
}
);
background = {
anchors = (
{
name = bottom;
position = "{295, 0}";
},
{
name = center;
position = "{196, 355}";
},
{
name = centerright;
position = "{475, 353}";
},
{
name = top;
position = "{295, 705}";
},
{
name = topright;
position = "{474, 494}";
}
);
paths = (
{
closed = 1;
nodes = (
"61 -5 OFFCURVE",
"171 0 OFFCURVE",
"196 0 CURVE SMOOTH",
"390 0 LINE SMOOTH",
"410 0 OFFCURVE",
"504 -4 OFFCURVE",
"504 -4 CURVE",
"523 14 LINE",
"538 165 LINE",
"483 170 LINE",
"481 154 OFFCURVE",
"471 118 OFFCURVE",
"468 103 CURVE SMOOTH",
"465 89 OFFCURVE",
"445 62 OFFCURVE",
"430 43 CURVE",
"462 69 LINE",
"444 65 OFFCURVE",
"400 57 OFFCURVE",
"360 57 CURVE SMOOTH",
"206 57 LINE",
"247 28 LINE",
"242 54 OFFCURVE",
"235 115 OFFCURVE",
"235 167 CURVE SMOOTH",
"235 538 LINE SMOOTH",
"235 590 OFFCURVE",
"243 658 OFFCURVE",
"246 677 CURVE",
"206 641 LINE",
"330 651 LINE",
"326 710 LINE",
"326 710 OFFCURVE",
"238 705 OFFCURVE",
"178 705 CURVE SMOOTH",
"158 705 OFFCURVE",
"63 710 OFFCURVE",
"63 710 CURVE",
"58 656 LINE",
"171 638 LINE",
"130 677 LINE",
"134 656 OFFCURVE",
"144 590 OFFCURVE",
"144 568 CURVE SMOOTH",
"144 137 LINE SMOOTH",
"144 115 OFFCURVE",
"133 46 OFFCURVE",
"130 28 CURVE",
"171 68 LINE",
"56 45 LINE",
"61 -5 LINE"
);
}
);
};
layerId = UUID0;
paths = (
{
closed = 1;
nodes = (
"106 -3 OFFCURVE",
"171 0 OFFCURVE",
"196 0 CURVE SMOOTH",
"390 0 LINE SMOOTH",
"409 0 OFFCURVE",
"460 -2 OFFCURVE",
"504 -4 CURVE",
"523 14 LINE",
"538 165 LINE",
"483 170 LINE",
"468 103 LINE SMOOTH",
"465 90 OFFCURVE",
"445 62 OFFCURVE",
"430 43 CURVE",
"462 69 LINE",
"444 65 OFFCURVE",
"400 57 OFFCURVE",
"360 57 CURVE SMOOTH",
"206 57 LINE",
"247 28 LINE",
"242 54 OFFCURVE",
"235 115 OFFCURVE",
"235 167 CURVE SMOOTH",
"235 538 LINE SMOOTH",
"235 590 OFFCURVE",
"243 658 OFFCURVE",
"246 677 CURVE",
"206 641 LINE",
"330 651 LINE",
"326 710 LINE",
"326 710 OFFCURVE",
"238 705 OFFCURVE",
"178 705 CURVE SMOOTH",
"158 705 OFFCURVE",
"100 708 OFFCURVE",
"63 710 CURVE",
"58 656 LINE",
"171 638 LINE",
"130 677 LINE",
"134 656 OFFCURVE",
"144 590 OFFCURVE",
"144 568 CURVE SMOOTH",
"144 137 LINE SMOOTH",
"144 115 OFFCURVE",
"133 46 OFFCURVE",
"130 28 CURVE",
"171 68 LINE",
"56 45 LINE",
"61 -5 LINE"
);
}
);
width = 593;
},
{
anchors = (
{
name = bottom;
position = "{302, 0}";
},
{
name = center;
position = "{198, 355}";
},
{
name = centerright;
position = "{507, 403}";
},
{
name = top;
position = "{232, 720}";
},
{
name = topright;
position = "{476, 494}";
}
);
background = {
paths = (
{
closed = 1;
nodes = (
"59 -5 OFFCURVE",
"177 0 OFFCURVE",
"205 0 CURVE SMOOTH",
"409 0 LINE SMOOTH",
"429 0 OFFCURVE",
"523 -4 OFFCURVE",
"523 -4 CURVE",
"542 14 LINE",
"557 184 LINE",
"491 189 LINE",
"478 129 LINE SMOOTH",
"475 114 OFFCURVE",
"456 77 OFFCURVE",
"427 42 CURVE",
"480 93 LINE",
"465 89 OFFCURVE",
"423 80 OFFCURVE",
"379 80 CURVE SMOOTH",
"240 80 LINE",
"286 25 LINE",
"281 52 OFFCURVE",
"271 131 OFFCURVE",
"271 187 CURVE SMOOTH",
"271 519 LINE SMOOTH",
"271 569 OFFCURVE",
"279 629 OFFCURVE",
"286 669 CURVE",
"224 623 LINE",
"359 635 LINE",
"354 710 LINE",
"354 710 OFFCURVE",
"254 705 OFFCURVE",
"179 705 CURVE SMOOTH",
"152 705 OFFCURVE",
"60 710 OFFCURVE",
"60 710 CURVE",
"55 640 LINE",
"179 619 LINE",
"116 667 LINE",
"124 632 OFFCURVE",
"132 576 OFFCURVE",
"132 549 CURVE SMOOTH",
"132 157 LINE SMOOTH",
"132 127 OFFCURVE",
"121 56 OFFCURVE",
"116 25 CURVE",
"179 83 LINE",
"54 60 LINE",
"59 -5 LINE"
);
}
);
};
layerId = "16643525-C5DD-48EC-8E99-463BF28F5E85";
paths = (
{
closed = 1;
nodes = (
"59 -5 OFFCURVE",
"177 0 OFFCURVE",
"205 0 CURVE SMOOTH",
"409 0 LINE SMOOTH",
"429 0 OFFCURVE",
"523 -4 OFFCURVE",
"523 -4 CURVE",
"542 14 LINE",
"557 184 LINE",
"491 189 LINE",
"478 129 LINE SMOOTH",
"475 114 OFFCURVE",
"456 77 OFFCURVE",
"427 42 CURVE",
"480 93 LINE",
"465 89 OFFCURVE",
"423 80 OFFCURVE",
"379 80 CURVE SMOOTH",
"240 80 LINE",
"286 25 LINE",
"281 52 OFFCURVE",
"271 131 OFFCURVE",
"271 187 CURVE SMOOTH",
"271 519 LINE SMOOTH",
"271 569 OFFCURVE",
"279 629 OFFCURVE",
"286 669 CURVE",
"224 623 LINE",
"359 635 LINE",
"354 710 LINE",
"311 708 OFFCURVE",
"254 705 OFFCURVE",
"179 705 CURVE SMOOTH",
"152 705 OFFCURVE",
"96 708 OFFCURVE",
"60 710 CURVE",
"55 640 LINE",
"179 619 LINE",
"116 667 LINE",
"124 632 OFFCURVE",
"132 576 OFFCURVE",
"132 549 CURVE SMOOTH",
"132 157 LINE SMOOTH",
"132 127 OFFCURVE",
"121 56 OFFCURVE",
"116 25 CURVE",
"179 83 LINE",
"54 60 LINE",
"59 -5 LINE"
);
}
);
width = 608;
}
);
leftKerningGroup = UC_Stem;
rightKerningGroup = UC_L;
unicode = 004C;
},
{
color = 0;
glyphname = M;
layers = (
{
anchors = (
{
name = bottom;
position = "{490, 0}";
},
{
name = top;
position = "{490, 705}";
}
);
background = {
paths = (
{
closed = 1;
nodes = (
"55 -5 OFFCURVE",
"156 0 OFFCURVE",
"176 0 CURVE SMOOTH",
"291 0 LINE",
"298 54 LINE",
"181 64 LINE",
"221 23 LINE",
"218 39 OFFCURVE",
"210 133 OFFCURVE",
"212 167 CURVE SMOOTH",
"238 620 LINE",
"223 618 LINE",
"455 0 LINE",
"491 0 LINE",
"723 618 LINE",
"708 620 LINE",
"738 137 LINE SMOOTH",
"740 112 OFFCURVE",
"729 40 OFFCURVE",
"726 23 CURVE",
"768 68 LINE",
"655 45 LINE",
"660 -5 LINE",
"660 -5 OFFCURVE",
"770 0 OFFCURVE",
"795 0 CURVE",
"924 0 LINE",
"931 54 LINE",
"813 64 LINE",
"857 23 LINE",
"850 54 OFFCURVE",
"832 146 OFFCURVE",
"830 167 CURVE SMOOTH",
"801 538 LINE SMOOTH",
"799 559 OFFCURVE",
"802 620 OFFCURVE",
"803 672 CURVE",
"766 641 LINE",
"882 651 LINE",
"878 710 LINE",
"878 710 OFFCURVE",
"783 705 OFFCURVE",
"723 705 CURVE SMOOTH",
"697 705 LINE",
"677 685 LINE",
"677 685 OFFCURVE",
"634 559 OFFCURVE",
"624 537 CURVE",
"475 141 LINE",
"501 141 LINE",
"355 529 LINE",
"346 553 OFFCURVE",
"303 684 OFFCURVE",
"303 684 CURVE",
"284 705 LINE",
"205 705 LINE",
"185 705 OFFCURVE",
"90 710 OFFCURVE",
"90 710 CURVE",
"85 656 LINE",
"203 639 LINE",
"163 682 LINE",
"167 657 OFFCURVE",
"172 591 OFFCURVE",
"171 569 CURVE SMOOTH",
"145 137 LINE SMOOTH",
"144 115 OFFCURVE",
"121 37 OFFCURVE",
"117 23 CURVE",
"164 68 LINE",
"50 45 LINE",
"55 -5 LINE"
);
}
);
};
layerId = UUID0;
paths = (
{
closed = 1;
nodes = (
"95 -3 OFFCURVE",
"156 0 OFFCURVE",
"176 0 CURVE SMOOTH",
"291 0 LINE",
"298 54 LINE",
"181 64 LINE",
"221 23 LINE",
"218 39 OFFCURVE",
"210 133 OFFCURVE",
"212 167 CURVE SMOOTH",
"238 620 LINE",
"223 618 LINE",
"455 0 LINE",
"491 0 LINE",
"723 618 LINE",
"708 620 LINE",
"738 137 LINE SMOOTH",
"740 112 OFFCURVE",
"729 40 OFFCURVE",
"726 23 CURVE",
"768 68 LINE",
"655 45 LINE",
"660 -5 LINE",
"705 -3 OFFCURVE",
"770 0 OFFCURVE",
"795 0 CURVE SMOOTH",
"924 0 LINE",
"931 54 LINE",
"813 64 LINE",
"857 23 LINE",
"850 54 OFFCURVE",
"832 146 OFFCURVE",
"830 167 CURVE SMOOTH",
"801 538 LINE SMOOTH",
"799 559 OFFCURVE",
"802 620 OFFCURVE",
"803 672 CURVE",
"766 641 LINE",
"882 651 LINE",
"878 710 LINE",
"833 708 OFFCURVE",
"775 705 OFFCURVE",
"723 705 CURVE SMOOTH",
"697 705 LINE",
"677 685 LINE",
"677 685 OFFCURVE",
"634 559 OFFCURVE",
"624 537 CURVE",
"475 141 LINE",
"501 141 LINE",
"355 529 LINE",
"346 553 OFFCURVE",
"303 684 OFFCURVE",
"303 684 CURVE",
"284 705 LINE",
"205 705 LINE SMOOTH",
"185 705 OFFCURVE",
"127 708 OFFCURVE",
"90 710 CURVE",
"85 656 LINE",
"203 639 LINE",
"163 682 LINE",
"167 657 OFFCURVE",
"172 591 OFFCURVE",
"171 569 CURVE SMOOTH",
"145 137 LINE SMOOTH",
"144 115 OFFCURVE",
"121 37 OFFCURVE",
"117 23 CURVE",
"164 68 LINE",
"50 45 LINE",
"55 -5 LINE"
);
}
);
width = 980;
},
{
anchors = (
{
name = bottom;
position = "{497, 0}";
},
{
name = top;
position = "{497, 705}";
}
);
background = {
paths = (
{
closed = 1;
nodes = (
"92 -3 OFFCURVE",
"153 0 OFFCURVE",
"172 0 CURVE SMOOTH",
"302 0 LINE",
"309 67 LINE",
"181 78 LINE",
"241 31 LINE",
"237 63 OFFCURVE",
"232 143 OFFCURVE",
"234 186 CURVE SMOOTH",
"256 591 LINE",
"234 588 LINE",
"442 0 LINE",
"520 0 LINE",
"732 587 LINE",
"710 591 LINE",
"732 156 LINE SMOOTH",
"733 127 OFFCURVE",
"726 54 OFFCURVE",
"723 31 CURVE",
"783 83 LINE",
"659 60 LINE",
"664 -5 LINE",
"710 -3 OFFCURVE",
"777 0 OFFCURVE",
"803 0 CURVE SMOOTH",
"941 0 LINE",
"947 67 LINE",
"820 78 LINE",
"885 31 LINE",
"879 55 OFFCURVE",
"862 142 OFFCURVE",
"858 186 CURVE SMOOTH",
"833 519 LINE SMOOTH",
"829 569 OFFCURVE",
"833 624 OFFCURVE",
"834 653 CURVE",
"777 623 LINE",
"902 635 LINE",
"897 710 LINE",
"897 710 OFFCURVE",
"815 705 OFFCURVE",
"759 705 CURVE SMOOTH",
"680 705 LINE",
"660 685 LINE",
"660 685 OFFCURVE",
"624 569 OFFCURVE",
"616 546 CURVE SMOOTH",
"480 156 LINE",
"516 156 LINE",
"387 533 LINE SMOOTH",
"376 566 OFFCURVE",
"342 685 OFFCURVE",
"342 685 CURVE",
"322 705 LINE",
"207 705 LINE",
"187 705 OFFCURVE",
"89 710 OFFCURVE",
"89 710 CURVE",
"84 640 LINE",
"210 619 LINE",
"152 656 LINE",
"154 636 OFFCURVE",
"160 579 OFFCURVE",
"158 549 CURVE SMOOTH",
"134 156 LINE SMOOTH",
"132 127 OFFCURVE",
"117 65 OFFCURVE",
"109 31 CURVE",
"174 83 LINE",
"47 60 LINE",
"52 -5 LINE"
);
}
);
};
layerId = "16643525-C5DD-48EC-8E99-463BF28F5E85";
paths = (
{
closed = 1;
nodes = (
"92 -3 OFFCURVE",
"153 0 OFFCURVE",
"172 0 CURVE SMOOTH",
"302 0 LINE",
"309 67 LINE",
"181 78 LINE",
"241 31 LINE",
"237 63 OFFCURVE",
"232 143 OFFCURVE",
"234 186 CURVE SMOOTH",
"256 591 LINE",
"234 588 LINE",
"442 0 LINE",
"520 0 LINE",
"732 587 LINE",
"710 591 LINE",
"732 156 LINE SMOOTH",
"733 127 OFFCURVE",
"726 54 OFFCURVE",
"723 31 CURVE",
"783 83 LINE",
"659 60 LINE",
"664 -5 LINE",
"710 -3 OFFCURVE",
"777 0 OFFCURVE",
"803 0 CURVE SMOOTH",
"941 0 LINE",
"947 67 LINE",
"820 78 LINE",
"885 31 LINE",
"879 55 OFFCURVE",
"862 142 OFFCURVE",
"858 186 CURVE SMOOTH",
"833 519 LINE SMOOTH",
"829 569 OFFCURVE",
"833 624 OFFCURVE",
"834 653 CURVE",
"777 623 LINE",
"902 635 LINE",
"897 710 LINE",
"897 710 OFFCURVE",
"815 705 OFFCURVE",
"759 705 CURVE SMOOTH",
"680 705 LINE",
"660 685 LINE",
"660 685 OFFCURVE",
"624 569 OFFCURVE",
"616 546 CURVE SMOOTH",
"480 156 LINE",
"516 156 LINE",
"387 533 LINE SMOOTH",
"376 566 OFFCURVE",
"342 685 OFFCURVE",
"342 685 CURVE",
"322 705 LINE",
"207 705 LINE SMOOTH",
"180 705 OFFCURVE",
"125 708 OFFCURVE",
"89 710 CURVE",
"84 640 LINE",
"208 619 LINE",
"152 656 LINE",
"154 636 OFFCURVE",
"160 579 OFFCURVE",
"158 549 CURVE SMOOTH",
"134 156 LINE SMOOTH",
"132 127 OFFCURVE",
"117 65 OFFCURVE",
"109 31 CURVE",
"174 83 LINE",
"47 60 LINE",
"52 -5 LINE"
);
}
);
width = 993;
}
);
leftKerningGroup = UC_Stem;
rightKerningGroup = UC_Stem;
unicode = 004D;
},
{
color = 0;
glyphname = N;
layers = (
{
anchors = (
{
name = bottom;
position = "{416, 0}";
},
{
name = top;
position = "{396, 720}";
}
);
background = {
anchors = (
{
name = bottom;
position = "{416, 0}";
},
{
name = top;
position = "{416, 705}";
}
);
paths = (
{
closed = 1;
nodes = (
"760 651 LINE",
"646 641 LINE",
"689 678 LINE",
"685 657 OFFCURVE",
"667 590 OFFCURVE",
"667 538 CURVE SMOOTH",
"666 0 LINE",
"606 0 LINE",
"191 586 LINE",
"212 592 LINE",
"212 167 LINE SMOOTH",
"212 115 OFFCURVE",
"219 54 OFFCURVE",
"223 27 CURVE",
"183 64 LINE",
"300 54 LINE",
"293 0 LINE",
"184 0 LINE",
"159 0 OFFCURVE",
"63 -5 OFFCURVE",
"63 -5 CURVE",
"58 45 LINE",
"172 68 LINE",
"131 30 LINE",
"135 51 OFFCURVE",
"145 115 OFFCURVE",
"145 137 CURVE SMOOTH",
"145 568 LINE SMOOTH",
"145 589 OFFCURVE",
"134 657 OFFCURVE",
"132 673 CURVE",
"172 639 LINE",
"56 656 LINE",
"61 710 LINE",
"61 710 OFFCURVE",
"156 705 OFFCURVE",
"176 705 CURVE SMOOTH",
"221 706 LINE",
"241 685 LINE",
"241 685 OFFCURVE",
"322 552 OFFCURVE",
"338 530 CURVE SMOOTH",
"621 138 LINE",
"600 132 LINE",
"600 568 LINE SMOOTH",
"600 589 OFFCURVE",
"589 663 OFFCURVE",
"585 683 CURVE",
"627 638 LINE",
"513 656 LINE",
"518 710 LINE",
"546 708 OFFCURVE",
"605 705 OFFCURVE",
"625 705 CURVE SMOOTH",
"685 705 OFFCURVE",
"756 710 OFFCURVE",
"756 710 CURVE"
);
}
);
};
layerId = UUID0;
paths = (
{
closed = 1;
nodes = (
"103 -3 OFFCURVE",
"164 0 OFFCURVE",
"184 0 CURVE SMOOTH",
"293 0 LINE",
"300 54 LINE",
"183 64 LINE",
"223 27 LINE",
"219 54 OFFCURVE",
"212 115 OFFCURVE",
"212 167 CURVE SMOOTH",
"212 592 LINE",
"191 586 LINE",
"606 0 LINE",
"666 0 LINE",
"667 538 LINE SMOOTH",
"667 593 OFFCURVE",
"684 654 OFFCURVE",
"689 678 CURVE",
"646 641 LINE",
"760 651 LINE",
"756 710 LINE",
"726 708 OFFCURVE",
"685 705 OFFCURVE",
"625 705 CURVE SMOOTH",
"605 705 OFFCURVE",
"549 708 OFFCURVE",
"518 710 CURVE",
"513 656 LINE",
"627 638 LINE",
"585 683 LINE",
"589 663 OFFCURVE",
"600 589 OFFCURVE",
"600 568 CURVE SMOOTH",
"600 132 LINE",
"621 138 LINE",
"338 530 LINE SMOOTH",
"322 552 OFFCURVE",
"241 685 OFFCURVE",
"241 685 CURVE",
"221 705 LINE",
"176 705 LINE SMOOTH",
"156 705 OFFCURVE",
"98 708 OFFCURVE",
"61 710 CURVE",
"56 656 LINE",
"172 639 LINE",
"132 673 LINE",
"134 657 OFFCURVE",
"145 589 OFFCURVE",
"145 568 CURVE SMOOTH",
"145 137 LINE SMOOTH",
"145 115 OFFCURVE",
"135 51 OFFCURVE",
"131 30 CURVE",
"172 68 LINE",
"58 45 LINE",
"63 -5 LINE"
);
}
);
width = 807;
},
{
anchors = (
{
name = bottom;
position = "{418, 0}";
},
{
name = top;
position = "{413, 720}";
}
);
background = {
paths = (
{
closed = 1;
nodes = (
"99 -3 OFFCURVE",
"160 0 OFFCURVE",
"179 0 CURVE SMOOTH",
"316 0 LINE",
"322 67 LINE",
"196 78 LINE",
"257 34 LINE",
"253 65 OFFCURVE",
"244 136 OFFCURVE",
"244 187 CURVE SMOOTH",
"244 533 LINE",
"211 522 LINE",
"586 0 LINE",
"703 0 LINE",
"703 519 LINE SMOOTH",
"703 574 OFFCURVE",
"716 643 OFFCURVE",
"719 670 CURVE",
"657 623 LINE",
"782 635 LINE",
"778 710 LINE",
"778 710 OFFCURVE",
"691 705 OFFCURVE",
"623 705 CURVE",
"603 705 OFFCURVE",
"552 708 OFFCURVE",
"519 710 CURVE",
"514 640 LINE",
"637 619 LINE",
"574 671 LINE",
"579 645 OFFCURVE",
"591 576 OFFCURVE",
"591 549 CURVE SMOOTH",
"591 158 LINE",
"624 169 LINE",
"360 536 LINE SMOOTH",
"345 557 OFFCURVE",
"270 685 OFFCURVE",
"270 685 CURVE",
"251 705 LINE",
"171 705 LINE SMOOTH",
"151 705 OFFCURVE",
"59 710 OFFCURVE",
"59 710 CURVE",
"54 640 LINE",
"179 619 LINE",
"116 669 LINE",
"120 648 OFFCURVE",
"132 575 OFFCURVE",
"132 549 CURVE SMOOTH",
"132 157 LINE SMOOTH",
"132 129 OFFCURVE",
"122 67 OFFCURVE",
"118 41 CURVE",
"179 83 LINE",
"54 60 LINE",
"59 -5 LINE"
);
}
);
};
layerId = "16643525-C5DD-48EC-8E99-463BF28F5E85";
paths = (
{
closed = 1;
nodes = (
"99 -3 OFFCURVE",
"160 0 OFFCURVE",
"179 0 CURVE SMOOTH",
"316 0 LINE",
"322 67 LINE",
"196 78 LINE",
"257 34 LINE",
"253 65 OFFCURVE",
"244 136 OFFCURVE",
"244 187 CURVE SMOOTH",
"244 533 LINE",
"211 522 LINE",
"586 0 LINE",
"703 0 LINE",
"703 519 LINE SMOOTH",
"703 574 OFFCURVE",
"716 643 OFFCURVE",
"719 670 CURVE",
"657 623 LINE",
"782 635 LINE",
"778 710 LINE",
"733 708 OFFCURVE",
"691 705 OFFCURVE",
"623 705 CURVE SMOOTH",
"599 705 OFFCURVE",
"550 708 OFFCURVE",
"519 710 CURVE",
"514 640 LINE",
"637 619 LINE",
"574 671 LINE",
"579 645 OFFCURVE",
"591 576 OFFCURVE",
"591 549 CURVE SMOOTH",
"591 158 LINE",
"624 169 LINE",
"360 536 LINE SMOOTH",
"345 557 OFFCURVE",
"270 685 OFFCURVE",
"270 685 CURVE",
"251 705 LINE",
"171 705 LINE SMOOTH",
"146 705 OFFCURVE",
"93 708 OFFCURVE",
"59 710 CURVE",
"54 640 LINE",
"178 619 LINE",
"116 669 LINE",
"120 648 OFFCURVE",
"132 575 OFFCURVE",
"132 549 CURVE SMOOTH",
"132 157 LINE SMOOTH",
"132 129 OFFCURVE",
"122 67 OFFCURVE",
"118 41 CURVE",
"179 83 LINE",
"54 60 LINE",
"59 -5 LINE"
);
}
);
width = 825;
}
);
leftKerningGroup = UC_Stem;
rightKerningGroup = UC_N;
unicode = 004E;
},
{
color = 0;
glyphname = O;
layers = (
{
anchors = (
{
name = bottom;
position = "{399, 0}";
},
{
name = center;
position = "{409, 353}";
},
{
name = ogonek;
position = "{509, 0}";
},
{
name = top;
position = "{399, 720}";
},
{
name = topright;
position = "{580, 630}";
}
);
background = {
anchors = (
{
name = bottom;
position = "{399, 0}";
},
{
name = horn;
position = "{657, 544}";
},
{
name = ogonek;
position = "{509, 0}";
},
{
name = top;
position = "{399, 715}";
}
);
paths = (
{
closed = 1;
nodes = (
"727 570 OFFCURVE",
"616 720 OFFCURVE",
"399 720 CURVE SMOOTH",
"182 720 OFFCURVE",
"71 570 OFFCURVE",
"71 352 CURVE SMOOTH",
"71 135 OFFCURVE",
"182 -15 OFFCURVE",
"399 -15 CURVE SMOOTH",
"616 -15 OFFCURVE",
"727 135 OFFCURVE",
"727 352 CURVE SMOOTH"
);
},
{
closed = 1;
nodes = (
"178 527 OFFCURVE",
"250 667 OFFCURVE",
"399 667 CURVE SMOOTH",
"548 667 OFFCURVE",
"620 527 OFFCURVE",
"620 352 CURVE SMOOTH",
"620 178 OFFCURVE",
"548 38 OFFCURVE",
"399 38 CURVE SMOOTH",
"250 38 OFFCURVE",
"178 178 OFFCURVE",
"178 352 CURVE SMOOTH"
);
}
);
};
layerId = UUID0;
paths = (
{
closed = 1;
nodes = (
"616 -15 OFFCURVE",
"727 135 OFFCURVE",
"727 352 CURVE SMOOTH",
"727 570 OFFCURVE",
"616 720 OFFCURVE",
"399 720 CURVE SMOOTH",
"182 720 OFFCURVE",
"71 570 OFFCURVE",
"71 352 CURVE SMOOTH",
"71 135 OFFCURVE",
"182 -15 OFFCURVE",
"399 -15 CURVE SMOOTH"
);
},
{
closed = 1;
nodes = (
"250 38 OFFCURVE",
"178 178 OFFCURVE",
"178 352 CURVE SMOOTH",
"178 527 OFFCURVE",
"250 667 OFFCURVE",
"399 667 CURVE SMOOTH",
"548 667 OFFCURVE",
"620 527 OFFCURVE",
"620 352 CURVE SMOOTH",
"620 178 OFFCURVE",
"548 38 OFFCURVE",
"399 38 CURVE SMOOTH"
);
}
);
width = 798;
},
{
anchors = (
{
name = bottom;
position = "{414, 0}";
},
{
name = center;
position = "{434, 353}";
},
{
name = ogonek;
position = "{527, 0}";
},
{
name = top;
position = "{413, 720}";
},
{
name = topright;
position = "{615, 630}";
}
);
background = {
anchors = (
{
name = bottom;
position = "{417, 0}";
},
{
name = horn;
position = "{677, 544}";
},
{
name = ogonek;
position = "{531, 0}";
},
{
name = top;
position = "{416, 715}";
}
);
paths = (
{
closed = 1;
nodes = (
"774 574 OFFCURVE",
"634 720 OFFCURVE",
"417 720 CURVE SMOOTH",
"200 720 OFFCURVE",
"60 574 OFFCURVE",
"60 352 CURVE SMOOTH",
"60 131 OFFCURVE",
"200 -15 OFFCURVE",
"417 -15 CURVE SMOOTH",
"634 -15 OFFCURVE",
"774 131 OFFCURVE",
"774 352 CURVE SMOOTH"
);
},
{
closed = 1;
nodes = (
"240 535 OFFCURVE",
"297 623 OFFCURVE",
"417 623 CURVE SMOOTH",
"537 623 OFFCURVE",
"594 535 OFFCURVE",
"594 352 CURVE SMOOTH",
"594 170 OFFCURVE",
"537 82 OFFCURVE",
"417 82 CURVE SMOOTH",
"297 82 OFFCURVE",
"240 170 OFFCURVE",
"240 352 CURVE SMOOTH"
);
}
);
};
layerId = "16643525-C5DD-48EC-8E99-463BF28F5E85";
paths = (
{
closed = 1;
nodes = (
"630 -15 OFFCURVE",
"764 132 OFFCURVE",
"764 352 CURVE SMOOTH",
"764 573 OFFCURVE",
"630 720 OFFCURVE",
"414 720 CURVE SMOOTH",
"197 720 OFFCURVE",
"64 573 OFFCURVE",
"64 352 CURVE SMOOTH",
"64 132 OFFCURVE",
"197 -15 OFFCURVE",
"414 -15 CURVE SMOOTH"
);
},
{
closed = 1;
nodes = (
"287 71 OFFCURVE",
"226 172 OFFCURVE",
"226 352 CURVE SMOOTH",
"226 533 OFFCURVE",
"287 634 OFFCURVE",
"414 634 CURVE SMOOTH",
"541 634 OFFCURVE",
"602 533 OFFCURVE",
"602 352 CURVE SMOOTH",
"602 172 OFFCURVE",
"541 71 OFFCURVE",
"414 71 CURVE SMOOTH"
);
}
);
width = 827;
}
);
leftKerningGroup = UC_Round;
rightKerningGroup = UC_Round;
unicode = 004F;
},
{
color = 0;
glyphname = OE;
layers = (
{
anchors = (
{
name = bottom;
position = "{298, 0}";
},
{
name = top;
position = "{298, 720}";
}
);
background = {
paths = (
{
closed = 1;
nodes = (
"530 58 LINE",
"486 47 OFFCURVE",
"439 47 OFFCURVE",
"398 48 CURVE SMOOTH",
"249 52 OFFCURVE",
"177 184 OFFCURVE",
"177 352 CURVE SMOOTH",
"177 521 OFFCURVE",
"250 657 OFFCURVE",
"398 657 CURVE SMOOTH",
"439 657 OFFCURVE",
"486 654 OFFCURVE",
"530 648 CURVE",
"499 681 LINE",
"504 644 OFFCURVE",
"503 590 OFFCURVE",
"503 568 CURVE SMOOTH",
"503 137 LINE SMOOTH",
"503 115 OFFCURVE",
"502 45 OFFCURVE",
"498 24 CURVE"
);
},
{
closed = 1;
nodes = (
"491 707 OFFCURVE",
"444 710 OFFCURVE",
"398 710 CURVE SMOOTH",
"181 710 OFFCURVE",
"70 564 OFFCURVE",
"70 352 CURVE SMOOTH",
"70 141 OFFCURVE",
"181 -5 OFFCURVE",
"398 -5 CURVE SMOOTH",
"450 -5 OFFCURVE",
"503 -2 OFFCURVE",
"555 0 CURVE",
"606 16 LINE",
"601 45 OFFCURVE",
"594 118 OFFCURVE",
"594 167 CURVE",
"594 538 LINE SMOOTH",
"594 586 OFFCURVE",
"601 660 OFFCURVE",
"604 675 CURVE",
"537 705 LINE"
);
},
{
closed = 1;
nodes = (
"909 14 LINE",
"924 165 LINE",
"869 170 LINE",
"854 103 LINE SMOOTH",
"851 88 OFFCURVE",
"831 62 OFFCURVE",
"816 43 CURVE",
"848 69 LINE",
"830 65 OFFCURVE",
"786 57 OFFCURVE",
"746 57 CURVE SMOOTH",
"538 57 LINE",
"538 0 LINE",
"776 0 LINE SMOOTH",
"794 0 OFFCURVE",
"852 -2 OFFCURVE",
"890 -4 CURVE"
);
},
{
closed = 1;
nodes = (
"828 271 LINE",
"826 307 OFFCURVE",
"825 344 OFFCURVE",
"825 380 CURVE SMOOTH",
"825 400 OFFCURVE",
"826 464 OFFCURVE",
"826 464 CURVE",
"780 469 LINE",
"766 364 LINE",
"797 404 LINE",
"783 402 OFFCURVE",
"739 394 OFFCURVE",
"711 394 CURVE SMOOTH",
"538 394 LINE",
"538 338 LINE",
"691 338 LINE SMOOTH",
"717 338 OFFCURVE",
"780 331 OFFCURVE",
"803 328 CURVE",
"766 368 LINE",
"780 265 LINE"
);
},
{
closed = 1;
nodes = (
"903 561 LINE",
"896 692 LINE",
"877 710 LINE",
"839 707 OFFCURVE",
"781 705 OFFCURVE",
"763 705 CURVE SMOOTH",
"458 705 LINE",
"458 649 LINE",
"733 649 LINE SMOOTH",
"769 649 OFFCURVE",
"811 646 OFFCURVE",
"831 643 CURVE",
"796 665 LINE",
"811 651 OFFCURVE",
"832 620 OFFCURVE",
"834 610 CURVE SMOOTH",
"845 556 LINE"
);
}
);
};
layerId = UUID0;
paths = (
{
closed = 1;
nodes = (
"450 -5 OFFCURVE",
"503 -2 OFFCURVE",
"555 0 CURVE",
"606 16 LINE",
"601 45 OFFCURVE",
"594 118 OFFCURVE",
"594 167 CURVE",
"594 538 LINE SMOOTH",
"594 586 OFFCURVE",
"601 660 OFFCURVE",
"604 675 CURVE",
"537 705 LINE",
"491 707 OFFCURVE",
"444 710 OFFCURVE",
"398 710 CURVE SMOOTH",
"181 710 OFFCURVE",
"70 564 OFFCURVE",
"70 352 CURVE SMOOTH",
"70 141 OFFCURVE",
"181 -5 OFFCURVE",
"398 -5 CURVE SMOOTH"
);
},
{
closed = 1;
nodes = (
"530 58 LINE",
"486 47 OFFCURVE",
"439 47 OFFCURVE",
"398 48 CURVE SMOOTH",
"249 52 OFFCURVE",
"177 184 OFFCURVE",
"177 352 CURVE SMOOTH",
"177 521 OFFCURVE",
"250 657 OFFCURVE",
"398 657 CURVE SMOOTH",
"439 657 OFFCURVE",
"486 654 OFFCURVE",
"530 648 CURVE",
"499 681 LINE",
"504 644 OFFCURVE",
"503 590 OFFCURVE",
"503 568 CURVE SMOOTH",
"503 137 LINE SMOOTH",
"503 115 OFFCURVE",
"502 45 OFFCURVE",
"498 24 CURVE"
);
},
{
closed = 1;
nodes = (
"909 14 LINE",
"924 165 LINE",
"869 170 LINE",
"854 103 LINE SMOOTH",
"851 88 OFFCURVE",
"831 62 OFFCURVE",
"816 43 CURVE",
"848 69 LINE",
"830 65 OFFCURVE",
"786 57 OFFCURVE",
"746 57 CURVE SMOOTH",
"538 57 LINE",
"538 0 LINE",
"776 0 LINE SMOOTH",
"794 0 OFFCURVE",
"852 -2 OFFCURVE",
"890 -4 CURVE"
);
},
{
closed = 1;
nodes = (
"828 271 LINE",
"826 307 OFFCURVE",
"825 344 OFFCURVE",
"825 380 CURVE SMOOTH",
"825 464 LINE",
"780 469 LINE",
"766 364 LINE",
"797 404 LINE",
"783 402 OFFCURVE",
"739 394 OFFCURVE",
"711 394 CURVE SMOOTH",
"538 394 LINE",
"538 338 LINE",
"691 338 LINE SMOOTH",
"717 338 OFFCURVE",
"780 331 OFFCURVE",
"803 328 CURVE",
"766 368 LINE",
"780 265 LINE"
);
},
{
closed = 1;
nodes = (
"903 561 LINE",
"896 692 LINE",
"877 710 LINE",
"839 707 OFFCURVE",
"781 705 OFFCURVE",
"763 705 CURVE SMOOTH",
"538 705 LINE",
"538 649 LINE",
"733 649 LINE SMOOTH",
"769 649 OFFCURVE",
"811 646 OFFCURVE",
"831 643 CURVE",
"796 665 LINE",
"811 651 OFFCURVE",
"832 620 OFFCURVE",
"834 610 CURVE SMOOTH",
"845 556 LINE"
);
}
);
width = 990;
},
{
anchors = (
{
name = bottom;
position = "{305, 0}";
},
{
name = top;
position = "{305, 720}";
}
);
background = {
paths = (
{
closed = 1;
nodes = (
"550 83 LINE",
"505 80 OFFCURVE",
"458 80 OFFCURVE",
"413 80 CURVE SMOOTH",
"286 80 OFFCURVE",
"225 179 OFFCURVE",
"225 352 CURVE SMOOTH",
"225 526 OFFCURVE",
"286 624 OFFCURVE",
"413 624 CURVE SMOOTH",
"464 624 OFFCURVE",
"511 623 OFFCURVE",
"550 622 CURVE",
"498 671 LINE",
"502 640 OFFCURVE",
"504 577 OFFCURVE",
"504 549 CURVE SMOOTH",
"504 157 LINE SMOOTH",
"504 130 OFFCURVE",
"502 64 OFFCURVE",
"499 37 CURVE"
);
},
{
closed = 1;
nodes = (
"505 707 OFFCURVE",
"458 710 OFFCURVE",
"413 710 CURVE SMOOTH",
"196 710 OFFCURVE",
"63 567 OFFCURVE",
"63 352 CURVE SMOOTH",
"63 138 OFFCURVE",
"196 -6 OFFCURVE",
"413 -6 CURVE SMOOTH",
"467 -6 OFFCURVE",
"522 -2 OFFCURVE",
"577 0 CURVE",
"652 47 LINE",
"650 69 OFFCURVE",
"643 141 OFFCURVE",
"643 187 CURVE SMOOTH",
"643 519 LINE SMOOTH",
"643 568 OFFCURVE",
"649 638 OFFCURVE",
"650 656 CURVE",
"550 705 LINE"
);
},
{
closed = 1;
nodes = (
"919 14 LINE",
"934 184 LINE",
"868 189 LINE",
"855 129 LINE SMOOTH",
"851 112 OFFCURVE",
"830 73 OFFCURVE",
"804 42 CURVE",
"857 93 LINE",
"842 89 OFFCURVE",
"800 80 OFFCURVE",
"756 80 CURVE SMOOTH",
"530 80 LINE",
"530 0 LINE",
"786 0 LINE SMOOTH",
"814 0 OFFCURVE",
"862 -2 OFFCURVE",
"900 -4 CURVE"
);
},
{
closed = 1;
nodes = (
"830 260 LINE",
"828 301 OFFCURVE",
"827 341 OFFCURVE",
"827 382 CURVE SMOOTH",
"827 402 OFFCURVE",
"828 466 OFFCURVE",
"828 466 CURVE",
"770 471 LINE",
"756 367 LINE",
"789 409 LINE",
"770 403 OFFCURVE",
"736 397 OFFCURVE",
"713 397 CURVE SMOOTH",
"530 397 LINE",
"530 322 LINE",
"693 322 LINE SMOOTH",
"723 322 OFFCURVE",
"775 317 OFFCURVE",
"805 315 CURVE",
"756 352 LINE",
"770 254 LINE"
);
},
{
closed = 1;
nodes = (
"912 547 LINE",
"905 692 LINE",
"886 710 LINE",
"848 707 OFFCURVE",
"790 705 OFFCURVE",
"772 705 CURVE SMOOTH",
"530 705 LINE",
"530 630 LINE",
"745 630 LINE SMOOTH",
"785 630 OFFCURVE",
"832 625 OFFCURVE",
"857 623 CURVE",
"802 675 LINE",
"816 647 OFFCURVE",
"835 603 OFFCURVE",
"837 590 CURVE SMOOTH",
"844 542 LINE"
);
}
);
};
layerId = "16643525-C5DD-48EC-8E99-463BF28F5E85";
paths = (
{
closed = 1;
nodes = (
"467 -6 OFFCURVE",
"522 -2 OFFCURVE",
"577 0 CURVE",
"652 47 LINE",
"650 69 OFFCURVE",
"643 141 OFFCURVE",
"643 187 CURVE SMOOTH",
"643 519 LINE SMOOTH",
"643 568 OFFCURVE",
"649 638 OFFCURVE",
"650 656 CURVE",
"550 705 LINE",
"505 707 OFFCURVE",
"458 710 OFFCURVE",
"413 710 CURVE SMOOTH",
"196 710 OFFCURVE",
"63 567 OFFCURVE",
"63 352 CURVE SMOOTH",
"63 138 OFFCURVE",
"196 -6 OFFCURVE",
"413 -6 CURVE SMOOTH"
);
},
{
closed = 1;
nodes = (
"550 83 LINE",
"505 80 OFFCURVE",
"458 80 OFFCURVE",
"413 80 CURVE SMOOTH",
"286 80 OFFCURVE",
"225 179 OFFCURVE",
"225 352 CURVE SMOOTH",
"225 526 OFFCURVE",
"286 624 OFFCURVE",
"413 624 CURVE SMOOTH",
"464 624 OFFCURVE",
"511 623 OFFCURVE",
"550 622 CURVE",
"498 671 LINE",
"502 640 OFFCURVE",
"504 577 OFFCURVE",
"504 549 CURVE SMOOTH",
"504 157 LINE SMOOTH",
"504 130 OFFCURVE",
"502 64 OFFCURVE",
"499 37 CURVE"
);
},
{
closed = 1;
nodes = (
"919 14 LINE",
"934 184 LINE",
"868 189 LINE",
"855 129 LINE SMOOTH",
"851 112 OFFCURVE",
"830 73 OFFCURVE",
"804 42 CURVE",
"857 93 LINE",
"842 89 OFFCURVE",
"800 80 OFFCURVE",
"756 80 CURVE SMOOTH",
"530 80 LINE",
"530 0 LINE",
"786 0 LINE SMOOTH",
"814 0 OFFCURVE",
"862 -2 OFFCURVE",
"900 -4 CURVE"
);
},
{
closed = 1;
nodes = (
"830 260 LINE",
"828 301 OFFCURVE",
"827 341 OFFCURVE",
"827 382 CURVE SMOOTH",
"827 466 LINE",
"770 471 LINE",
"756 367 LINE",
"789 409 LINE",
"770 403 OFFCURVE",
"736 397 OFFCURVE",
"713 397 CURVE SMOOTH",
"530 397 LINE",
"530 322 LINE",
"693 322 LINE SMOOTH",
"723 322 OFFCURVE",
"775 317 OFFCURVE",
"805 315 CURVE",
"756 352 LINE",
"770 254 LINE"
);
},
{
closed = 1;
nodes = (
"912 547 LINE",
"905 692 LINE",
"886 710 LINE",
"848 707 OFFCURVE",
"790 705 OFFCURVE",
"772 705 CURVE SMOOTH",
"530 705 LINE",
"530 630 LINE",
"745 630 LINE SMOOTH",
"785 630 OFFCURVE",
"832 625 OFFCURVE",
"857 623 CURVE",
"802 675 LINE",
"816 647 OFFCURVE",
"835 603 OFFCURVE",
"837 590 CURVE SMOOTH",
"844 542 LINE"
);
}
);
width = 997;
}
);
leftKerningGroup = UC_Round;
rightKerningGroup = UC_E;
unicode = 0152;
},
{
color = 0;
glyphname = Oslash;
layers = (
{
anchors = (
{
name = bottom;
position = "{399, 0}";
},
{
name = center;
position = "{409, 353}";
},
{
name = ogonek;
position = "{509, 0}";
},
{
name = top;
position = "{399, 705}";
},
{
name = topright;
position = "{580, 630}";
}
);
background = {
paths = (
{
closed = 1;
nodes = (
"725 570 OFFCURVE",
"614 720 OFFCURVE",
"397 720 CURVE",
"180 720 OFFCURVE",
"69 570 OFFCURVE",
"69 352 CURVE",
"69 135 OFFCURVE",
"180 -15 OFFCURVE",
"397 -15 CURVE SMOOTH",
"614 -15 OFFCURVE",
"725 135 OFFCURVE",
"725 352 CURVE"
);
},
{
closed = 1;
nodes = (
"176 527 OFFCURVE",
"248 667 OFFCURVE",
"397 667 CURVE",
"546 667 OFFCURVE",
"618 527 OFFCURVE",
"618 352 CURVE",
"618 178 OFFCURVE",
"546 38 OFFCURVE",
"397 38 CURVE SMOOTH",
"248 38 OFFCURVE",
"176 178 OFFCURVE",
"176 352 CURVE"
);
}
);
};
layerId = UUID0;
paths = (
{
closed = 1;
nodes = (
"669 815 LINE",
"627 838 LINE",
"127 -113 LINE",
"167 -136 LINE"
);
},
{
closed = 1;
nodes = (
"616 -15 OFFCURVE",
"727 135 OFFCURVE",
"727 352 CURVE SMOOTH",
"727 570 OFFCURVE",
"616 720 OFFCURVE",
"399 720 CURVE SMOOTH",
"182 720 OFFCURVE",
"71 570 OFFCURVE",
"71 352 CURVE SMOOTH",
"71 135 OFFCURVE",
"182 -15 OFFCURVE",
"399 -15 CURVE SMOOTH"
);
},
{
closed = 1;
nodes = (
"250 38 OFFCURVE",
"178 178 OFFCURVE",
"178 352 CURVE SMOOTH",
"178 527 OFFCURVE",
"250 667 OFFCURVE",
"399 667 CURVE SMOOTH",
"548 667 OFFCURVE",
"620 527 OFFCURVE",
"620 352 CURVE SMOOTH",
"620 178 OFFCURVE",
"548 38 OFFCURVE",
"399 38 CURVE SMOOTH"
);
}
);
width = 798;
},
{
anchors = (
{
name = bottom;
position = "{413, 0}";
},
{
name = center;
position = "{433, 353}";
},
{
name = ogonek;
position = "{526, 0}";
},
{
name = top;
position = "{413, 705}";
},
{
name = topright;
position = "{614, 630}";
}
);
background = {
paths = (
{
closed = 1;
nodes = (
"787 578 OFFCURVE",
"647 724 OFFCURVE",
"430 724 CURVE",
"213 724 OFFCURVE",
"73 578 OFFCURVE",
"73 352 CURVE",
"73 127 OFFCURVE",
"213 -19 OFFCURVE",
"430 -19 CURVE SMOOTH",
"647 -19 OFFCURVE",
"787 127 OFFCURVE",
"787 352 CURVE"
);
},
{
closed = 1;
nodes = (
"253 539 OFFCURVE",
"310 627 OFFCURVE",
"430 627 CURVE",
"550 627 OFFCURVE",
"607 539 OFFCURVE",
"607 352 CURVE",
"607 166 OFFCURVE",
"550 78 OFFCURVE",
"430 78 CURVE SMOOTH",
"310 78 OFFCURVE",
"253 166 OFFCURVE",
"253 352 CURVE"
);
}
);
};
layerId = "16643525-C5DD-48EC-8E99-463BF28F5E85";
paths = (
{
closed = 1;
nodes = (
"709 809 LINE",
"650 838 LINE",
"153 -108 LINE",
"210 -137 LINE"
);
},
{
closed = 1;
nodes = (
"629 -15 OFFCURVE",
"763 132 OFFCURVE",
"763 352 CURVE SMOOTH",
"763 573 OFFCURVE",
"629 720 OFFCURVE",
"413 720 CURVE SMOOTH",
"196 720 OFFCURVE",
"63 573 OFFCURVE",
"63 352 CURVE SMOOTH",
"63 132 OFFCURVE",
"196 -15 OFFCURVE",
"413 -15 CURVE SMOOTH"
);
},
{
closed = 1;
nodes = (
"286 71 OFFCURVE",
"225 172 OFFCURVE",
"225 352 CURVE SMOOTH",
"225 533 OFFCURVE",
"286 634 OFFCURVE",
"413 634 CURVE SMOOTH",
"540 634 OFFCURVE",
"601 533 OFFCURVE",
"601 352 CURVE SMOOTH",
"601 172 OFFCURVE",
"540 71 OFFCURVE",
"413 71 CURVE SMOOTH"
);
}
);
width = 826;
}
);
leftKerningGroup = UC_Round;
rightKerningGroup = UC_Round;
unicode = 00D8;
},
{
color = 0;
glyphname = P;
layers = (
{
anchors = (
{
name = bottom;
position = "{315, 0}";
},
{
name = top;
position = "{315, 705}";
}
);
background = {
paths = (
{
closed = 1;
nodes = (
"61 -5 OFFCURVE",
"171 0 OFFCURVE",
"196 0 CURVE",
"335 0 LINE",
"342 54 LINE",
"206 64 LINE",
"247 28 LINE",
"242 54 OFFCURVE",
"235 115 OFFCURVE",
"235 167 CURVE SMOOTH",
"235 538 LINE SMOOTH",
"235 590 OFFCURVE",
"243 658 OFFCURVE",
"246 677 CURVE",
"178 705 LINE",
"158 705 OFFCURVE",
"63 710 OFFCURVE",
"63 710 CURVE",
"58 656 LINE",
"171 638 LINE",
"130 677 LINE",
"134 656 OFFCURVE",
"144 590 OFFCURVE",
"144 568 CURVE SMOOTH",
"144 137 LINE SMOOTH",
"144 115 OFFCURVE",
"133 46 OFFCURVE",
"130 28 CURVE",
"171 68 LINE",
"56 45 LINE",
"61 -5 LINE"
);
},
{
closed = 1;
nodes = (
"458 291 OFFCURVE",
"570 367 OFFCURVE",
"570 502 CURVE SMOOTH",
"570 639 OFFCURVE",
"485 710 OFFCURVE",
"347 710 CURVE SMOOTH",
"292 710 OFFCURVE",
"233 705 OFFCURVE",
"178 705 CURVE",
"178 652 LINE",
"220 656 OFFCURVE",
"263 660 OFFCURVE",
"305 660 CURVE SMOOTH",
"409 660 OFFCURVE",
"476 605 OFFCURVE",
"476 502 CURVE SMOOTH",
"476 394 OFFCURVE",
"408 341 OFFCURVE",
"304 341 CURVE SMOOTH",
"262 341 OFFCURVE",
"163 354 OFFCURVE",
"163 354 CURVE",
"163 296 LINE",
"163 296 OFFCURVE",
"254 291 OFFCURVE",
"324 291 CURVE SMOOTH"
);
}
);
};
layerId = UUID0;
paths = (
{
closed = 1;
nodes = (
"106 -3 OFFCURVE",
"171 0 OFFCURVE",
"196 0 CURVE SMOOTH",
"335 0 LINE",
"342 54 LINE",
"206 64 LINE",
"247 28 LINE",
"242 54 OFFCURVE",
"235 115 OFFCURVE",
"235 167 CURVE SMOOTH",
"235 538 LINE SMOOTH",
"235 590 OFFCURVE",
"243 658 OFFCURVE",
"246 677 CURVE",
"178 705 LINE",
"158 705 OFFCURVE",
"100 708 OFFCURVE",
"63 710 CURVE",
"58 656 LINE",
"171 638 LINE",
"130 677 LINE",
"134 656 OFFCURVE",
"144 590 OFFCURVE",
"144 568 CURVE SMOOTH",
"144 137 LINE SMOOTH",
"144 115 OFFCURVE",
"133 46 OFFCURVE",
"130 28 CURVE",
"171 68 LINE",
"56 45 LINE",
"61 -5 LINE"
);
},
{
closed = 1;
nodes = (
"458 291 OFFCURVE",
"570 367 OFFCURVE",
"570 502 CURVE SMOOTH",
"570 639 OFFCURVE",
"485 710 OFFCURVE",
"347 710 CURVE SMOOTH",
"292 710 OFFCURVE",
"233 705 OFFCURVE",
"178 705 CURVE",
"178 652 LINE",
"220 656 OFFCURVE",
"263 660 OFFCURVE",
"305 660 CURVE SMOOTH",
"409 660 OFFCURVE",
"476 605 OFFCURVE",
"476 502 CURVE SMOOTH",
"476 394 OFFCURVE",
"408 341 OFFCURVE",
"304 341 CURVE SMOOTH",
"257 341 OFFCURVE",
"210 348 OFFCURVE",
"163 354 CURVE",
"163 296 LINE",
"224 293 OFFCURVE",
"270 291 OFFCURVE",
"324 291 CURVE SMOOTH"
);
}
);
width = 629;
},
{
anchors = (
{
name = bottom;
position = "{327, 0}";
},
{
name = top;
position = "{327, 705}";
}
);
background = {
paths = (
{
closed = 1;
nodes = (
"59 -5 OFFCURVE",
"177 0 OFFCURVE",
"205 0 CURVE",
"356 0 LINE",
"361 67 LINE",
"224 78 LINE",
"286 25 LINE",
"281 52 OFFCURVE",
"271 131 OFFCURVE",
"271 187 CURVE SMOOTH",
"271 519 LINE SMOOTH",
"271 568 OFFCURVE",
"276 629 OFFCURVE",
"282 669 CURVE",
"179 705 LINE",
"152 705 OFFCURVE",
"60 710 OFFCURVE",
"60 710 CURVE",
"55 640 LINE",
"179 619 LINE",
"116 667 LINE",
"124 632 OFFCURVE",
"132 576 OFFCURVE",
"132 549 CURVE SMOOTH",
"132 157 LINE SMOOTH",
"132 127 OFFCURVE",
"121 56 OFFCURVE",
"116 25 CURVE",
"179 83 LINE",
"54 60 LINE",
"59 -5 LINE"
);
},
{
closed = 1;
nodes = (
"474 276 OFFCURVE",
"600 357 OFFCURVE",
"600 498 CURVE SMOOTH",
"600 633 OFFCURVE",
"506 710 OFFCURVE",
"367 710 CURVE SMOOTH",
"312 710 OFFCURVE",
"234 705 OFFCURVE",
"179 705 CURVE",
"179 627 LINE",
"209 630 OFFCURVE",
"285 636 OFFCURVE",
"313 636 CURVE SMOOTH",
"408 636 OFFCURVE",
"455 591 OFFCURVE",
"455 498 CURVE SMOOTH",
"455 402 OFFCURVE",
"395 350 OFFCURVE",
"301 350 CURVE SMOOTH",
"263 350 OFFCURVE",
"174 353 OFFCURVE",
"174 353 CURVE",
"174 277 LINE",
"174 277 OFFCURVE",
"262 276 OFFCURVE",
"335 276 CURVE SMOOTH"
);
}
);
};
layerId = "16643525-C5DD-48EC-8E99-463BF28F5E85";
paths = (
{
closed = 1;
nodes = (
"108 -3 OFFCURVE",
"176 0 OFFCURVE",
"205 0 CURVE SMOOTH",
"356 0 LINE",
"362 67 LINE",
"224 78 LINE",
"286 25 LINE",
"281 52 OFFCURVE",
"271 131 OFFCURVE",
"271 187 CURVE SMOOTH",
"271 519 LINE SMOOTH",
"271 568 OFFCURVE",
"276 629 OFFCURVE",
"282 669 CURVE",
"179 705 LINE",
"152 705 OFFCURVE",
"96 708 OFFCURVE",
"60 710 CURVE",
"55 640 LINE",
"179 619 LINE",
"116 667 LINE",
"124 632 OFFCURVE",
"132 576 OFFCURVE",
"132 549 CURVE SMOOTH",
"132 157 LINE SMOOTH",
"132 127 OFFCURVE",
"121 56 OFFCURVE",
"116 25 CURVE",
"179 83 LINE",
"54 60 LINE",
"59 -5 LINE"
);
},
{
closed = 1;
nodes = (
"474 276 OFFCURVE",
"600 357 OFFCURVE",
"600 498 CURVE SMOOTH",
"600 633 OFFCURVE",
"506 710 OFFCURVE",
"367 710 CURVE SMOOTH",
"312 710 OFFCURVE",
"234 705 OFFCURVE",
"179 705 CURVE",
"179 627 LINE",
"209 630 OFFCURVE",
"285 636 OFFCURVE",
"313 636 CURVE SMOOTH",
"408 636 OFFCURVE",
"455 591 OFFCURVE",
"455 498 CURVE SMOOTH",
"455 402 OFFCURVE",
"395 350 OFFCURVE",
"301 350 CURVE SMOOTH",
"259 350 OFFCURVE",
"216 352 OFFCURVE",
"174 353 CURVE",
"174 277 LINE",
"261 276 OFFCURVE",
"301 276 OFFCURVE",
"335 276 CURVE SMOOTH"
);
}
);
width = 653;
}
);
leftKerningGroup = UC_Stem;
rightKerningGroup = UC_P;
unicode = 0050;
},
{
color = 0;
glyphname = Q;
layers = (
{
anchors = (
{
name = bottom;
position = "{400, 0}";
},
{
name = top;
position = "{400, 705}";
}
);
background = {
components = (
{
name = O;
transform = "{1, 0, 0, 1, 16, 0}";
}
);
paths = (
{
closed = 1;
nodes = (
"693 -224 LINE",
"752 -132 LINE",
"752 -132 OFFCURVE",
"610 -71 OFFCURVE",
"594 -60 CURVE SMOOTH",
"477 21 LINE",
"406 7 LINE"
);
}
);
};
layerId = UUID0;
paths = (
{
closed = 1;
nodes = (
"616 -15 OFFCURVE",
"727 135 OFFCURVE",
"727 352 CURVE SMOOTH",
"727 570 OFFCURVE",
"616 720 OFFCURVE",
"399 720 CURVE SMOOTH",
"182 720 OFFCURVE",
"71 570 OFFCURVE",
"71 352 CURVE SMOOTH",
"71 135 OFFCURVE",
"182 -15 OFFCURVE",
"399 -15 CURVE SMOOTH"
);
},
{
closed = 1;
nodes = (
"752 -132 LINE",
"752 -132 OFFCURVE",
"610 -71 OFFCURVE",
"594 -60 CURVE SMOOTH",
"477 21 LINE",
"406 7 LINE",
"693 -224 LINE"
);
},
{
closed = 1;
nodes = (
"250 38 OFFCURVE",
"178 178 OFFCURVE",
"178 352 CURVE SMOOTH",
"178 527 OFFCURVE",
"250 667 OFFCURVE",
"399 667 CURVE SMOOTH",
"548 667 OFFCURVE",
"620 527 OFFCURVE",
"620 352 CURVE SMOOTH",
"620 178 OFFCURVE",
"548 38 OFFCURVE",
"399 38 CURVE SMOOTH"
);
}
);
width = 799;
},
{
anchors = (
{
name = bottom;
position = "{413, 0}";
},
{
name = top;
position = "{413, 705}";
}
);
background = {
components = (
{
name = O;
transform = "{1, 0, 0, 1, 21, 0}";
}
);
paths = (
{
closed = 1;
nodes = (
"715 -224 LINE",
"805 -100 LINE",
"805 -100 OFFCURVE",
"662 -42 OFFCURVE",
"647 -32 CURVE SMOOTH",
"534 43 LINE",
"396 11 LINE"
);
}
);
};
layerId = "16643525-C5DD-48EC-8E99-463BF28F5E85";
paths = (
{
closed = 1;
nodes = (
"629 -15 OFFCURVE",
"763 132 OFFCURVE",
"763 352 CURVE SMOOTH",
"763 573 OFFCURVE",
"629 720 OFFCURVE",
"413 720 CURVE SMOOTH",
"196 720 OFFCURVE",
"63 573 OFFCURVE",
"63 352 CURVE SMOOTH",
"63 132 OFFCURVE",
"196 -15 OFFCURVE",
"413 -15 CURVE SMOOTH"
);
},
{
closed = 1;
nodes = (
"795 -108 LINE",
"795 -108 OFFCURVE",
"652 -49 OFFCURVE",
"637 -39 CURVE SMOOTH",
"523 38 LINE",
"402 10 LINE",
"713 -224 LINE"
);
},
{
closed = 1;
nodes = (
"286 71 OFFCURVE",
"225 172 OFFCURVE",
"225 352 CURVE SMOOTH",
"225 533 OFFCURVE",
"286 634 OFFCURVE",
"413 634 CURVE SMOOTH",
"540 634 OFFCURVE",
"601 533 OFFCURVE",
"601 352 CURVE SMOOTH",
"601 172 OFFCURVE",
"540 71 OFFCURVE",
"413 71 CURVE SMOOTH"
);
}
);
width = 826;
}
);
leftKerningGroup = UC_Round;
rightKerningGroup = UC_Q;
unicode = 0051;
},
{
color = 0;
glyphname = R;
layers = (
{
anchors = (
{
name = bottom;
position = "{356, 0}";
},
{
name = top;
position = "{316, 720}";
}
);
background = {
paths = (
{
closed = 1;
nodes = (
"61 -5 OFFCURVE",
"171 0 OFFCURVE",
"196 0 CURVE",
"325 0 LINE",
"332 54 LINE",
"206 64 LINE",
"247 28 LINE",
"242 54 OFFCURVE",
"235 115 OFFCURVE",
"235 167 CURVE SMOOTH",
"235 538 LINE SMOOTH",
"235 590 OFFCURVE",
"243 658 OFFCURVE",
"246 677 CURVE",
"178 705 LINE",
"158 705 OFFCURVE",
"63 710 OFFCURVE",
"63 710 CURVE",
"58 656 LINE",
"171 638 LINE",
"130 677 LINE",
"134 656 OFFCURVE",
"144 590 OFFCURVE",
"144 568 CURVE SMOOTH",
"144 137 LINE SMOOTH",
"144 115 OFFCURVE",
"133 46 OFFCURVE",
"130 28 CURVE",
"171 68 LINE",
"56 45 LINE",
"61 -5 LINE"
);
},
{
closed = 1;
nodes = (
"563 0 OFFCURVE",
"641 0 OFFCURVE",
"641 0 CURVE",
"648 54 LINE",
"576 61 LINE",
"560 83 OFFCURVE",
"536 116 OFFCURVE",
"527 131 CURVE",
"521 140 OFFCURVE",
"458 243 OFFCURVE",
"405 349 CURVE",
"307 345 LINE",
"428 116 LINE",
"441 92 OFFCURVE",
"483 0 OFFCURVE",
"483 0 CURVE"
);
},
{
closed = 1;
nodes = (
"456 301 OFFCURVE",
"567 376 OFFCURVE",
"567 508 CURVE SMOOTH",
"567 641 OFFCURVE",
"483 710 OFFCURVE",
"346 710 CURVE SMOOTH",
"291 710 OFFCURVE",
"233 705 OFFCURVE",
"178 705 CURVE",
"178 650 LINE SMOOTH",
"178 650 OFFCURVE",
"269 660 OFFCURVE",
"304 660 CURVE SMOOTH",
"407 660 OFFCURVE",
"473 607 OFFCURVE",
"473 507 CURVE SMOOTH",
"473 402 OFFCURVE",
"406 351 OFFCURVE",
"303 351 CURVE SMOOTH",
"261 351 OFFCURVE",
"163 364 OFFCURVE",
"163 364 CURVE",
"163 306 LINE",
"163 306 OFFCURVE",
"253 301 OFFCURVE",
"323 301 CURVE SMOOTH"
);
}
);
};
layerId = UUID0;
paths = (
{
closed = 1;
nodes = (
"106 -3 OFFCURVE",
"171 0 OFFCURVE",
"196 0 CURVE SMOOTH",
"325 0 LINE",
"332 54 LINE",
"206 64 LINE",
"247 28 LINE",
"242 54 OFFCURVE",
"235 115 OFFCURVE",
"235 167 CURVE SMOOTH",
"235 538 LINE SMOOTH",
"235 590 OFFCURVE",
"243 658 OFFCURVE",
"246 677 CURVE",
"178 705 LINE",
"158 705 OFFCURVE",
"100 708 OFFCURVE",
"63 710 CURVE",
"58 656 LINE",
"171 638 LINE",
"130 677 LINE",
"134 656 OFFCURVE",
"144 590 OFFCURVE",
"144 568 CURVE SMOOTH",
"144 137 LINE SMOOTH",
"144 115 OFFCURVE",
"133 46 OFFCURVE",
"130 28 CURVE",
"171 68 LINE",
"56 45 LINE",
"61 -5 LINE"
);
},
{
closed = 1;
nodes = (
"641 0 LINE",
"648 54 LINE",
"576 61 LINE",
"560 83 OFFCURVE",
"536 116 OFFCURVE",
"527 131 CURVE SMOOTH",
"521 140 OFFCURVE",
"458 243 OFFCURVE",
"405 349 CURVE",
"307 345 LINE",
"428 116 LINE SMOOTH",
"436 100 OFFCURVE",
"465 39 OFFCURVE",
"483 0 CURVE"
);
},
{
closed = 1;
nodes = (
"456 301 OFFCURVE",
"567 376 OFFCURVE",
"567 508 CURVE SMOOTH",
"567 641 OFFCURVE",
"483 710 OFFCURVE",
"346 710 CURVE SMOOTH",
"291 710 OFFCURVE",
"233 705 OFFCURVE",
"178 705 CURVE",
"178 650 LINE",
"220 655 OFFCURVE",
"268 660 OFFCURVE",
"304 660 CURVE SMOOTH",
"407 660 OFFCURVE",
"473 607 OFFCURVE",
"473 507 CURVE SMOOTH",
"473 402 OFFCURVE",
"406 351 OFFCURVE",
"303 351 CURVE SMOOTH",
"256 351 OFFCURVE",
"210 358 OFFCURVE",
"163 364 CURVE",
"163 306 LINE",
"216 303 OFFCURVE",
"270 301 OFFCURVE",
"323 301 CURVE SMOOTH"
);
}
);
width = 694;
},
{
anchors = (
{
name = bottom;
position = "{344, 0}";
},
{
name = top;
position = "{334, 720}";
}
);
background = {
paths = (
{
closed = 1;
nodes = (
"59 -5 OFFCURVE",
"177 0 OFFCURVE",
"205 0 CURVE",
"338 0 LINE",
"344 67 LINE",
"224 78 LINE",
"286 25 LINE",
"281 52 OFFCURVE",
"271 131 OFFCURVE",
"271 187 CURVE SMOOTH",
"271 519 LINE SMOOTH",
"271 568 OFFCURVE",
"276 629 OFFCURVE",
"282 669 CURVE",
"179 705 LINE",
"152 705 OFFCURVE",
"60 710 OFFCURVE",
"60 710 CURVE",
"55 640 LINE",
"179 619 LINE",
"116 667 LINE",
"124 632 OFFCURVE",
"132 576 OFFCURVE",
"132 549 CURVE SMOOTH",
"132 157 LINE SMOOTH",
"132 127 OFFCURVE",
"121 56 OFFCURVE",
"116 25 CURVE",
"179 83 LINE",
"54 60 LINE",
"59 -5 LINE"
);
},
{
closed = 1;
nodes = (
"581 0 OFFCURVE",
"659 0 OFFCURVE",
"659 0 CURVE",
"665 67 LINE",
"611 72 LINE",
"573 128 OFFCURVE",
"581 117 OFFCURVE",
"572 131 CURVE",
"567 140 OFFCURVE",
"500 243 OFFCURVE",
"450 349 CURVE",
"307 345 LINE",
"426 116 LINE",
"439 92 OFFCURVE",
"477 0 OFFCURVE",
"477 0 CURVE"
);
},
{
closed = 1;
nodes = (
"466 283 OFFCURVE",
"594 368 OFFCURVE",
"594 505 CURVE SMOOTH",
"594 633 OFFCURVE",
"501 710 OFFCURVE",
"363 710 CURVE SMOOTH",
"308 710 OFFCURVE",
"234 705 OFFCURVE",
"179 705 CURVE",
"179 626 LINE",
"210 629 OFFCURVE",
"293 636 OFFCURVE",
"316 636 CURVE SMOOTH",
"409 636 OFFCURVE",
"449 587 OFFCURVE",
"449 500 CURVE SMOOTH",
"449 406 OFFCURVE",
"399 359 OFFCURVE",
"306 359 CURVE SMOOTH",
"269 359 OFFCURVE",
"168 362 OFFCURVE",
"168 362 CURVE",
"168 294 LINE",
"168 294 OFFCURVE",
"278 283 OFFCURVE",
"326 283 CURVE SMOOTH"
);
}
);
};
layerId = "16643525-C5DD-48EC-8E99-463BF28F5E85";
paths = (
{
closed = 1;
nodes = (
"108 -3 OFFCURVE",
"176 0 OFFCURVE",
"205 0 CURVE SMOOTH",
"338 0 LINE",
"344 67 LINE",
"224 78 LINE",
"286 25 LINE",
"281 52 OFFCURVE",
"271 131 OFFCURVE",
"271 187 CURVE SMOOTH",
"271 519 LINE SMOOTH",
"271 568 OFFCURVE",
"276 629 OFFCURVE",
"282 669 CURVE",
"179 705 LINE",
"152 705 OFFCURVE",
"96 708 OFFCURVE",
"60 710 CURVE",
"55 640 LINE",
"179 619 LINE",
"116 667 LINE",
"124 632 OFFCURVE",
"132 576 OFFCURVE",
"132 549 CURVE SMOOTH",
"132 157 LINE SMOOTH",
"132 127 OFFCURVE",
"121 56 OFFCURVE",
"116 25 CURVE",
"179 83 LINE",
"54 60 LINE",
"59 -5 LINE"
);
},
{
closed = 1;
nodes = (
"659 0 LINE",
"665 67 LINE",
"611 72 LINE",
"601 87 OFFCURVE",
"581 117 OFFCURVE",
"572 131 CURVE SMOOTH",
"567 140 OFFCURVE",
"500 243 OFFCURVE",
"450 349 CURVE",
"307 345 LINE",
"426 116 LINE SMOOTH",
"434 100 OFFCURVE",
"460 39 OFFCURVE",
"477 0 CURVE"
);
},
{
closed = 1;
nodes = (
"466 283 OFFCURVE",
"594 368 OFFCURVE",
"594 505 CURVE SMOOTH",
"594 633 OFFCURVE",
"501 710 OFFCURVE",
"363 710 CURVE SMOOTH",
"308 710 OFFCURVE",
"234 705 OFFCURVE",
"179 705 CURVE",
"179 626 LINE",
"210 629 OFFCURVE",
"293 636 OFFCURVE",
"316 636 CURVE SMOOTH",
"409 636 OFFCURVE",
"449 587 OFFCURVE",
"449 500 CURVE SMOOTH",
"449 406 OFFCURVE",
"399 359 OFFCURVE",
"306 359 CURVE SMOOTH",
"260 359 OFFCURVE",
"214 361 OFFCURVE",
"168 362 CURVE",
"168 294 LINE",
"221 289 OFFCURVE",
"274 283 OFFCURVE",
"326 283 CURVE SMOOTH"
);
}
);
width = 708;
}
);
leftKerningGroup = UC_Stem;
rightKerningGroup = UC_R;
unicode = 0052;
},
{
color = 0;
glyphname = S;
layers = (
{
anchors = (
{
name = bottom;
position = "{282, 0}";
},
{
name = top;
position = "{310, 720}";
}
);
background = {
paths = (
{
closed = 1;
nodes = (
"422 -15 OFFCURVE",
"529 49 OFFCURVE",
"529 182 CURVE SMOOTH",
"529 409 OFFCURVE",
"183 397 OFFCURVE",
"183 554 CURVE SMOOTH",
"183 628 OFFCURVE",
"235 665 OFFCURVE",
"297 665 CURVE SMOOTH",
"351 665 OFFCURVE",
"386 659 OFFCURVE",
"442 630 CURVE",
"410 670 LINE",
"417 643 OFFCURVE",
"429 600 OFFCURVE",
"429 587 CURVE",
"429 543 LINE",
"488 537 LINE",
"502 688 LINE",
"438 704 OFFCURVE",
"365 720 OFFCURVE",
"300 720 CURVE SMOOTH",
"176 720 OFFCURVE",
"83 655 OFFCURVE",
"83 535 CURVE SMOOTH",
"83 319 OFFCURVE",
"424 334 OFFCURVE",
"424 170 CURVE SMOOTH",
"424 89 OFFCURVE",
"372 45 OFFCURVE",
"292 45 CURVE SMOOTH",
"234 45 OFFCURVE",
"180 63 OFFCURVE",
"144 80 CURVE",
"167 53 LINE",
"162 68 OFFCURVE",
"151 122 OFFCURVE",
"151 138 CURVE SMOOTH",
"151 186 LINE",
"85 192 LINE",
"70 38 LINE",
"70 38 OFFCURVE",
"156 -15 OFFCURVE",
"290 -15 CURVE SMOOTH"
);
}
);
};
layerId = UUID0;
paths = (
{
closed = 1;
nodes = (
"422 -15 OFFCURVE",
"529 49 OFFCURVE",
"529 182 CURVE SMOOTH",
"529 409 OFFCURVE",
"183 397 OFFCURVE",
"183 554 CURVE SMOOTH",
"183 628 OFFCURVE",
"235 665 OFFCURVE",
"297 665 CURVE SMOOTH",
"351 665 OFFCURVE",
"386 659 OFFCURVE",
"442 630 CURVE",
"410 670 LINE",
"417 643 OFFCURVE",
"429 600 OFFCURVE",
"429 587 CURVE SMOOTH",
"429 543 LINE",
"488 537 LINE",
"502 688 LINE",
"438 704 OFFCURVE",
"365 720 OFFCURVE",
"300 720 CURVE SMOOTH",
"176 720 OFFCURVE",
"83 655 OFFCURVE",
"83 535 CURVE SMOOTH",
"83 319 OFFCURVE",
"424 334 OFFCURVE",
"424 170 CURVE SMOOTH",
"424 89 OFFCURVE",
"372 45 OFFCURVE",
"292 45 CURVE SMOOTH",
"234 45 OFFCURVE",
"180 63 OFFCURVE",
"144 80 CURVE",
"167 53 LINE",
"162 68 OFFCURVE",
"151 124 OFFCURVE",
"151 138 CURVE SMOOTH",
"151 186 LINE",
"85 192 LINE",
"70 38 LINE",
"70 38 OFFCURVE",
"156 -15 OFFCURVE",
"290 -15 CURVE SMOOTH"
);
}
);
width = 596;
},
{
anchors = (
{
name = bottom;
position = "{299, 0}";
},
{
name = top;
position = "{315, 720}";
}
);
background = {
paths = (
{
closed = 1;
nodes = (
"441 -15 OFFCURVE",
"552 63 OFFCURVE",
"552 199 CURVE SMOOTH",
"552 428 OFFCURVE",
"227 408 OFFCURVE",
"227 548 CURVE SMOOTH",
"227 604 OFFCURVE",
"270 637 OFFCURVE",
"331 637 CURVE SMOOTH",
"384 637 OFFCURVE",
"441 609 OFFCURVE",
"481 589 CURVE",
"406 659 LINE",
"417 624 OFFCURVE",
"436 574 OFFCURVE",
"436 564 CURVE SMOOTH",
"438 507 LINE",
"511 503 LINE",
"525 685 LINE",
"456 705 OFFCURVE",
"375 720 OFFCURVE",
"309 720 CURVE SMOOTH",
"176 720 OFFCURVE",
"79 646 OFFCURVE",
"79 525 CURVE SMOOTH",
"79 292 OFFCURVE",
"402 318 OFFCURVE",
"402 167 CURVE SMOOTH",
"402 104 OFFCURVE",
"354 73 OFFCURVE",
"291 73 CURVE SMOOTH",
"225 73 OFFCURVE",
"172 103 OFFCURVE",
"129 122 CURVE",
"198 50 LINE",
"196 58 OFFCURVE",
"165 135 OFFCURVE",
"165 148 CURVE SMOOTH",
"164 212 LINE",
"85 218 LINE",
"70 34 LINE",
"70 34 OFFCURVE",
"165 -15 OFFCURVE",
"300 -15 CURVE SMOOTH"
);
}
);
};
layerId = "16643525-C5DD-48EC-8E99-463BF28F5E85";
paths = (
{
closed = 1;
nodes = (
"441 -15 OFFCURVE",
"552 63 OFFCURVE",
"552 199 CURVE SMOOTH",
"552 428 OFFCURVE",
"227 408 OFFCURVE",
"227 548 CURVE SMOOTH",
"227 604 OFFCURVE",
"270 637 OFFCURVE",
"331 637 CURVE SMOOTH",
"384 637 OFFCURVE",
"441 609 OFFCURVE",
"481 589 CURVE",
"406 659 LINE",
"419 624 OFFCURVE",
"436 574 OFFCURVE",
"436 564 CURVE SMOOTH",
"438 507 LINE",
"511 503 LINE",
"525 685 LINE",
"456 705 OFFCURVE",
"375 720 OFFCURVE",
"309 720 CURVE SMOOTH",
"176 720 OFFCURVE",
"79 646 OFFCURVE",
"79 525 CURVE SMOOTH",
"79 292 OFFCURVE",
"402 318 OFFCURVE",
"402 167 CURVE SMOOTH",
"402 104 OFFCURVE",
"354 73 OFFCURVE",
"291 73 CURVE SMOOTH",
"225 73 OFFCURVE",
"172 102 OFFCURVE",
"129 122 CURVE",
"198 50 LINE",
"196 58 OFFCURVE",
"165 135 OFFCURVE",
"165 148 CURVE SMOOTH",
"164 212 LINE",
"85 218 LINE",
"70 34 LINE",
"70 34 OFFCURVE",
"165 -15 OFFCURVE",
"300 -15 CURVE SMOOTH"
);
}
);
width = 616;
}
);
leftKerningGroup = UC_S;
rightKerningGroup = UC_S;
unicode = 0053;
},
{
color = 0;
glyphname = T;
layers = (
{
anchors = (
{
name = bottom;
position = "{349, 0}";
},
{
name = center;
position = "{342, 353}";
},
{
name = top;
position = "{345, 720}";
}
);
background = {
paths = (
{
closed = 1;
nodes = (
"254 -3 OFFCURVE",
"327 0 OFFCURVE",
"351 0 CURVE SMOOTH",
"490 0 LINE",
"497 54 LINE",
"361 64 LINE",
"402 28 LINE",
"397 54 OFFCURVE",
"390 115 OFFCURVE",
"390 167 CURVE SMOOTH",
"390 538 LINE SMOOTH",
"390 590 OFFCURVE",
"398 658 OFFCURVE",
"401 677 CURVE",
"285 677 LINE",
"289 656 OFFCURVE",
"299 590 OFFCURVE",
"299 568 CURVE SMOOTH",
"299 137 LINE SMOOTH",
"299 115 OFFCURVE",
"288 46 OFFCURVE",
"285 28 CURVE",
"326 68 LINE",
"201 45 LINE",
"206 -5 LINE"
);
},
{
closed = 1;
nodes = (
"117 549 OFFCURVE",
"124 592 OFFCURVE",
"128 607 CURVE",
"162 677 LINE",
"119 643 LINE",
"139 644 OFFCURVE",
"191 649 OFFCURVE",
"227 649 CURVE SMOOTH",
"462 649 LINE SMOOTH",
"498 649 OFFCURVE",
"550 644 OFFCURVE",
"570 643 CURVE",
"527 677 LINE",
"561 607 LINE",
"565 592 OFFCURVE",
"572 549 OFFCURVE",
"574 523 CURVE",
"632 528 LINE",
"625 692 LINE",
"606 710 LINE",
"606 710 OFFCURVE",
"512 705 OFFCURVE",
"492 705 CURVE SMOOTH",
"197 705 LINE SMOOTH",
"177 705 OFFCURVE",
"83 710 OFFCURVE",
"83 710 CURVE",
"64 692 LINE",
"57 528 LINE",
"115 523 LINE"
);
}
);
};
layerId = UUID0;
paths = (
{
closed = 1;
nodes = (
"254 -3 OFFCURVE",
"327 0 OFFCURVE",
"351 0 CURVE SMOOTH",
"490 0 LINE",
"497 54 LINE",
"361 64 LINE",
"402 28 LINE",
"397 54 OFFCURVE",
"390 115 OFFCURVE",
"390 167 CURVE SMOOTH",
"390 538 LINE SMOOTH",
"390 590 OFFCURVE",
"398 658 OFFCURVE",
"401 677 CURVE",
"285 677 LINE",
"289 656 OFFCURVE",
"299 590 OFFCURVE",
"299 568 CURVE SMOOTH",
"299 137 LINE SMOOTH",
"299 115 OFFCURVE",
"288 46 OFFCURVE",
"285 28 CURVE",
"326 68 LINE",
"201 45 LINE",
"206 -5 LINE"
);
},
{
closed = 1;
nodes = (
"117 549 OFFCURVE",
"124 592 OFFCURVE",
"128 607 CURVE",
"162 677 LINE",
"119 643 LINE",
"139 644 OFFCURVE",
"191 649 OFFCURVE",
"227 649 CURVE SMOOTH",
"462 649 LINE SMOOTH",
"498 649 OFFCURVE",
"550 645 OFFCURVE",
"570 643 CURVE",
"527 677 LINE",
"561 607 LINE",
"565 592 OFFCURVE",
"572 549 OFFCURVE",
"574 523 CURVE",
"632 528 LINE",
"625 692 LINE",
"606 710 LINE",
"568 708 OFFCURVE",
"510 705 OFFCURVE",
"492 705 CURVE SMOOTH",
"197 705 LINE SMOOTH",
"179 705 OFFCURVE",
"121 708 OFFCURVE",
"83 710 CURVE",
"64 692 LINE",
"57 528 LINE",
"115 523 LINE"
);
}
);
width = 689;
},
{
anchors = (
{
name = bottom;
position = "{354, 0}";
},
{
name = center;
position = "{352, 353}";
},
{
name = top;
position = "{353, 720}";
}
);
background = {
anchors = (
{
name = bottom;
position = "{354, 0}";
},
{
name = center;
position = "{352, 353}";
},
{
name = top;
position = "{353, 720}";
}
);
paths = (
{
closed = 1;
nodes = (
"248 -3 OFFCURVE",
"332 0 OFFCURVE",
"357 0 CURVE SMOOTH",
"515 0 LINE",
"520 67 LINE",
"375 78 LINE",
"438 25 LINE",
"432 55 OFFCURVE",
"423 133 OFFCURVE",
"423 187 CURVE SMOOTH",
"423 519 LINE SMOOTH",
"423 575 OFFCURVE",
"431 629 OFFCURVE",
"438 669 CURVE",
"268 667 LINE",
"275 635 OFFCURVE",
"284 576 OFFCURVE",
"284 549 CURVE SMOOTH",
"284 157 LINE SMOOTH",
"284 129 OFFCURVE",
"273 58 OFFCURVE",
"268 25 CURVE",
"330 83 LINE",
"188 60 LINE",
"193 -5 LINE"
);
},
{
closed = 1;
nodes = (
"122 530 OFFCURVE",
"128 573 OFFCURVE",
"132 589 CURVE",
"160 679 LINE",
"105 623 LINE",
"116 624 OFFCURVE",
"176 630 OFFCURVE",
"224 630 CURVE SMOOTH",
"486 630 LINE SMOOTH",
"535 630 OFFCURVE",
"586 624 OFFCURVE",
"606 623 CURVE",
"543 678 LINE",
"577 589 LINE",
"579 574 OFFCURVE",
"585 530 OFFCURVE",
"587 511 CURVE",
"654 516 LINE",
"646 692 LINE",
"627 710 LINE",
"598 708 OFFCURVE",
"529 705 OFFCURVE",
"512 705 CURVE",
"194 705 LINE SMOOTH",
"176 705 OFFCURVE",
"118 708 OFFCURVE",
"80 710 CURVE",
"60 692 LINE",
"53 516 LINE",
"120 511 LINE"
);
}
);
};
layerId = "16643525-C5DD-48EC-8E99-463BF28F5E85";
paths = (
{
closed = 1;
nodes = (
"248 -3 OFFCURVE",
"332 0 OFFCURVE",
"357 0 CURVE SMOOTH",
"515 0 LINE",
"520 67 LINE",
"375 78 LINE",
"438 25 LINE",
"432 55 OFFCURVE",
"423 133 OFFCURVE",
"423 187 CURVE SMOOTH",
"423 519 LINE SMOOTH",
"423 575 OFFCURVE",
"431 629 OFFCURVE",
"438 669 CURVE",
"268 667 LINE",
"275 635 OFFCURVE",
"284 576 OFFCURVE",
"284 549 CURVE SMOOTH",
"284 157 LINE SMOOTH",
"284 129 OFFCURVE",
"273 58 OFFCURVE",
"268 25 CURVE",
"330 83 LINE",
"188 60 LINE",
"193 -5 LINE"
);
},
{
closed = 1;
nodes = (
"122 530 OFFCURVE",
"128 573 OFFCURVE",
"132 589 CURVE",
"160 679 LINE",
"105 623 LINE",
"116 624 OFFCURVE",
"176 630 OFFCURVE",
"224 630 CURVE SMOOTH",
"486 630 LINE SMOOTH",
"535 630 OFFCURVE",
"586 625 OFFCURVE",
"606 623 CURVE",
"543 678 LINE",
"577 589 LINE",
"579 574 OFFCURVE",
"585 530 OFFCURVE",
"587 511 CURVE",
"654 516 LINE",
"646 692 LINE",
"627 710 LINE",
"598 708 OFFCURVE",
"529 705 OFFCURVE",
"512 705 CURVE SMOOTH",
"194 705 LINE SMOOTH",
"176 705 OFFCURVE",
"118 708 OFFCURVE",
"80 710 CURVE",
"60 692 LINE",
"53 516 LINE",
"120 511 LINE"
);
}
);
width = 707;
}
);
leftKerningGroup = UC_T;
rightKerningGroup = UC_T;
unicode = 0054;
},
{
color = 0;
glyphname = Thorn;
layers = (
{
anchors = (
{
name = bottom;
position = "{307, 0}";
},
{
name = top;
position = "{307, 705}";
}
);
background = {
paths = (
{
closed = 1;
nodes = (
"201 167 OFFCURVE",
"284 167 OFFCURVE",
"312 167 CURVE SMOOTH",
"446 167 OFFCURVE",
"558 238 OFFCURVE",
"558 361 CURVE SMOOTH",
"558 490 OFFCURVE",
"473 558 OFFCURVE",
"335 558 CURVE SMOOTH",
"305 558 OFFCURVE",
"214 555 OFFCURVE",
"173 552 CURVE",
"173 502 LINE",
"198 504 OFFCURVE",
"273 507 OFFCURVE",
"292 507 CURVE SMOOTH",
"396 507 OFFCURVE",
"464 457 OFFCURVE",
"464 361 CURVE SMOOTH",
"464 266 OFFCURVE",
"395 218 OFFCURVE",
"292 218 CURVE SMOOTH",
"265 218 OFFCURVE",
"202 219 OFFCURVE",
"173 221 CURVE",
"173 168 LINE"
);
},
{
closed = 1;
nodes = (
"61 -4 OFFCURVE",
"171 1 OFFCURVE",
"196 1 CURVE",
"325 1 LINE",
"332 55 LINE",
"206 65 LINE",
"247 29 LINE",
"242 55 OFFCURVE",
"235 116 OFFCURVE",
"235 168 CURVE SMOOTH",
"235 539 LINE SMOOTH",
"235 591 OFFCURVE",
"243 659 OFFCURVE",
"246 678 CURVE",
"206 642 LINE",
"320 652 LINE",
"316 711 LINE",
"316 711 OFFCURVE",
"238 705 OFFCURVE",
"178 705 CURVE SMOOTH",
"158 705 OFFCURVE",
"63 711 OFFCURVE",
"63 711 CURVE",
"58 657 LINE",
"171 639 LINE",
"130 678 LINE",
"134 657 OFFCURVE",
"144 591 OFFCURVE",
"144 569 CURVE SMOOTH",
"144 138 LINE SMOOTH",
"144 116 OFFCURVE",
"133 47 OFFCURVE",
"130 29 CURVE",
"171 69 LINE",
"56 46 LINE",
"61 -4 LINE"
);
}
);
};
layerId = UUID0;
paths = (
{
closed = 1;
nodes = (
"61 -4 OFFCURVE",
"171 1 OFFCURVE",
"196 1 CURVE",
"325 1 LINE",
"332 55 LINE",
"206 65 LINE",
"247 29 LINE",
"242 55 OFFCURVE",
"235 116 OFFCURVE",
"235 167 CURVE SMOOTH",
"235 539 LINE SMOOTH",
"235 591 OFFCURVE",
"243 659 OFFCURVE",
"246 678 CURVE",
"206 642 LINE",
"320 652 LINE",
"316 711 LINE",
"275 708 OFFCURVE",
"238 705 OFFCURVE",
"178 705 CURVE SMOOTH",
"158 705 OFFCURVE",
"100 708 OFFCURVE",
"63 710 CURVE",
"58 656 LINE",
"173 639 LINE",
"130 678 LINE",
"134 657 OFFCURVE",
"144 591 OFFCURVE",
"144 569 CURVE SMOOTH",
"144 138 LINE SMOOTH",
"144 116 OFFCURVE",
"133 47 OFFCURVE",
"130 29 CURVE",
"171 69 LINE",
"56 46 LINE",
"61 -4 LINE"
);
},
{
closed = 1;
nodes = (
"201 167 OFFCURVE",
"284 167 OFFCURVE",
"312 167 CURVE SMOOTH",
"446 167 OFFCURVE",
"558 238 OFFCURVE",
"558 361 CURVE SMOOTH",
"558 490 OFFCURVE",
"473 558 OFFCURVE",
"335 558 CURVE SMOOTH",
"305 558 OFFCURVE",
"214 555 OFFCURVE",
"173 552 CURVE",
"173 502 LINE",
"198 504 OFFCURVE",
"273 507 OFFCURVE",
"292 507 CURVE SMOOTH",
"396 507 OFFCURVE",
"464 457 OFFCURVE",
"464 361 CURVE SMOOTH",
"464 266 OFFCURVE",
"395 218 OFFCURVE",
"292 218 CURVE SMOOTH",
"265 218 OFFCURVE",
"202 219 OFFCURVE",
"173 221 CURVE",
"173 167 LINE"
);
}
);
width = 615;
},
{
anchors = (
{
name = bottom;
position = "{321, 0}";
},
{
name = top;
position = "{321, 705}";
}
);
background = {
paths = (
{
closed = 1;
nodes = (
"237 162 OFFCURVE",
"318 163 OFFCURVE",
"342 163 CURVE SMOOTH",
"478 163 OFFCURVE",
"591 234 OFFCURVE",
"591 358 CURVE SMOOTH",
"591 480 OFFCURVE",
"498 554 OFFCURVE",
"359 554 CURVE SMOOTH",
"338 554 OFFCURVE",
"249 552 OFFCURVE",
"209 549 CURVE",
"209 478 LINE",
"226 478 OFFCURVE",
"296 479 OFFCURVE",
"305 479 CURVE SMOOTH",
"400 479 OFFCURVE",
"447 438 OFFCURVE",
"447 358 CURVE SMOOTH",
"447 279 OFFCURVE",
"385 238 OFFCURVE",
"293 238 CURVE SMOOTH",
"284 238 OFFCURVE",
"222 238 OFFCURVE",
"209 237 CURVE",
"209 162 LINE"
);
},
{
closed = 1;
nodes = (
"59 -5 OFFCURVE",
"177 0 OFFCURVE",
"205 0 CURVE",
"346 0 LINE",
"351 67 LINE",
"224 78 LINE",
"286 25 LINE",
"281 52 OFFCURVE",
"271 131 OFFCURVE",
"271 187 CURVE SMOOTH",
"271 519 LINE SMOOTH",
"271 569 OFFCURVE",
"279 629 OFFCURVE",
"286 669 CURVE",
"224 623 LINE",
"349 635 LINE",
"344 710 LINE",
"344 710 OFFCURVE",
"254 705 OFFCURVE",
"179 705 CURVE SMOOTH",
"152 705 OFFCURVE",
"60 710 OFFCURVE",
"60 710 CURVE",
"55 640 LINE",
"179 619 LINE",
"116 667 LINE",
"124 632 OFFCURVE",
"132 576 OFFCURVE",
"132 549 CURVE SMOOTH",
"132 157 LINE SMOOTH",
"132 127 OFFCURVE",
"121 56 OFFCURVE",
"116 25 CURVE",
"179 83 LINE",
"54 60 LINE",
"59 -5 LINE"
);
}
);
};
layerId = "16643525-C5DD-48EC-8E99-463BF28F5E85";
paths = (
{
closed = 1;
nodes = (
"108 -2 OFFCURVE",
"156 0 OFFCURVE",
"205 0 CURVE SMOOTH",
"346 0 LINE",
"351 67 LINE",
"224 78 LINE",
"286 25 LINE",
"281 52 OFFCURVE",
"271 131 OFFCURVE",
"271 187 CURVE SMOOTH",
"271 519 LINE SMOOTH",
"271 569 OFFCURVE",
"279 629 OFFCURVE",
"286 669 CURVE",
"224 623 LINE",
"349 635 LINE",
"344 710 LINE",
"289 707 OFFCURVE",
"234 705 OFFCURVE",
"179 705 CURVE SMOOTH",
"152 705 OFFCURVE",
"96 708 OFFCURVE",
"60 710 CURVE",
"55 640 LINE",
"179 619 LINE",
"116 667 LINE",
"124 632 OFFCURVE",
"132 576 OFFCURVE",
"132 549 CURVE SMOOTH",
"132 157 LINE SMOOTH",
"132 127 OFFCURVE",
"121 56 OFFCURVE",
"116 25 CURVE",
"179 83 LINE",
"54 60 LINE",
"59 -5 LINE"
);
},
{
closed = 1;
nodes = (
"237 162 OFFCURVE",
"318 163 OFFCURVE",
"342 163 CURVE SMOOTH",
"478 163 OFFCURVE",
"591 234 OFFCURVE",
"591 358 CURVE SMOOTH",
"591 480 OFFCURVE",
"498 554 OFFCURVE",
"359 554 CURVE SMOOTH",
"338 554 OFFCURVE",
"249 552 OFFCURVE",
"209 549 CURVE",
"209 478 LINE",
"226 478 OFFCURVE",
"296 479 OFFCURVE",
"305 479 CURVE SMOOTH",
"400 479 OFFCURVE",
"447 438 OFFCURVE",
"447 358 CURVE SMOOTH",
"447 279 OFFCURVE",
"385 238 OFFCURVE",
"293 238 CURVE SMOOTH",
"284 238 OFFCURVE",
"222 238 OFFCURVE",
"209 237 CURVE",
"209 162 LINE"
);
}
);
width = 642;
}
);
leftKerningGroup = UC_Stem;
rightKerningGroup = UC_Thorn;
unicode = 00DE;
},
{
color = 0;
glyphname = U;
layers = (
{
anchors = (
{
name = bottom;
position = "{399, 0}";
},
{
name = horn;
position = "{621, 460}";
},
{
name = ogonek;
position = "{491, 0}";
},
{
name = top;
position = "{394, 720}";
}
);
background = {
paths = (
{
closed = 1;
nodes = (
"51 710 CURVE",
"46 656 LINE",
"125 644 LINE",
"127 629 OFFCURVE",
"134 580 OFFCURVE",
"134 563 CURVE SMOOTH",
"134 266 LINE SMOOTH",
"134 95 OFFCURVE",
"221 -15 OFFCURVE",
"392 -15 CURVE SMOOTH",
"563 -15 OFFCURVE",
"651 95 OFFCURVE",
"651 266 CURVE SMOOTH",
"651 533 LINE SMOOTH",
"651 576 OFFCURVE",
"656 629 OFFCURVE",
"658 644 CURVE",
"737 651 LINE",
"733 710 LINE",
"733 710 OFFCURVE",
"651 705 OFFCURVE",
"601 705 CURVE SMOOTH",
"581 705 OFFCURVE",
"496 710 OFFCURVE",
"496 710 CURVE",
"491 656 LINE",
"569 644 LINE",
"571 630 OFFCURVE",
"579 580 OFFCURVE",
"579 563 CURVE SMOOTH",
"579 266 LINE SMOOTH",
"579 140 OFFCURVE",
"521 49 OFFCURVE",
"401 49 CURVE SMOOTH",
"286 49 OFFCURVE",
"229 139 OFFCURVE",
"229 266 CURVE SMOOTH",
"229 533 LINE SMOOTH",
"229 576 OFFCURVE",
"234 629 OFFCURVE",
"236 644 CURVE",
"315 651 LINE",
"311 710 LINE",
"311 710 OFFCURVE",
"226 705 OFFCURVE",
"166 705 CURVE SMOOTH",
"146 705 OFFCURVE",
"51 710 OFFCURVE"
);
}
);
};
layerId = UUID0;
paths = (
{
closed = 1;
nodes = (
"563 -15 OFFCURVE",
"651 95 OFFCURVE",
"651 266 CURVE SMOOTH",
"651 533 LINE SMOOTH",
"651 585 OFFCURVE",
"659 657 OFFCURVE",
"662 682 CURVE",
"622 641 LINE",
"737 651 LINE",
"733 710 LINE",
"696 708 OFFCURVE",
"645 705 OFFCURVE",
"601 705 CURVE SMOOTH",
"581 705 OFFCURVE",
"532 708 OFFCURVE",
"496 710 CURVE",
"491 656 LINE",
"608 638 LINE",
"563 682 LINE",
"566 667 OFFCURVE",
"579 585 OFFCURVE",
"579 563 CURVE SMOOTH",
"579 266 LINE SMOOTH",
"579 140 OFFCURVE",
"521 49 OFFCURVE",
"401 49 CURVE SMOOTH",
"286 49 OFFCURVE",
"229 139 OFFCURVE",
"229 266 CURVE SMOOTH",
"229 533 LINE SMOOTH",
"229 585 OFFCURVE",
"237 657 OFFCURVE",
"240 682 CURVE",
"200 641 LINE",
"315 651 LINE",
"311 710 LINE",
"280 708 OFFCURVE",
"206 705 OFFCURVE",
"166 705 CURVE SMOOTH",
"146 705 OFFCURVE",
"88 708 OFFCURVE",
"51 710 CURVE",
"46 656 LINE",
"161 639 LINE",
"119 682 LINE",
"123 655 OFFCURVE",
"134 585 OFFCURVE",
"134 563 CURVE SMOOTH",
"134 266 LINE SMOOTH",
"134 95 OFFCURVE",
"221 -15 OFFCURVE",
"392 -15 CURVE SMOOTH"
);
}
);
width = 784;
},
{
anchors = (
{
name = bottom;
position = "{401, 0}";
},
{
name = horn;
position = "{652, 460}";
},
{
name = ogonek;
position = "{508, 0}";
},
{
name = top;
position = "{409, 720}";
}
);
background = {
paths = (
{
closed = 1;
nodes = (
"585 -15 OFFCURVE",
"682 97 OFFCURVE",
"682 268 CURVE SMOOTH",
"682 517 LINE SMOOTH",
"682 568 OFFCURVE",
"690 636 OFFCURVE",
"698 678 CURVE",
"635 623 LINE",
"760 635 LINE",
"755 710 LINE",
"755 710 OFFCURVE",
"674 705 OFFCURVE",
"602 705 CURVE SMOOTH",
"574 705 OFFCURVE",
"493 710 OFFCURVE",
"493 710 CURVE",
"488 640 LINE",
"612 619 LINE",
"549 678 LINE",
"554 643 OFFCURVE",
"565 575 OFFCURVE",
"565 547 CURVE SMOOTH",
"565 262 LINE SMOOTH",
"565 155 OFFCURVE",
"523 87 OFFCURVE",
"415 87 CURVE SMOOTH",
"315 87 OFFCURVE",
"263 163 OFFCURVE",
"263 262 CURVE SMOOTH",
"263 517 LINE SMOOTH",
"263 567 OFFCURVE",
"268 627 OFFCURVE",
"276 678 CURVE",
"214 623 LINE",
"340 635 LINE",
"335 710 LINE",
"335 710 OFFCURVE",
"242 705 OFFCURVE",
"167 705 CURVE SMOOTH",
"141 705 OFFCURVE",
"65 709 OFFCURVE",
"47 710 CURVE",
"42 640 LINE",
"166 619 LINE",
"105 678 LINE",
"108 654 OFFCURVE",
"119 577 OFFCURVE",
"119 547 CURVE SMOOTH",
"119 268 LINE SMOOTH",
"119 97 OFFCURVE",
"214 -15 OFFCURVE",
"400 -15 CURVE SMOOTH"
);
}
);
};
layerId = "16643525-C5DD-48EC-8E99-463BF28F5E85";
paths = (
{
closed = 1;
nodes = (
"585 -15 OFFCURVE",
"682 97 OFFCURVE",
"682 268 CURVE SMOOTH",
"682 517 LINE SMOOTH",
"682 568 OFFCURVE",
"690 636 OFFCURVE",
"698 678 CURVE",
"635 623 LINE",
"760 635 LINE",
"755 710 LINE",
"717 708 OFFCURVE",
"670 705 OFFCURVE",
"602 705 CURVE SMOOTH",
"577 705 OFFCURVE",
"526 708 OFFCURVE",
"493 710 CURVE",
"488 640 LINE",
"612 619 LINE",
"549 678 LINE",
"554 643 OFFCURVE",
"565 575 OFFCURVE",
"565 547 CURVE SMOOTH",
"565 262 LINE SMOOTH",
"565 155 OFFCURVE",
"523 87 OFFCURVE",
"415 87 CURVE SMOOTH",
"315 87 OFFCURVE",
"263 163 OFFCURVE",
"263 262 CURVE SMOOTH",
"263 517 LINE SMOOTH",
"263 567 OFFCURVE",
"268 627 OFFCURVE",
"276 678 CURVE",
"214 623 LINE",
"340 635 LINE",
"335 710 LINE",
"312 709 OFFCURVE",
"242 705 OFFCURVE",
"167 705 CURVE SMOOTH",
"140 705 OFFCURVE",
"84 708 OFFCURVE",
"48 710 CURVE",
"43 640 LINE",
"166 619 LINE",
"105 678 LINE",
"108 654 OFFCURVE",
"119 577 OFFCURVE",
"119 547 CURVE SMOOTH",
"119 268 LINE SMOOTH",
"119 97 OFFCURVE",
"214 -15 OFFCURVE",
"400 -15 CURVE SMOOTH"
);
}
);
width = 803;
}
);
leftKerningGroup = UC_U;
rightKerningGroup = UC_U;
unicode = 0055;
},
{
color = 0;
glyphname = V;
layers = (
{
anchors = (
{
name = bottom;
position = "{387, 0}";
},
{
name = top;
position = "{387, 720}";
}
);
background = {
paths = (
{
closed = 1;
nodes = (
"431 0 LINE",
"621 545 LINE SMOOTH",
"643 608 OFFCURVE",
"671 651 OFFCURVE",
"683 670 CURVE",
"631 640 LINE",
"726 651 LINE",
"722 710 LINE",
"674 707 OFFCURVE",
"626 705 OFFCURVE",
"578 705 CURVE SMOOTH",
"558 705 OFFCURVE",
"488 710 OFFCURVE",
"488 710 CURVE",
"483 656 LINE",
"599 636 LINE",
"571 675 LINE",
"570 654 OFFCURVE",
"567 605 OFFCURVE",
"558 578 CURVE SMOOTH",
"397 114 LINE",
"422 114 LINE",
"262 533 LINE SMOOTH",
"243 582 OFFCURVE",
"230 644 OFFCURVE",
"227 670 CURVE",
"196 636 LINE",
"311 651 LINE",
"307 710 LINE",
"260 707 OFFCURVE",
"213 705 OFFCURVE",
"166 705 CURVE SMOOTH",
"146 705 OFFCURVE",
"51 710 OFFCURVE",
"51 710 CURVE",
"46 656 LINE",
"148 633 LINE",
"97 666 LINE",
"106 651 OFFCURVE",
"137 602 OFFCURVE",
"155 556 CURVE SMOOTH",
"370 0 LINE"
);
}
);
};
layerId = UUID0;
paths = (
{
closed = 1;
nodes = (
"431 0 LINE",
"621 545 LINE SMOOTH",
"643 608 OFFCURVE",
"671 651 OFFCURVE",
"683 670 CURVE",
"631 640 LINE",
"726 651 LINE",
"722 710 LINE",
"674 707 OFFCURVE",
"626 705 OFFCURVE",
"578 705 CURVE SMOOTH",
"563 705 OFFCURVE",
"528 707 OFFCURVE",
"488 710 CURVE",
"483 656 LINE",
"599 636 LINE",
"571 675 LINE",
"570 654 OFFCURVE",
"567 605 OFFCURVE",
"558 578 CURVE SMOOTH",
"397 114 LINE",
"422 114 LINE",
"262 533 LINE SMOOTH",
"243 582 OFFCURVE",
"230 644 OFFCURVE",
"227 670 CURVE",
"196 636 LINE",
"311 651 LINE",
"307 710 LINE",
"260 707 OFFCURVE",
"213 705 OFFCURVE",
"166 705 CURVE SMOOTH",
"146 705 OFFCURVE",
"88 708 OFFCURVE",
"51 710 CURVE",
"46 656 LINE",
"148 633 LINE",
"97 666 LINE",
"106 651 OFFCURVE",
"137 602 OFFCURVE",
"155 556 CURVE SMOOTH",
"370 0 LINE"
);
}
);
width = 773;
},
{
anchors = (
{
name = bottom;
position = "{379, 0}";
},
{
name = top;
position = "{379, 720}";
}
);
background = {
paths = (
{
closed = 1;
nodes = (
"430 0 LINE",
"619 520 LINE SMOOTH",
"636 566 OFFCURVE",
"676 638 OFFCURVE",
"690 660 CURVE",
"615 624 LINE",
"715 635 LINE",
"710 710 LINE",
"665 707 OFFCURVE",
"609 705 OFFCURVE",
"574 705 CURVE SMOOTH",
"546 705 OFFCURVE",
"497 707 OFFCURVE",
"459 710 CURVE",
"454 640 LINE",
"588 617 LINE",
"538 658 LINE",
"536 636 OFFCURVE",
"522 575 OFFCURVE",
"514 551 CURVE SMOOTH",
"375 139 LINE",
"411 139 LINE",
"284 517 LINE SMOOTH",
"273 550 OFFCURVE",
"251 634 OFFCURVE",
"249 664 CURVE",
"199 623 LINE",
"342 635 LINE",
"337 710 LINE",
"277 707 OFFCURVE",
"207 705 OFFCURVE",
"157 705 CURVE SMOOTH",
"131 705 OFFCURVE",
"84 707 OFFCURVE",
"48 710 CURVE",
"43 640 LINE",
"145 615 LINE",
"73 656 LINE",
"85 639 OFFCURVE",
"112 587 OFFCURVE",
"126 550 CURVE SMOOTH",
"329 0 LINE"
);
}
);
};
layerId = "16643525-C5DD-48EC-8E99-463BF28F5E85";
paths = (
{
closed = 1;
nodes = (
"430 0 LINE",
"619 520 LINE SMOOTH",
"636 566 OFFCURVE",
"676 638 OFFCURVE",
"690 660 CURVE",
"615 624 LINE",
"715 635 LINE",
"710 710 LINE",
"665 707 OFFCURVE",
"609 705 OFFCURVE",
"574 705 CURVE SMOOTH",
"548 705 OFFCURVE",
"494 708 OFFCURVE",
"459 710 CURVE",
"454 640 LINE",
"578 619 LINE",
"538 658 LINE",
"536 636 OFFCURVE",
"522 575 OFFCURVE",
"514 551 CURVE SMOOTH",
"375 139 LINE",
"411 139 LINE",
"284 517 LINE SMOOTH",
"273 550 OFFCURVE",
"251 634 OFFCURVE",
"249 664 CURVE",
"199 623 LINE",
"342 635 LINE",
"337 710 LINE",
"277 707 OFFCURVE",
"207 705 OFFCURVE",
"157 705 CURVE SMOOTH",
"132 705 OFFCURVE",
"81 707 OFFCURVE",
"48 710 CURVE",
"43 640 LINE",
"145 615 LINE",
"73 656 LINE",
"85 639 OFFCURVE",
"112 587 OFFCURVE",
"126 550 CURVE SMOOTH",
"329 0 LINE"
);
}
);
width = 758;
}
);
leftKerningGroup = UC_V;
rightKerningGroup = UC_V;
unicode = 0056;
},
{
color = 0;
glyphname = W;
layers = (
{
anchors = (
{
name = bottom;
position = "{551, 0}";
},
{
name = top;
position = "{551, 705}";
}
);
background = {
paths = (
{
closed = 1;
nodes = (
"1055 651 LINE",
"1051 710 LINE",
"1051 710 OFFCURVE",
"957 705 OFFCURVE",
"907 705 CURVE SMOOTH",
"887 705 OFFCURVE",
"817 710 OFFCURVE",
"817 710 CURVE",
"812 656 LINE",
"888 641 LINE",
"888 641 OFFCURVE",
"884 604 OFFCURVE",
"877 578 CURVE",
"754 148 LINE",
"585 685 LINE",
"532 685 LINE",
"374 148 LINE",
"259 533 LINE",
"244 584 OFFCURVE",
"232 641 OFFCURVE",
"232 641 CURVE",
"311 651 LINE",
"307 710 LINE",
"307 710 OFFCURVE",
"226 705 OFFCURVE",
"166 705 CURVE SMOOTH",
"146 705 OFFCURVE",
"51 710 OFFCURVE",
"51 710 CURVE",
"46 656 LINE",
"112 641 LINE",
"112 641 OFFCURVE",
"138 598 OFFCURVE",
"152 556 CURVE",
"335 0 LINE",
"396 0 LINE",
"548 506 LINE",
"715 0 LINE",
"776 0 LINE",
"940 545 LINE",
"952 584 OFFCURVE",
"986 644 OFFCURVE",
"986 644 CURVE"
);
}
);
};
layerId = UUID0;
paths = (
{
closed = 1;
nodes = (
"396 0 LINE",
"558 541 LINE",
"537 541 LINE",
"715 0 LINE",
"776 0 LINE",
"940 545 LINE",
"955 593 OFFCURVE",
"987 646 OFFCURVE",
"1004 674 CURVE",
"950 640 LINE",
"1055 651 LINE",
"1051 710 LINE",
"1014 708 OFFCURVE",
"957 705 OFFCURVE",
"907 705 CURVE SMOOTH",
"887 705 OFFCURVE",
"854 707 OFFCURVE",
"817 710 CURVE",
"812 656 LINE",
"924 634 LINE",
"890 667 LINE",
"890 652 OFFCURVE",
"887 614 OFFCURVE",
"877 578 CURVE",
"744 113 LINE",
"765 113 LINE",
"585 685 LINE",
"532 685 LINE",
"364 113 LINE",
"384 113 LINE",
"259 533 LINE",
"241 594 OFFCURVE",
"232 635 OFFCURVE",
"229 665 CURVE",
"196 636 LINE",
"311 651 LINE",
"307 710 LINE",
"269 708 OFFCURVE",
"213 705 OFFCURVE",
"166 705 CURVE SMOOTH",
"146 705 OFFCURVE",
"88 708 OFFCURVE",
"51 710 CURVE",
"46 656 LINE",
"148 633 LINE",
"95 669 LINE",
"106 652 OFFCURVE",
"134 609 OFFCURVE",
"152 556 CURVE",
"335 0 LINE"
);
}
);
width = 1102;
},
{
anchors = (
{
name = bottom;
position = "{539, 0}";
},
{
name = top;
position = "{539, 705}";
}
);
background = {
paths = (
{
closed = 1;
nodes = (
"399 0 LINE",
"554 498 LINE",
"521 498 LINE",
"675 0 LINE",
"777 0 LINE",
"940 520 LINE SMOOTH",
"954 565 OFFCURVE",
"992 639 OFFCURVE",
"1013 665 CURVE",
"933 624 LINE",
"1034 635 LINE",
"1030 710 LINE",
"994 708 OFFCURVE",
"929 705 OFFCURVE",
"893 705 CURVE SMOOTH",
"868 705 OFFCURVE",
"813 708 OFFCURVE",
"788 710 CURVE",
"783 640 LINE",
"908 618 LINE",
"856 669 LINE",
"858 644 OFFCURVE",
"843 575 OFFCURVE",
"837 552 CURVE SMOOTH",
"725 138 LINE",
"755 138 LINE",
"599 678 LINE",
"501 678 LINE",
"347 138 LINE",
"376 138 LINE",
"277 517 LINE SMOOTH",
"266 559 OFFCURVE",
"251 636 OFFCURVE",
"249 667 CURVE",
"199 623 LINE",
"332 635 LINE",
"327 710 LINE",
"281 708 OFFCURVE",
"204 705 OFFCURVE",
"158 705 CURVE SMOOTH",
"131 705 OFFCURVE",
"75 708 OFFCURVE",
"48 710 CURVE",
"43 640 LINE",
"143 616 LINE",
"69 670 LINE",
"106 591 OFFCURVE",
"113 572 OFFCURVE",
"122 546 CURVE SMOOTH",
"297 0 LINE"
);
}
);
};
layerId = "16643525-C5DD-48EC-8E99-463BF28F5E85";
paths = (
{
closed = 1;
nodes = (
"399 0 LINE",
"554 498 LINE",
"521 498 LINE",
"675 0 LINE",
"777 0 LINE",
"940 520 LINE SMOOTH",
"954 565 OFFCURVE",
"992 639 OFFCURVE",
"1013 665 CURVE",
"933 624 LINE",
"1034 635 LINE",
"1030 710 LINE",
"994 708 OFFCURVE",
"929 705 OFFCURVE",
"893 705 CURVE SMOOTH",
"869 705 OFFCURVE",
"820 708 OFFCURVE",
"788 710 CURVE",
"783 640 LINE",
"907 619 LINE",
"856 669 LINE",
"858 644 OFFCURVE",
"843 575 OFFCURVE",
"837 552 CURVE SMOOTH",
"725 138 LINE",
"755 138 LINE",
"599 678 LINE",
"501 678 LINE",
"347 138 LINE",
"376 138 LINE",
"277 517 LINE SMOOTH",
"266 559 OFFCURVE",
"251 636 OFFCURVE",
"249 667 CURVE",
"199 623 LINE",
"332 635 LINE",
"327 710 LINE",
"281 708 OFFCURVE",
"204 705 OFFCURVE",
"158 705 CURVE SMOOTH",
"133 705 OFFCURVE",
"81 708 OFFCURVE",
"48 710 CURVE",
"43 640 LINE",
"143 616 LINE",
"69 670 LINE",
"106 591 OFFCURVE",
"113 572 OFFCURVE",
"122 546 CURVE SMOOTH",
"297 0 LINE"
);
}
);
width = 1077;
}
);
leftKerningGroup = UC_V;
rightKerningGroup = UC_V;
unicode = 0057;
},
{
color = 0;
glyphname = X;
layers = (
{
anchors = (
{
name = bottom;
position = "{398, 0}";
},
{
name = top;
position = "{398, 705}";
}
);
background = {
paths = (
{
closed = 1;
nodes = (
"57 -5 OFFCURVE",
"177 0 OFFCURVE",
"202 0 CURVE",
"298 0 LINE",
"303 54 LINE",
"194 69 LINE",
"221 45 LINE",
"232 67 OFFCURVE",
"251 112 OFFCURVE",
"265 132 CURVE SMOOTH",
"399 331 LINE",
"358 331 LINE",
"492 142 LINE",
"510 119 OFFCURVE",
"535 69 OFFCURVE",
"545 43 CURVE",
"572 72 LINE",
"471 44 LINE",
"475 -5 LINE",
"475 -5 OFFCURVE",
"597 0 OFFCURVE",
"628 0 CURVE",
"739 0 LINE",
"744 54 LINE",
"632 69 LINE",
"683 49 LINE",
"662 69 OFFCURVE",
"623 112 OFFCURVE",
"607 132 CURVE",
"417 398 LINE",
"418 337 LINE",
"567 569 LINE",
"585 592 OFFCURVE",
"644 639 OFFCURVE",
"659 656 CURVE",
"611 640 LINE",
"716 651 LINE",
"712 710 LINE",
"712 710 OFFCURVE",
"608 705 OFFCURVE",
"558 705 CURVE SMOOTH",
"538 705 OFFCURVE",
"458 710 OFFCURVE",
"458 710 CURVE",
"453 656 LINE",
"565 634 LINE",
"539 662 LINE",
"527 638 OFFCURVE",
"508 598 OFFCURVE",
"496 578 CURVE SMOOTH",
"380 391 LINE",
"420 392 LINE",
"304 555 LINE",
"286 579 OFFCURVE",
"264 640 OFFCURVE",
"257 655 CURVE",
"227 636 LINE",
"342 651 LINE",
"338 710 LINE",
"338 710 OFFCURVE",
"249 705 OFFCURVE",
"189 705 CURVE SMOOTH",
"169 705 OFFCURVE",
"74 710 OFFCURVE",
"74 710 CURVE",
"69 656 LINE",
"171 633 LINE",
"126 653 LINE",
"137 639 OFFCURVE",
"180 583 OFFCURVE",
"197 558 CURVE SMOOTH",
"362 325 LINE",
"362 385 LINE",
"210 164 LINE SMOOTH",
"190 135 OFFCURVE",
"118 64 OFFCURVE",
"106 51 CURVE",
"151 70 LINE",
"53 44 LINE",
"57 -5 LINE"
);
}
);
};
layerId = UUID0;
paths = (
{
closed = 1;
nodes = (
"105 -3 OFFCURVE",
"174 0 OFFCURVE",
"202 0 CURVE SMOOTH",
"298 0 LINE",
"303 54 LINE",
"194 69 LINE",
"221 45 LINE",
"232 67 OFFCURVE",
"251 112 OFFCURVE",
"265 132 CURVE SMOOTH",
"399 331 LINE",
"358 331 LINE",
"492 142 LINE SMOOTH",
"510 117 OFFCURVE",
"535 69 OFFCURVE",
"545 43 CURVE",
"572 72 LINE",
"471 44 LINE",
"475 -5 LINE",
"526 -3 OFFCURVE",
"597 0 OFFCURVE",
"628 0 CURVE SMOOTH",
"739 0 LINE",
"744 54 LINE",
"632 69 LINE",
"683 49 LINE",
"662 69 OFFCURVE",
"619 115 OFFCURVE",
"607 132 CURVE SMOOTH",
"417 398 LINE",
"418 337 LINE",
"567 569 LINE SMOOTH",
"577 585 OFFCURVE",
"652 649 OFFCURVE",
"673 666 CURVE",
"611 640 LINE",
"716 651 LINE",
"712 710 LINE",
"661 708 OFFCURVE",
"599 705 OFFCURVE",
"558 705 CURVE SMOOTH",
"538 705 OFFCURVE",
"491 708 OFFCURVE",
"458 710 CURVE",
"453 656 LINE",
"565 634 LINE",
"539 662 LINE",
"527 638 OFFCURVE",
"508 598 OFFCURVE",
"496 578 CURVE SMOOTH",
"380 391 LINE",
"420 392 LINE",
"304 555 LINE SMOOTH",
"287 579 OFFCURVE",
"264 640 OFFCURVE",
"257 655 CURVE",
"227 636 LINE",
"342 651 LINE",
"338 710 LINE",
"288 708 OFFCURVE",
"229 705 OFFCURVE",
"189 705 CURVE SMOOTH",
"169 705 OFFCURVE",
"111 708 OFFCURVE",
"74 710 CURVE",
"69 656 LINE",
"171 633 LINE",
"126 653 LINE",
"137 639 OFFCURVE",
"180 583 OFFCURVE",
"197 558 CURVE SMOOTH",
"362 325 LINE",
"362 385 LINE",
"210 164 LINE SMOOTH",
"190 135 OFFCURVE",
"118 64 OFFCURVE",
"106 51 CURVE",
"151 70 LINE",
"53 44 LINE",
"57 -5 LINE"
);
}
);
width = 796;
},
{
anchors = (
{
name = bottom;
position = "{398, 0}";
},
{
name = top;
position = "{398, 705}";
}
);
background = {
paths = (
{
closed = 1;
nodes = (
"57 -5 OFFCURVE",
"169 0 OFFCURVE",
"198 0 CURVE",
"301 0 LINE",
"306 67 LINE",
"197 80 LINE",
"239 41 LINE",
"248 65 OFFCURVE",
"273 112 OFFCURVE",
"285 132 CURVE SMOOTH",
"406 312 LINE",
"343 312 LINE",
"462 142 LINE SMOOTH",
"479 118 OFFCURVE",
"507 60 OFFCURVE",
"516 41 CURVE",
"558 80 LINE",
"457 60 LINE",
"462 -5 LINE",
"462 -5 OFFCURVE",
"598 0 OFFCURVE",
"636 0 CURVE",
"740 0 LINE",
"745 67 LINE",
"633 84 LINE",
"716 45 LINE",
"681 78 OFFCURVE",
"655 108 OFFCURVE",
"637 132 CURVE SMOOTH",
"432 421 LINE",
"434 328 LINE",
"591 568 LINE SMOOTH",
"606 591 OFFCURVE",
"653 628 OFFCURVE",
"684 654 CURVE",
"599 623 LINE",
"721 635 LINE",
"716 710 LINE",
"716 710 OFFCURVE",
"632 705 OFFCURVE",
"568 705 CURVE SMOOTH",
"548 705 OFFCURVE",
"467 710 OFFCURVE",
"467 710 CURVE",
"462 640 LINE",
"565 619 LINE",
"529 673 LINE",
"512 634 OFFCURVE",
"494 599 OFFCURVE",
"482 578 CURVE SMOOTH",
"377 410 LINE",
"438 410 LINE",
"340 555 LINE SMOOTH",
"322 581 OFFCURVE",
"293 637 OFFCURVE",
"290 656 CURVE",
"243 623 LINE",
"352 635 LINE",
"347 710 LINE",
"347 710 OFFCURVE",
"257 705 OFFCURVE",
"183 705 CURVE SMOOTH",
"163 705 OFFCURVE",
"64 710 OFFCURVE",
"64 710 CURVE",
"59 640 LINE",
"172 619 LINE",
"91 655 LINE",
"110 632 OFFCURVE",
"152 584 OFFCURVE",
"170 558 CURVE SMOOTH",
"351 300 LINE",
"351 393 LINE",
"192 164 LINE SMOOTH",
"172 135 OFFCURVE",
"107 71 OFFCURVE",
"89 52 CURVE",
"163 81 LINE",
"52 60 LINE",
"57 -5 LINE"
);
}
);
};
layerId = "16643525-C5DD-48EC-8E99-463BF28F5E85";
paths = (
{
closed = 1;
nodes = (
"104 -3 OFFCURVE",
"171 0 OFFCURVE",
"198 0 CURVE SMOOTH",
"301 0 LINE",
"306 67 LINE",
"197 80 LINE",
"239 41 LINE",
"248 65 OFFCURVE",
"273 112 OFFCURVE",
"285 132 CURVE SMOOTH",
"406 312 LINE",
"343 312 LINE",
"462 142 LINE SMOOTH",
"479 118 OFFCURVE",
"507 60 OFFCURVE",
"516 41 CURVE",
"558 80 LINE",
"457 60 LINE",
"462 -5 LINE",
"520 -3 OFFCURVE",
"598 0 OFFCURVE",
"636 0 CURVE SMOOTH",
"740 0 LINE",
"745 67 LINE",
"633 84 LINE",
"716 45 LINE",
"681 78 OFFCURVE",
"655 108 OFFCURVE",
"637 132 CURVE SMOOTH",
"432 421 LINE",
"434 328 LINE",
"591 568 LINE SMOOTH",
"601 583 OFFCURVE",
"653 628 OFFCURVE",
"684 654 CURVE",
"599 623 LINE",
"721 635 LINE",
"716 710 LINE",
"667 708 OFFCURVE",
"607 705 OFFCURVE",
"568 705 CURVE SMOOTH",
"544 705 OFFCURVE",
"501 708 OFFCURVE",
"467 710 CURVE",
"462 640 LINE",
"565 619 LINE",
"529 673 LINE",
"512 634 OFFCURVE",
"494 599 OFFCURVE",
"482 578 CURVE SMOOTH",
"377 410 LINE",
"438 410 LINE",
"340 555 LINE SMOOTH",
"322 581 OFFCURVE",
"293 637 OFFCURVE",
"290 656 CURVE",
"243 623 LINE",
"352 635 LINE",
"347 710 LINE",
"292 708 OFFCURVE",
"228 705 OFFCURVE",
"183 705 CURVE SMOOTH",
"153 705 OFFCURVE",
"104 708 OFFCURVE",
"64 710 CURVE",
"59 640 LINE",
"172 619 LINE",
"91 655 LINE",
"110 632 OFFCURVE",
"152 584 OFFCURVE",
"170 558 CURVE SMOOTH",
"351 300 LINE",
"351 393 LINE",
"192 164 LINE SMOOTH",
"172 135 OFFCURVE",
"107 71 OFFCURVE",
"89 52 CURVE",
"163 81 LINE",
"52 60 LINE",
"57 -5 LINE"
);
}
);
width = 795;
}
);
leftKerningGroup = UC_X;
rightKerningGroup = UC_K;
unicode = 0058;
},
{
color = 0;
glyphname = Y;
layers = (
{
anchors = (
{
name = bottom;
position = "{363, 0}";
},
{
name = top;
position = "{372, 720}";
}
);
background = {
paths = (
{
closed = 1;
nodes = (
"395 236 LINE",
"554 545 LINE",
"587 608 OFFCURVE",
"623 653 OFFCURVE",
"636 667 CURVE",
"581 640 LINE",
"686 651 LINE",
"682 710 LINE",
"682 710 OFFCURVE",
"588 705 OFFCURVE",
"538 705 CURVE SMOOTH",
"518 705 OFFCURVE",
"448 710 OFFCURVE",
"448 710 CURVE",
"443 656 LINE",
"554 634 LINE",
"533 675 LINE",
"530 665 OFFCURVE",
"506 609 OFFCURVE",
"491 578 CURVE",
"360 311 LINE",
"393 312 LINE",
"275 533 LINE",
"236 604 OFFCURVE",
"226 653 OFFCURVE",
"226 667 CURVE",
"196 636 LINE",
"311 651 LINE",
"307 710 LINE",
"307 710 OFFCURVE",
"226 705 OFFCURVE",
"166 705 CURVE SMOOTH",
"146 705 OFFCURVE",
"51 710 OFFCURVE",
"51 710 CURVE",
"46 656 LINE",
"148 633 LINE",
"93 667 LINE",
"104 653 OFFCURVE",
"142 607 OFFCURVE",
"168 556 CURVE SMOOTH",
"334 236 LINE"
);
},
{
closed = 1;
nodes = (
"240 -5 OFFCURVE",
"350 0 OFFCURVE",
"375 0 CURVE",
"504 0 LINE",
"511 54 LINE",
"385 64 LINE",
"426 28 LINE",
"421 54 OFFCURVE",
"414 115 OFFCURVE",
"414 167 CURVE SMOOTH",
"414 320 LINE",
"323 320 LINE",
"323 137 LINE SMOOTH",
"323 115 OFFCURVE",
"312 46 OFFCURVE",
"309 28 CURVE",
"350 68 LINE",
"235 45 LINE",
"240 -5 LINE"
);
}
);
};
layerId = UUID0;
paths = (
{
closed = 1;
nodes = (
"395 236 LINE",
"554 545 LINE SMOOTH",
"587 608 OFFCURVE",
"623 653 OFFCURVE",
"636 667 CURVE",
"581 640 LINE",
"686 651 LINE",
"682 710 LINE",
"662 709 OFFCURVE",
"598 705 OFFCURVE",
"538 705 CURVE SMOOTH",
"518 705 OFFCURVE",
"479 708 OFFCURVE",
"448 710 CURVE",
"443 656 LINE",
"554 634 LINE",
"533 675 LINE",
"530 665 OFFCURVE",
"506 609 OFFCURVE",
"491 578 CURVE SMOOTH",
"360 311 LINE",
"393 312 LINE",
"275 533 LINE SMOOTH",
"236 604 OFFCURVE",
"226 653 OFFCURVE",
"226 667 CURVE",
"196 636 LINE",
"311 651 LINE",
"307 710 LINE",
"287 709 OFFCURVE",
"226 705 OFFCURVE",
"166 705 CURVE SMOOTH",
"146 705 OFFCURVE",
"88 708 OFFCURVE",
"51 710 CURVE",
"46 656 LINE",
"148 633 LINE",
"93 667 LINE",
"104 653 OFFCURVE",
"142 607 OFFCURVE",
"168 556 CURVE SMOOTH",
"334 236 LINE"
);
},
{
closed = 1;
nodes = (
"285 -3 OFFCURVE",
"360 0 OFFCURVE",
"375 0 CURVE SMOOTH",
"504 0 LINE",
"511 54 LINE",
"385 64 LINE",
"426 28 LINE",
"421 54 OFFCURVE",
"414 115 OFFCURVE",
"414 167 CURVE SMOOTH",
"414 320 LINE",
"323 320 LINE",
"323 137 LINE SMOOTH",
"323 115 OFFCURVE",
"312 46 OFFCURVE",
"309 28 CURVE",
"350 68 LINE",
"235 45 LINE",
"240 -5 LINE"
);
}
);
width = 733;
},
{
anchors = (
{
name = bottom;
position = "{383, 0}";
},
{
name = top;
position = "{390, 720}";
}
);
background = {
paths = (
{
closed = 0;
nodes = (
"164 617 LINE",
"92 652 LINE",
"108 631 OFFCURVE",
"132 603 OFFCURVE",
"149 572 CURVE SMOOTH",
"339 218 LINE",
"440 218 LINE",
"610 544 LINE SMOOTH",
"636 594 OFFCURVE",
"678 635 OFFCURVE",
"695 651 CURVE",
"616 622 LINE"
);
},
{
closed = 1;
nodes = (
"248 -5 OFFCURVE",
"365 0 OFFCURVE",
"394 0 CURVE",
"534 0 LINE",
"540 67 LINE",
"412 78 LINE",
"475 25 LINE",
"469 55 OFFCURVE",
"460 133 OFFCURVE",
"460 187 CURVE SMOOTH",
"460 308 LINE",
"321 308 LINE",
"321 157 LINE SMOOTH",
"321 129 OFFCURVE",
"310 58 OFFCURVE",
"305 25 CURVE",
"367 83 LINE",
"243 60 LINE",
"248 -5 LINE"
);
},
{
closed = 0;
nodes = (
"221 623 LINE",
"336 635 LINE",
"331 710 LINE",
"331 710 OFFCURVE",
"241 705 OFFCURVE",
"167 705 CURVE SMOOTH",
"147 705 OFFCURVE",
"48 710 OFFCURVE",
"48 710 CURVE",
"43 640 LINE",
"164 617 LINE"
);
},
{
closed = 0;
nodes = (
"584 621 LINE",
"537 671 LINE",
"533 642 OFFCURVE",
"525 608 OFFCURVE",
"515 587 CURVE SMOOTH",
"379 313 LINE",
"429 313 LINE",
"300 565 LINE SMOOTH",
"283 599 OFFCURVE",
"275 630 OFFCURVE",
"272 660 CURVE",
"221 623 LINE"
);
},
{
closed = 0;
nodes = (
"616 622 LINE",
"728 635 LINE",
"723 710 LINE",
"723 710 OFFCURVE",
"648 705 OFFCURVE",
"583 705 CURVE SMOOTH",
"556 705 OFFCURVE",
"478 710 OFFCURVE",
"478 710 CURVE",
"473 640 LINE",
"584 621 LINE"
);
}
);
};
layerId = "16643525-C5DD-48EC-8E99-463BF28F5E85";
paths = (
{
closed = 1;
nodes = (
"440 218 LINE",
"610 544 LINE SMOOTH",
"636 594 OFFCURVE",
"678 635 OFFCURVE",
"695 651 CURVE",
"610 623 LINE",
"728 635 LINE",
"723 710 LINE",
"675 708 OFFCURVE",
"617 705 OFFCURVE",
"579 705 CURVE SMOOTH",
"555 705 OFFCURVE",
"512 708 OFFCURVE",
"478 710 CURVE",
"473 640 LINE",
"576 619 LINE",
"537 671 LINE",
"533 642 OFFCURVE",
"525 608 OFFCURVE",
"515 587 CURVE SMOOTH",
"379 313 LINE",
"429 313 LINE",
"300 565 LINE SMOOTH",
"283 599 OFFCURVE",
"275 630 OFFCURVE",
"272 660 CURVE",
"227 623 LINE",
"336 635 LINE",
"331 710 LINE",
"276 708 OFFCURVE",
"212 705 OFFCURVE",
"167 705 CURVE SMOOTH",
"137 705 OFFCURVE",
"88 708 OFFCURVE",
"48 710 CURVE",
"43 640 LINE",
"156 619 LINE",
"92 652 LINE",
"108 631 OFFCURVE",
"132 603 OFFCURVE",
"149 572 CURVE SMOOTH",
"339 218 LINE"
);
},
{
closed = 1;
nodes = (
"248 -5 OFFCURVE",
"365 0 OFFCURVE",
"394 0 CURVE",
"534 0 LINE",
"540 67 LINE",
"412 78 LINE",
"475 25 LINE",
"469 55 OFFCURVE",
"460 133 OFFCURVE",
"460 187 CURVE SMOOTH",
"460 308 LINE",
"321 308 LINE",
"321 157 LINE SMOOTH",
"321 129 OFFCURVE",
"310 58 OFFCURVE",
"305 25 CURVE",
"367 83 LINE",
"243 60 LINE",
"248 -5 LINE"
);
}
);
width = 771;
}
);
leftKerningGroup = UC_V;
rightKerningGroup = UC_V;
unicode = 0059;
},
{
color = 0;
glyphname = Z;
layers = (
{
anchors = (
{
name = bottom;
position = "{317, 0}";
},
{
name = center;
position = "{317, 353}";
},
{
name = top;
position = "{317, 720}";
}
);
background = {
paths = (
{
closed = 1;
nodes = (
"552 14 LINE",
"567 175 LINE",
"512 180 LINE",
"510 164 OFFCURVE",
"501 118 OFFCURVE",
"497 103 CURVE",
"495 92 OFFCURVE",
"467 50 OFFCURVE",
"449 29 CURVE",
"522 74 LINE",
"497 70 OFFCURVE",
"429 59 OFFCURVE",
"389 59 CURVE SMOOTH",
"150 59 LINE",
"168 27 LINE",
"198 82 OFFCURVE",
"229 136 OFFCURVE",
"259 191 CURVE",
"450 494 LINE",
"486 546 OFFCURVE",
"522 597 OFFCURVE",
"558 649 CURVE",
"551 705 LINE",
"220 705 LINE",
"182 707 OFFCURVE",
"144 711 OFFCURVE",
"106 715 CURVE",
"87 697 LINE",
"80 528 LINE",
"138 523 LINE",
"140 549 OFFCURVE",
"147 592 OFFCURVE",
"151 607 CURVE",
"183 674 LINE",
"142 640 LINE",
"159 641 OFFCURVE",
"216 646 OFFCURVE",
"253 646 CURVE SMOOTH",
"472 646 LINE",
"454 678 LINE",
"425 625 OFFCURVE",
"395 573 OFFCURVE",
"366 520 CURVE",
"176 219 LINE SMOOTH",
"146 171 OFFCURVE",
"64 57 OFFCURVE",
"64 57 CURVE",
"71 0 LINE",
"419 0 LINE",
"457 -1 OFFCURVE",
"495 -2 OFFCURVE",
"533 -4 CURVE"
);
}
);
};
layerId = UUID0;
paths = (
{
closed = 1;
nodes = (
"552 14 LINE",
"567 175 LINE",
"512 180 LINE",
"510 164 OFFCURVE",
"501 112 OFFCURVE",
"497 103 CURVE SMOOTH",
"492 92 OFFCURVE",
"467 50 OFFCURVE",
"449 29 CURVE",
"522 74 LINE",
"497 70 OFFCURVE",
"429 59 OFFCURVE",
"389 59 CURVE SMOOTH",
"150 59 LINE",
"168 27 LINE",
"198 82 OFFCURVE",
"243 165 OFFCURVE",
"259 191 CURVE SMOOTH",
"450 494 LINE SMOOTH",
"484 548 OFFCURVE",
"521 597 OFFCURVE",
"558 649 CURVE",
"551 705 LINE",
"220 705 LINE",
"182 707 OFFCURVE",
"144 711 OFFCURVE",
"106 715 CURVE",
"87 697 LINE",
"80 528 LINE",
"138 523 LINE",
"140 549 OFFCURVE",
"147 599 OFFCURVE",
"151 607 CURVE SMOOTH",
"183 674 LINE",
"142 640 LINE",
"159 641 OFFCURVE",
"216 646 OFFCURVE",
"253 646 CURVE SMOOTH",
"472 646 LINE",
"454 678 LINE",
"425 625 OFFCURVE",
"398 570 OFFCURVE",
"366 520 CURVE SMOOTH",
"176 219 LINE SMOOTH",
"146 171 OFFCURVE",
"64 57 OFFCURVE",
"64 57 CURVE",
"71 0 LINE",
"419 0 LINE SMOOTH",
"457 0 OFFCURVE",
"495 -2 OFFCURVE",
"533 -4 CURVE"
);
}
);
width = 632;
},
{
anchors = (
{
name = bottom;
position = "{332, 0}";
},
{
name = center;
position = "{332, 353}";
},
{
name = top;
position = "{332, 720}";
}
);
background = {
paths = (
{
closed = 1;
nodes = (
"400 616 LINE",
"350 516 LINE SMOOTH",
"175 237 LINE SMOOTH",
"151 196 OFFCURVE",
"64 80 OFFCURVE",
"64 80 CURVE",
"74 0 LINE",
"460 0 LINE SMOOTH",
"480 0 OFFCURVE",
"575 -4 OFFCURVE",
"575 -4 CURVE",
"595 14 LINE",
"610 198 LINE",
"542 203 LINE",
"540 187 OFFCURVE",
"533 159 OFFCURVE",
"529 144 CURVE",
"528 138 OFFCURVE",
"519 118 OFFCURVE",
"509 97 CURVE",
"488 93 OFFCURVE",
"454 89 OFFCURVE",
"425 89 CURVE SMOOTH",
"268 89 LINE",
"288 130 OFFCURVE",
"308 173 OFFCURVE",
"332 212 CURVE SMOOTH",
"488 464 LINE SMOOTH",
"595 625 LINE",
"585 705 LINE",
"206 705 LINE SMOOTH",
"186 705 OFFCURVE",
"91 715 OFFCURVE",
"91 715 CURVE",
"71 697 LINE",
"64 512 LINE",
"136 507 LINE",
"138 524 OFFCURVE",
"147 568 OFFCURVE",
"151 583 CURVE",
"164 611 LINE",
"184 613 OFFCURVE",
"216 616 OFFCURVE",
"247 616 CURVE SMOOTH"
);
}
);
};
layerId = "16643525-C5DD-48EC-8E99-463BF28F5E85";
paths = (
{
closed = 1;
nodes = (
"585 14 LINE",
"600 192 LINE",
"536 197 LINE",
"532 172 OFFCURVE",
"525 147 OFFCURVE",
"522 134 CURVE",
"520 123 OFFCURVE",
"493 72 OFFCURVE",
"478 45 CURVE",
"540 95 LINE",
"519 91 OFFCURVE",
"459 82 OFFCURVE",
"417 82 CURVE SMOOTH",
"192 82 LINE",
"229 45 LINE",
"256 98 OFFCURVE",
"284 157 OFFCURVE",
"315 206 CURVE SMOOTH",
"480 471 LINE SMOOTH",
"508 516 OFFCURVE",
"554 583 OFFCURVE",
"587 631 CURVE",
"578 705 LINE",
"211 705 LINE",
"157 708 OFFCURVE",
"139 711 OFFCURVE",
"96 715 CURVE",
"76 697 LINE",
"69 516 LINE",
"138 511 LINE",
"140 534 OFFCURVE",
"148 572 OFFCURVE",
"152 589 CURVE",
"190 670 LINE",
"130 617 LINE",
"139 617 OFFCURVE",
"205 624 OFFCURVE",
"250 624 CURVE SMOOTH",
"466 624 LINE",
"430 666 LINE",
"409 621 OFFCURVE",
"382 560 OFFCURVE",
"355 517 CURVE SMOOTH",
"177 232 LINE SMOOTH",
"151 190 OFFCURVE",
"65 74 OFFCURVE",
"65 74 CURVE",
"74 0 LINE",
"451 0 LINE",
"479 0 OFFCURVE",
"528 -2 OFFCURVE",
"566 -4 CURVE"
);
}
);
width = 662;
}
);
leftKerningGroup = UC_Z;
rightKerningGroup = UC_Z;
unicode = 005A;
},
{
color = 2;
glyphname = a;
layers = (
{
anchors = (
{
name = bottom;
position = "{249, 0}";
},
{
name = ogonek;
position = "{491, 0}";
},
{
name = top;
position = "{232, 494}";
}
);
background = {
paths = (
{
closed = 1;
nodes = (
"262 -10 OFFCURVE",
"339 38 OFFCURVE",
"356 99 CURVE",
"342 115 LINE",
"362 0 LINE",
"492 0 LINE",
"498 54 LINE",
"398 65 LINE",
"434 33 LINE",
"429 59 OFFCURVE",
"419 106 OFFCURVE",
"419 167 CURVE SMOOTH",
"419 291 LINE SMOOTH",
"419 444 OFFCURVE",
"373 503 OFFCURVE",
"254 503 CURVE SMOOTH",
"194 503 OFFCURVE",
"133 494 OFFCURVE",
"73 479 CURVE",
"84 343 LINE",
"143 346 LINE",
"142 387 LINE",
"155 465 LINE",
"123 419 LINE",
"145 434 OFFCURVE",
"203 449 OFFCURVE",
"244 449 CURVE SMOOTH",
"307 449 OFFCURVE",
"338 404 OFFCURVE",
"338 311 CURVE SMOOTH",
"338 167 LINE",
"328 102 OFFCURVE",
"272 54 OFFCURVE",
"205 54 CURVE SMOOTH",
"158 54 OFFCURVE",
"132 83 OFFCURVE",
"132 133 CURVE SMOOTH",
"132 168 OFFCURVE",
"155 193 OFFCURVE",
"195 200 CURVE SMOOTH",
"351 229 LINE",
"351 280 LINE",
"178 251 LINE SMOOTH",
"88 236 OFFCURVE",
"44 190 OFFCURVE",
"44 118 CURVE SMOOTH",
"44 40 OFFCURVE",
"100 -10 OFFCURVE",
"189 -10 CURVE SMOOTH"
);
}
);
};
layerId = UUID0;
paths = (
{
closed = 1;
nodes = (
"262 -10 OFFCURVE",
"339 38 OFFCURVE",
"356 99 CURVE",
"342 115 LINE",
"362 0 LINE",
"492 0 LINE",
"498 54 LINE",
"398 65 LINE",
"434 33 LINE",
"429 59 OFFCURVE",
"419 106 OFFCURVE",
"419 167 CURVE SMOOTH",
"419 291 LINE SMOOTH",
"419 444 OFFCURVE",
"373 503 OFFCURVE",
"254 503 CURVE SMOOTH",
"194 503 OFFCURVE",
"133 494 OFFCURVE",
"73 479 CURVE",
"84 343 LINE",
"143 346 LINE",
"142 387 LINE",
"155 465 LINE",
"123 419 LINE",
"145 434 OFFCURVE",
"203 449 OFFCURVE",
"244 449 CURVE SMOOTH",
"307 449 OFFCURVE",
"338 404 OFFCURVE",
"338 311 CURVE SMOOTH",
"338 167 LINE",
"328 102 OFFCURVE",
"272 54 OFFCURVE",
"205 54 CURVE SMOOTH",
"158 54 OFFCURVE",
"132 83 OFFCURVE",
"132 133 CURVE SMOOTH",
"132 168 OFFCURVE",
"155 193 OFFCURVE",
"195 200 CURVE",
"351 229 LINE",
"351 280 LINE",
"178 251 LINE SMOOTH",
"88 236 OFFCURVE",
"44 190 OFFCURVE",
"44 118 CURVE SMOOTH",
"44 40 OFFCURVE",
"100 -10 OFFCURVE",
"189 -10 CURVE SMOOTH"
);
}
);
width = 520;
},
{
anchors = (
{
name = bottom;
position = "{268, 0}";
},
{
name = ogonek;
position = "{523, 0}";
},
{
name = top;
position = "{250, 494}";
}
);
background = {
paths = (
{
closed = 1;
nodes = (
"272 -10 OFFCURVE",
"321 30 OFFCURVE",
"352 119 CURVE",
"324 135 LINE",
"339 0 LINE",
"523 0 LINE",
"529 71 LINE",
"406 83 LINE",
"475 38 LINE",
"470 69 OFFCURVE",
"460 125 OFFCURVE",
"460 193 CURVE SMOOTH",
"460 323 LINE SMOOTH",
"460 437 OFFCURVE",
"383 503 OFFCURVE",
"251 503 CURVE SMOOTH",
"207 503 OFFCURVE",
"128 491 OFFCURVE",
"68 476 CURVE",
"83 307 LINE",
"158 310 LINE",
"157 353 LINE",
"175 455 LINE",
"132 385 LINE",
"154 393 OFFCURVE",
"209 412 OFFCURVE",
"245 412 CURVE SMOOTH",
"299 412 OFFCURVE",
"320 387 OFFCURVE",
"320 322 CURVE SMOOTH",
"320 157 LINE",
"310 117 OFFCURVE",
"283 93 OFFCURVE",
"248 93 CURVE SMOOTH",
"211 93 OFFCURVE",
"194 113 OFFCURVE",
"194 154 CURVE SMOOTH",
"194 191 OFFCURVE",
"209 209 OFFCURVE",
"246 216 CURVE SMOOTH",
"336 231 LINE",
"336 296 LINE",
"178 270 LINE SMOOTH",
"90 256 OFFCURVE",
"46 210 OFFCURVE",
"46 132 CURVE SMOOTH",
"46 44 OFFCURVE",
"102 -10 OFFCURVE",
"193 -10 CURVE SMOOTH"
);
}
);
};
layerId = "16643525-C5DD-48EC-8E99-463BF28F5E85";
paths = (
{
closed = 1;
nodes = (
"272 -10 OFFCURVE",
"321 30 OFFCURVE",
"352 119 CURVE",
"324 135 LINE",
"339 0 LINE",
"523 0 LINE",
"529 71 LINE",
"406 83 LINE",
"475 38 LINE",
"470 69 OFFCURVE",
"460 125 OFFCURVE",
"460 193 CURVE SMOOTH",
"460 329 LINE SMOOTH",
"460 443 OFFCURVE",
"383 509 OFFCURVE",
"251 509 CURVE SMOOTH",
"207 509 OFFCURVE",
"128 497 OFFCURVE",
"68 482 CURVE",
"83 313 LINE",
"158 316 LINE",
"157 359 LINE",
"175 461 LINE",
"132 391 LINE",
"154 399 OFFCURVE",
"209 418 OFFCURVE",
"245 418 CURVE SMOOTH",
"299 418 OFFCURVE",
"320 393 OFFCURVE",
"320 328 CURVE SMOOTH",
"320 157 LINE",
"310 117 OFFCURVE",
"283 93 OFFCURVE",
"248 93 CURVE SMOOTH",
"211 93 OFFCURVE",
"194 113 OFFCURVE",
"194 154 CURVE SMOOTH",
"194 191 OFFCURVE",
"209 209 OFFCURVE",
"246 216 CURVE SMOOTH",
"336 231 LINE",
"336 296 LINE",
"178 270 LINE SMOOTH",
"90 256 OFFCURVE",
"46 210 OFFCURVE",
"46 132 CURVE SMOOTH",
"46 44 OFFCURVE",
"102 -10 OFFCURVE",
"193 -10 CURVE SMOOTH"
);
}
);
width = 552;
},
{
anchors = (
{
name = bottom;
position = "{234, 0}";
},
{
name = ogonek;
position = "{354, 0}";
},
{
name = top;
position = "{344, 494}";
}
);
associatedMasterId = UUID0;
layerId = "41328141-E9A8-4E00-A418-9E10FE0D6041";
name = "Regular Italic Jun 29 15, 13:28";
paths = (
{
closed = 1;
nodes = (
"468 65 LINE",
"379 70 LINE",
"406 228 OFFCURVE",
"451 351 OFFCURVE",
"504 488 CURVE",
"482 504 LINE",
"421 490 LINE",
"394 493 OFFCURVE",
"330 504 OFFCURVE",
"299 504 CURVE SMOOTH",
"203 504 OFFCURVE",
"48 294 OFFCURVE",
"27 139 CURVE SMOOTH",
"12 41 OFFCURVE",
"40 -11 OFFCURVE",
"105 -11 CURVE SMOOTH",
"178 -11 OFFCURVE",
"261 68 OFFCURVE",
"330 178 CURVE",
"301 68 OFFCURVE",
"276 0 OFFCURVE",
"276 0 CURVE",
"300 -15 LINE",
"459 29 LINE"
);
},
{
closed = 1;
nodes = (
"123 55 OFFCURVE",
"112 94 OFFCURVE",
"120 150 CURVE SMOOTH",
"137 272 OFFCURVE",
"228 446 OFFCURVE",
"277 446 CURVE SMOOTH",
"316 446 OFFCURVE",
"367 420 OFFCURVE",
"386 411 CURVE",
"347 257 OFFCURVE",
"209 55 OFFCURVE",
"150 55 CURVE SMOOTH"
);
}
);
width = 509;
},
{
anchors = (
{
name = bottom;
position = "{234, 0}";
},
{
name = ogonek;
position = "{354, 0}";
},
{
name = top;
position = "{344, 494}";
}
);
associatedMasterId = UUID0;
background = {
paths = (
{
closed = 1;
nodes = (
"468 65 LINE",
"379 70 LINE",
"401 228 OFFCURVE",
"441 351 OFFCURVE",
"490 488 CURVE",
"467 504 LINE",
"407 490 LINE",
"375 493 OFFCURVE",
"298 504 OFFCURVE",
"262 504 CURVE SMOOTH",
"173 504 OFFCURVE",
"39 294 OFFCURVE",
"25 139 CURVE SMOOTH",
"12 41 OFFCURVE",
"44 -11 OFFCURVE",
"113 -11 CURVE SMOOTH",
"184 -11 OFFCURVE",
"263 68 OFFCURVE",
"326 178 CURVE",
"301 68 OFFCURVE",
"279 0 OFFCURVE",
"279 0 CURVE",
"303 -15 LINE",
"461 29 LINE"
);
},
{
closed = 1;
nodes = (
"124 55 OFFCURVE",
"110 94 OFFCURVE",
"117 150 CURVE SMOOTH",
"128 272 OFFCURVE",
"201 446 OFFCURVE",
"244 446 CURVE SMOOTH",
"290 446 OFFCURVE",
"352 420 OFFCURVE",
"374 411 CURVE",
"342 257 OFFCURVE",
"214 55 OFFCURVE",
"156 55 CURVE SMOOTH"
);
}
);
};
layerId = "BD1E864A-6186-412D-9566-6071B2B8003F";
name = "Regular Italic Jun 29 15, 13:31";
paths = (
{
closed = 1;
nodes = (
"468 65 LINE",
"379 70 LINE",
"406 228 OFFCURVE",
"451 351 OFFCURVE",
"504 488 CURVE",
"482 504 LINE",
"421 490 LINE",
"390 493 OFFCURVE",
"313 504 OFFCURVE",
"277 504 CURVE SMOOTH",
"188 504 OFFCURVE",
"46 294 OFFCURVE",
"27 139 CURVE SMOOTH",
"11 41 OFFCURVE",
"41 -11 OFFCURVE",
"110 -11 CURVE SMOOTH",
"181 -11 OFFCURVE",
"263 68 OFFCURVE",
"330 178 CURVE",
"301 68 OFFCURVE",
"276 0 OFFCURVE",
"276 0 CURVE",
"300 -15 LINE",
"459 29 LINE"
);
},
{
closed = 1;
nodes = (
"123 55 OFFCURVE",
"111 94 OFFCURVE",
"120 150 CURVE SMOOTH",
"135 272 OFFCURVE",
"214 446 OFFCURVE",
"257 446 CURVE SMOOTH",
"303 446 OFFCURVE",
"364 420 OFFCURVE",
"386 411 CURVE",
"348 257 OFFCURVE",
"213 55 OFFCURVE",
"155 55 CURVE SMOOTH"
);
}
);
width = 509;
},
{
anchors = (
{
name = bottom;
position = "{234, 0}";
},
{
name = ogonek;
position = "{354, 0}";
},
{
name = top;
position = "{344, 494}";
}
);
associatedMasterId = UUID0;
layerId = "47A9C615-076A-412B-B511-2B93DE38ABD4";
name = "Regular Italic Jun 29 15, 13:28";
paths = (
{
closed = 1;
nodes = (
"468 65 LINE",
"379 70 LINE",
"406 228 OFFCURVE",
"451 351 OFFCURVE",
"504 488 CURVE",
"482 504 LINE",
"421 490 LINE",
"394 493 OFFCURVE",
"330 504 OFFCURVE",
"299 504 CURVE SMOOTH",
"203 504 OFFCURVE",
"48 294 OFFCURVE",
"27 139 CURVE SMOOTH",
"12 41 OFFCURVE",
"40 -11 OFFCURVE",
"105 -11 CURVE SMOOTH",
"178 -11 OFFCURVE",
"261 68 OFFCURVE",
"330 178 CURVE",
"301 68 OFFCURVE",
"276 0 OFFCURVE",
"276 0 CURVE",
"300 -15 LINE",
"459 29 LINE"
);
},
{
closed = 1;
nodes = (
"123 55 OFFCURVE",
"112 94 OFFCURVE",
"120 150 CURVE SMOOTH",
"137 272 OFFCURVE",
"228 446 OFFCURVE",
"277 446 CURVE SMOOTH",
"316 446 OFFCURVE",
"367 420 OFFCURVE",
"386 411 CURVE",
"347 257 OFFCURVE",
"209 55 OFFCURVE",
"150 55 CURVE SMOOTH"
);
}
);
width = 509;
},
{
anchors = (
{
name = bottom;
position = "{234, 0}";
},
{
name = ogonek;
position = "{354, 0}";
},
{
name = top;
position = "{344, 494}";
}
);
associatedMasterId = UUID0;
background = {
paths = (
{
closed = 1;
nodes = (
"468 65 LINE",
"379 70 LINE",
"401 228 OFFCURVE",
"441 351 OFFCURVE",
"490 488 CURVE",
"467 504 LINE",
"407 490 LINE",
"375 493 OFFCURVE",
"298 504 OFFCURVE",
"262 504 CURVE SMOOTH",
"173 504 OFFCURVE",
"39 294 OFFCURVE",
"25 139 CURVE SMOOTH",
"12 41 OFFCURVE",
"44 -11 OFFCURVE",
"113 -11 CURVE SMOOTH",
"184 -11 OFFCURVE",
"263 68 OFFCURVE",
"326 178 CURVE",
"301 68 OFFCURVE",
"279 0 OFFCURVE",
"279 0 CURVE",
"303 -15 LINE",
"461 29 LINE"
);
},
{
closed = 1;
nodes = (
"124 55 OFFCURVE",
"110 94 OFFCURVE",
"117 150 CURVE SMOOTH",
"128 272 OFFCURVE",
"201 446 OFFCURVE",
"244 446 CURVE SMOOTH",
"290 446 OFFCURVE",
"352 420 OFFCURVE",
"374 411 CURVE",
"342 257 OFFCURVE",
"214 55 OFFCURVE",
"156 55 CURVE SMOOTH"
);
}
);
};
layerId = "2374DB16-F09E-4C0D-8B71-C2C4AF4FE021";
name = "Regular Italic Jun 29 15, 13:31";
paths = (
{
closed = 1;
nodes = (
"468 65 LINE",
"379 70 LINE",
"406 228 OFFCURVE",
"451 351 OFFCURVE",
"504 488 CURVE",
"482 504 LINE",
"421 490 LINE",
"390 493 OFFCURVE",
"313 504 OFFCURVE",
"277 504 CURVE SMOOTH",
"188 504 OFFCURVE",
"46 294 OFFCURVE",
"27 139 CURVE SMOOTH",
"11 41 OFFCURVE",
"41 -11 OFFCURVE",
"110 -11 CURVE SMOOTH",
"181 -11 OFFCURVE",
"263 68 OFFCURVE",
"330 178 CURVE",
"301 68 OFFCURVE",
"276 0 OFFCURVE",
"276 0 CURVE",
"300 -15 LINE",
"459 29 LINE"
);
},
{
closed = 1;
nodes = (
"123 55 OFFCURVE",
"111 94 OFFCURVE",
"120 150 CURVE SMOOTH",
"135 272 OFFCURVE",
"214 446 OFFCURVE",
"257 446 CURVE SMOOTH",
"303 446 OFFCURVE",
"364 420 OFFCURVE",
"386 411 CURVE",
"348 257 OFFCURVE",
"213 55 OFFCURVE",
"155 55 CURVE SMOOTH"
);
}
);
width = 509;
}
);
leftKerningGroup = lc_a;
rightKerningGroup = lc_Shoulder;
unicode = 0061;
},
{
color = 2;
glyphname = ae;
layers = (
{
anchors = (
{
name = bottom;
position = "{387, 0}";
},
{
name = top;
position = "{387, 494}";
}
);
background = {
paths = (
{
closed = 1;
nodes = (
"84 344 LINE",
"142 347 LINE",
"142 383 LINE",
"151 430 LINE",
"175 442 OFFCURVE",
"209 449 OFFCURVE",
"244 449 CURVE SMOOTH",
"307 449 OFFCURVE",
"338 404 OFFCURVE",
"338 311 CURVE SMOOTH",
"338 277 LINE",
"159 247 LINE SMOOTH",
"84 235 OFFCURVE",
"44 191 OFFCURVE",
"44 123 CURVE SMOOTH",
"44 42 OFFCURVE",
"100 -10 OFFCURVE",
"189 -10 CURVE SMOOTH",
"263 -10 OFFCURVE",
"324 29 OFFCURVE",
"369 106 CURVE",
"402 31 OFFCURVE",
"467 -10 OFFCURVE",
"554 -10 CURVE SMOOTH",
"657 -10 OFFCURVE",
"731 50 OFFCURVE",
"731 50 CURVE",
"703 96 LINE",
"703 96 OFFCURVE",
"643 55 OFFCURVE",
"564 55 CURVE SMOOTH",
"481 55 OFFCURVE",
"422 129 OFFCURVE",
"418 238 CURVE",
"717 272 LINE",
"732 310 LINE",
"723 438 OFFCURVE",
"660 502 OFFCURVE",
"542 502 CURVE SMOOTH",
"482 502 OFFCURVE",
"431 480 OFFCURVE",
"392 438 CURVE",
"368 482 OFFCURVE",
"323 503 OFFCURVE",
"254 503 CURVE SMOOTH",
"194 503 OFFCURVE",
"133 495 OFFCURVE",
"73 479 CURVE"
);
},
{
closed = 1;
nodes = (
"338 226 LINE",
"338 215 LINE SMOOTH",
"338 124 OFFCURVE",
"280 54 OFFCURVE",
"205 54 CURVE SMOOTH",
"158 54 OFFCURVE",
"132 81 OFFCURVE",
"132 128 CURVE SMOOTH",
"132 171 OFFCURVE",
"150 191 OFFCURVE",
"195 200 CURVE SMOOTH"
);
},
{
closed = 1;
nodes = (
"604 450 OFFCURVE",
"642 403 OFFCURVE",
"642 322 CURVE SMOOTH",
"642 320 LINE",
"420 289 LINE",
"427 391 OFFCURVE",
"470 450 OFFCURVE",
"538 450 CURVE SMOOTH"
);
}
);
};
layerId = UUID0;
paths = (
{
closed = 1;
nodes = (
"271 -10 OFFCURVE",
"337 38 OFFCURVE",
"383 132 CURVE",
"360 131 LINE",
"389 40 OFFCURVE",
"458 -10 OFFCURVE",
"554 -10 CURVE SMOOTH",
"657 -10 OFFCURVE",
"731 50 OFFCURVE",
"731 50 CURVE",
"703 96 LINE",
"703 96 OFFCURVE",
"643 55 OFFCURVE",
"564 55 CURVE SMOOTH",
"477 55 OFFCURVE",
"416 136 OFFCURVE",
"418 254 CURVE",
"419 271 LINE SMOOTH",
"422 384 OFFCURVE",
"466 450 OFFCURVE",
"538 450 CURVE SMOOTH",
"604 450 OFFCURVE",
"642 403 OFFCURVE",
"642 322 CURVE SMOOTH",
"642 284 LINE",
"678 325 LINE",
"407 287 LINE",
"405 237 LINE",
"717 272 LINE",
"732 310 LINE",
"723 438 OFFCURVE",
"660 502 OFFCURVE",
"542 502 CURVE SMOOTH",
"473 502 OFFCURVE",
"416 473 OFFCURVE",
"376 419 CURVE",
"401 416 LINE",
"381 475 OFFCURVE",
"333 503 OFFCURVE",
"254 503 CURVE SMOOTH",
"194 503 OFFCURVE",
"133 495 OFFCURVE",
"73 479 CURVE",
"84 344 LINE",
"142 347 LINE",
"142 383 LINE",
"158 466 LINE",
"135 420 LINE",
"158 438 OFFCURVE",
"200 449 OFFCURVE",
"244 449 CURVE SMOOTH",
"307 449 OFFCURVE",
"338 404 OFFCURVE",
"338 311 CURVE SMOOTH",
"338 215 LINE SMOOTH",
"338 124 OFFCURVE",
"280 54 OFFCURVE",
"205 54 CURVE SMOOTH",
"158 54 OFFCURVE",
"132 81 OFFCURVE",
"132 128 CURVE SMOOTH",
"132 171 OFFCURVE",
"150 191 OFFCURVE",
"195 200 CURVE SMOOTH",
"351 228 LINE",
"351 279 LINE",
"159 247 LINE SMOOTH",
"84 235 OFFCURVE",
"44 191 OFFCURVE",
"44 123 CURVE SMOOTH",
"44 42 OFFCURVE",
"100 -10 OFFCURVE",
"189 -10 CURVE SMOOTH"
);
}
);
width = 774;
},
{
anchors = (
{
name = bottom;
position = "{396, 0}";
},
{
name = top;
position = "{396, 494}";
}
);
background = {
paths = (
{
closed = 1;
nodes = (
"83 309 LINE",
"158 312 LINE",
"158 361 LINE",
"161 400 LINE",
"189 413 OFFCURVE",
"223 422 OFFCURVE",
"245 422 CURVE SMOOTH",
"296 422 OFFCURVE",
"320 391 OFFCURVE",
"320 323 CURVE SMOOTH",
"320 284 LINE",
"178 270 LINE SMOOTH",
"92 262 OFFCURVE",
"46 214 OFFCURVE",
"46 132 CURVE SMOOTH",
"46 47 OFFCURVE",
"109 -10 OFFCURVE",
"203 -10 CURVE SMOOTH",
"278 -10 OFFCURVE",
"328 16 OFFCURVE",
"372 77 CURVE",
"412 15 OFFCURVE",
"469 -15 OFFCURVE",
"548 -15 CURVE SMOOTH",
"626 -15 OFFCURVE",
"692 9 OFFCURVE",
"744 56 CURVE",
"709 114 LINE",
"709 114 OFFCURVE",
"661 81 OFFCURVE",
"588 81 CURVE SMOOTH",
"503 81 OFFCURVE",
"468 121 OFFCURVE",
"462 224 CURVE",
"732 240 LINE",
"753 279 LINE",
"753 420 OFFCURVE",
"675 503 OFFCURVE",
"544 503 CURVE SMOOTH",
"486 503 OFFCURVE",
"437 489 OFFCURVE",
"399 461 CURVE",
"363 489 OFFCURVE",
"313 503 OFFCURVE",
"251 503 CURVE SMOOTH",
"205 503 OFFCURVE",
"135 493 OFFCURVE",
"68 476 CURVE"
);
},
{
closed = 1;
nodes = (
"320 214 LINE",
"320 182 LINE SMOOTH",
"320 124 OFFCURVE",
"295 93 OFFCURVE",
"248 93 CURVE SMOOTH",
"211 93 OFFCURVE",
"194 111 OFFCURVE",
"194 152 CURVE SMOOTH",
"194 188 OFFCURVE",
"207 202 OFFCURVE",
"246 207 CURVE SMOOTH"
);
},
{
closed = 1;
nodes = (
"576 424 OFFCURVE",
"596 388 OFFCURVE",
"596 311 CURVE SMOOTH",
"595 303 LINE",
"463 294 LINE",
"466 380 OFFCURVE",
"489 424 OFFCURVE",
"533 424 CURVE SMOOTH"
);
}
);
};
layerId = "16643525-C5DD-48EC-8E99-463BF28F5E85";
paths = (
{
closed = 1;
nodes = (
"294 -10 OFFCURVE",
"348 28 OFFCURVE",
"399 120 CURVE",
"350 118 LINE",
"390 28 OFFCURVE",
"453 -15 OFFCURVE",
"548 -15 CURVE SMOOTH",
"626 -15 OFFCURVE",
"692 9 OFFCURVE",
"744 56 CURVE",
"709 114 LINE",
"709 114 OFFCURVE",
"661 81 OFFCURVE",
"588 81 CURVE SMOOTH",
"497 81 OFFCURVE",
"463 127 OFFCURVE",
"461 248 CURVE",
"463 268 LINE",
"462 371 OFFCURVE",
"485 424 OFFCURVE",
"533 424 CURVE SMOOTH",
"576 424 OFFCURVE",
"596 388 OFFCURVE",
"596 311 CURVE SMOOTH",
"596 240 LINE",
"659 307 LINE",
"447 293 LINE",
"446 223 LINE",
"732 240 LINE",
"753 279 LINE",
"753 420 OFFCURVE",
"675 503 OFFCURVE",
"544 503 CURVE SMOOTH",
"470 503 OFFCURVE",
"411 480 OFFCURVE",
"370 435 CURVE",
"425 435 LINE",
"389 480 OFFCURVE",
"330 503 OFFCURVE",
"251 503 CURVE SMOOTH",
"205 503 OFFCURVE",
"135 493 OFFCURVE",
"68 476 CURVE",
"83 309 LINE",
"158 312 LINE",
"158 361 LINE",
"166 463 LINE",
"127 379 LINE",
"154 402 OFFCURVE",
"212 422 OFFCURVE",
"245 422 CURVE SMOOTH",
"296 422 OFFCURVE",
"320 391 OFFCURVE",
"320 323 CURVE SMOOTH",
"320 182 LINE SMOOTH",
"320 124 OFFCURVE",
"295 93 OFFCURVE",
"248 93 CURVE SMOOTH",
"211 93 OFFCURVE",
"194 111 OFFCURVE",
"194 152 CURVE SMOOTH",
"194 188 OFFCURVE",
"207 202 OFFCURVE",
"246 207 CURVE SMOOTH",
"336 216 LINE",
"336 286 LINE",
"178 270 LINE SMOOTH",
"92 262 OFFCURVE",
"46 214 OFFCURVE",
"46 132 CURVE SMOOTH",
"46 47 OFFCURVE",
"109 -10 OFFCURVE",
"203 -10 CURVE SMOOTH"
);
}
);
width = 791;
}
);
leftKerningGroup = lc_a;
rightKerningGroup = lc_e;
unicode = 00E6;
},
{
color = 2;
glyphname = aogonek;
layers = (
{
components = (
{
name = ogonekcomb;
transform = "{1, 0, 0, 1, 228, 0}";
}
);
layerId = UUID0;
paths = (
{
closed = 1;
nodes = (
"254 -10 OFFCURVE",
"322 28 OFFCURVE",
"348 79 CURVE",
"362 0 LINE",
"442 0 OFFCURVE",
"492 0 OFFCURVE",
"492 0 CURVE",
"498 54 LINE",
"429 61 LINE",
"429 61 OFFCURVE",
"419 117 OFFCURVE",
"419 167 CURVE SMOOTH",
"419 291 LINE SMOOTH",
"419 444 OFFCURVE",
"373 503 OFFCURVE",
"254 503 CURVE SMOOTH",
"194 503 OFFCURVE",
"133 495 OFFCURVE",
"73 479 CURVE",
"84 343 LINE",
"142 346 LINE",
"142 387 LINE",
"149 429 LINE",
"174 441 OFFCURVE",
"211 449 OFFCURVE",
"244 449 CURVE SMOOTH",
"307 449 OFFCURVE",
"338 404 OFFCURVE",
"338 311 CURVE SMOOTH",
"338 278 LINE",
"178 251 LINE SMOOTH",
"88 236 OFFCURVE",
"44 190 OFFCURVE",
"44 118 CURVE SMOOTH",
"44 40 OFFCURVE",
"100 -10 OFFCURVE",
"189 -10 CURVE SMOOTH"
);
},
{
closed = 1;
nodes = (
"158 54 OFFCURVE",
"132 83 OFFCURVE",
"132 133 CURVE SMOOTH",
"132 168 OFFCURVE",
"155 193 OFFCURVE",
"195 200 CURVE SMOOTH",
"338 227 LINE",
"338 167 LINE",
"328 102 OFFCURVE",
"272 54 OFFCURVE",
"205 54 CURVE SMOOTH"
);
}
);
width = 521;
},
{
components = (
{
name = ogonekcomb;
transform = "{1, 0, 0, 1, 226, 0}";
}
);
layerId = "16643525-C5DD-48EC-8E99-463BF28F5E85";
paths = (
{
closed = 1;
nodes = (
"256 -10 OFFCURVE",
"300 16 OFFCURVE",
"331 72 CURVE",
"356 0 LINE",
"491 0 OFFCURVE",
"523 0 OFFCURVE",
"523 0 CURVE",
"529 71 LINE",
"469 77 LINE",
"469 77 OFFCURVE",
"460 143 OFFCURVE",
"460 193 CURVE SMOOTH",
"460 323 LINE SMOOTH",
"460 437 OFFCURVE",
"383 503 OFFCURVE",
"251 503 CURVE SMOOTH",
"207 503 OFFCURVE",
"128 491 OFFCURVE",
"68 476 CURVE",
"83 307 LINE",
"158 310 LINE",
"157 353 LINE",
"164 393 LINE",
"187 404 OFFCURVE",
"221 412 OFFCURVE",
"245 412 CURVE SMOOTH",
"299 412 OFFCURVE",
"320 387 OFFCURVE",
"320 322 CURVE SMOOTH",
"320 293 LINE",
"178 270 LINE SMOOTH",
"90 256 OFFCURVE",
"46 210 OFFCURVE",
"46 132 CURVE SMOOTH",
"46 44 OFFCURVE",
"102 -10 OFFCURVE",
"193 -10 CURVE SMOOTH"
);
},
{
closed = 1;
nodes = (
"211 93 OFFCURVE",
"194 113 OFFCURVE",
"194 154 CURVE SMOOTH",
"194 191 OFFCURVE",
"209 209 OFFCURVE",
"246 216 CURVE SMOOTH",
"320 228 LINE",
"320 157 LINE",
"310 117 OFFCURVE",
"283 93 OFFCURVE",
"248 93 CURVE SMOOTH"
);
}
);
width = 551;
}
);
leftKerningGroup = lc_a;
rightKerningGroup = lc_a;
unicode = 0105;
},
{
color = 2;
glyphname = b;
layers = (
{
anchors = (
{
name = bottom;
position = "{272, 0}";
},
{
name = top;
position = "{272, 756}";
}
);
background = {
paths = (
{
closed = 1;
nodes = (
"411 -10 OFFCURVE",
"498 113 OFFCURVE",
"498 256 CURVE SMOOTH",
"498 394 OFFCURVE",
"433 503 OFFCURVE",
"300 503 CURVE SMOOTH",
"221 503 OFFCURVE",
"173 453 OFFCURVE",
"151 410 CURVE",
"161 391 LINE",
"161 585 LINE SMOOTH",
"161 635 OFFCURVE",
"168 738 OFFCURVE",
"168 738 CURVE",
"149 756 LINE",
"91 756 LINE SMOOTH",
"71 756 OFFCURVE",
"-1 760 OFFCURVE",
"-1 760 CURVE",
"-6 707 LINE",
"106 683 LINE",
"66 715 LINE",
"70 691 OFFCURVE",
"80 637 OFFCURVE",
"80 615 CURVE SMOOTH",
"80 137 LINE SMOOTH",
"80 117 OFFCURVE",
"72 26 OFFCURVE",
"72 26 CURVE",
"118 9 OFFCURVE",
"186 -10 OFFCURVE",
"268 -10 CURVE SMOOTH"
);
},
{
closed = 1;
nodes = (
"167 52 OFFCURVE",
"161 113 OFFCURVE",
"161 167 CURVE SMOOTH",
"161 274 LINE SMOOTH",
"161 357 OFFCURVE",
"201 442 OFFCURVE",
"285 442 CURVE SMOOTH",
"380 442 OFFCURVE",
"406 353 OFFCURVE",
"406 254 CURVE SMOOTH",
"406 144 OFFCURVE",
"370 46 OFFCURVE",
"262 46 CURVE SMOOTH",
"218 46 OFFCURVE",
"179 54 OFFCURVE",
"148 64 CURVE",
"173 32 LINE"
);
}
);
};
layerId = UUID0;
paths = (
{
closed = 1;
nodes = (
"411 -10 OFFCURVE",
"498 113 OFFCURVE",
"498 256 CURVE SMOOTH",
"498 394 OFFCURVE",
"433 503 OFFCURVE",
"300 503 CURVE SMOOTH",
"221 503 OFFCURVE",
"173 453 OFFCURVE",
"151 410 CURVE",
"161 391 LINE",
"161 585 LINE SMOOTH",
"161 635 OFFCURVE",
"168 738 OFFCURVE",
"168 738 CURVE",
"149 756 LINE",
"91 756 LINE SMOOTH",
"71 756 OFFCURVE",
"-1 760 OFFCURVE",
"-1 760 CURVE",
"-6 707 LINE",
"106 683 LINE",
"66 715 LINE",
"70 691 OFFCURVE",
"80 637 OFFCURVE",
"80 615 CURVE SMOOTH",
"80 137 LINE SMOOTH",
"80 117 OFFCURVE",
"72 26 OFFCURVE",
"72 26 CURVE",
"118 9 OFFCURVE",
"186 -10 OFFCURVE",
"268 -10 CURVE SMOOTH"
);
},
{
closed = 1;
nodes = (
"167 52 OFFCURVE",
"161 113 OFFCURVE",
"161 167 CURVE SMOOTH",
"161 274 LINE SMOOTH",
"161 357 OFFCURVE",
"201 442 OFFCURVE",
"285 442 CURVE SMOOTH",
"380 442 OFFCURVE",
"406 353 OFFCURVE",
"406 254 CURVE SMOOTH",
"406 144 OFFCURVE",
"370 46 OFFCURVE",
"262 46 CURVE SMOOTH",
"218 46 OFFCURVE",
"179 54 OFFCURVE",
"148 64 CURVE",
"173 32 LINE"
);
}
);
width = 545;
},
{
anchors = (
{
name = bottom;
position = "{297, 0}";
},
{
name = top;
position = "{297, 756}";
}
);
background = {
paths = (
{
closed = 1;
nodes = (
"-8 691 LINE",
"67 674 LINE",
"67 674 OFFCURVE",
"77 607 OFFCURVE",
"77 587 CURVE SMOOTH",
"77 163 LINE SMOOTH",
"77 143 OFFCURVE",
"67 26 OFFCURVE",
"67 26 CURVE",
"162 -2 OFFCURVE",
"234 -10 OFFCURVE",
"298 -10 CURVE SMOOTH",
"462 -10 OFFCURVE",
"549 90 OFFCURVE",
"549 254 CURVE SMOOTH",
"549 392 OFFCURVE",
"497 503 OFFCURVE",
"359 503 CURVE SMOOTH",
"293 503 OFFCURVE",
"251 476 OFFCURVE",
"217 433 CURVE",
"217 557 LINE SMOOTH",
"217 607 OFFCURVE",
"227 737 OFFCURVE",
"227 737 CURVE",
"206 756 LINE",
"118 756 LINE SMOOTH",
"76 756 OFFCURVE",
"1 766 OFFCURVE",
"1 766 CURVE"
);
},
{
closed = 1;
nodes = (
"379 390 OFFCURVE",
"390 315 OFFCURVE",
"390 241 CURVE SMOOTH",
"390 153 OFFCURVE",
"374 85 OFFCURVE",
"286 85 CURVE SMOOTH",
"265 85 OFFCURVE",
"242 91 OFFCURVE",
"220 98 CURVE",
"219 124 OFFCURVE",
"217 163 OFFCURVE",
"217 193 CURVE SMOOTH",
"217 260 LINE SMOOTH",
"221 331 OFFCURVE",
"243 390 OFFCURVE",
"305 390 CURVE SMOOTH"
);
}
);
};
layerId = "16643525-C5DD-48EC-8E99-463BF28F5E85";
paths = (
{
closed = 1;
nodes = (
"462 -10 OFFCURVE",
"549 91 OFFCURVE",
"549 257 CURVE SMOOTH",
"549 397 OFFCURVE",
"497 509 OFFCURVE",
"359 509 CURVE SMOOTH",
"276 509 OFFCURVE",
"231 466 OFFCURVE",
"192 403 CURVE",
"217 370 LINE",
"217 557 LINE SMOOTH",
"217 607 OFFCURVE",
"227 737 OFFCURVE",
"227 737 CURVE",
"206 756 LINE",
"118 756 LINE SMOOTH",
"76 756 OFFCURVE",
"1 766 OFFCURVE",
"1 766 CURVE",
"-8 691 LINE",
"128 660 LINE",
"62 705 LINE",
"69 664 OFFCURVE",
"77 607 OFFCURVE",
"77 587 CURVE SMOOTH",
"77 163 LINE SMOOTH",
"77 143 OFFCURVE",
"67 26 OFFCURVE",
"67 26 CURVE",
"162 -2 OFFCURVE",
"234 -10 OFFCURVE",
"298 -10 CURVE SMOOTH"
);
},
{
closed = 1;
nodes = (
"221 88 OFFCURVE",
"217 150 OFFCURVE",
"217 193 CURVE SMOOTH",
"217 266 LINE SMOOTH",
"221 337 OFFCURVE",
"243 396 OFFCURVE",
"305 396 CURVE SMOOTH",
"379 396 OFFCURVE",
"390 319 OFFCURVE",
"390 244 CURVE SMOOTH",
"390 154 OFFCURVE",
"374 85 OFFCURVE",
"286 85 CURVE SMOOTH",
"252 85 OFFCURVE",
"213 101 OFFCURVE",
"181 111 CURVE",
"220 73 LINE"
);
}
);
width = 594;
}
);
leftKerningGroup = lc_LongStem;
rightKerningGroup = lc_Round;
unicode = 0062;
},
{
color = 2;
glyphname = c;
layers = (
{
anchors = (
{
name = bottom;
position = "{258, 0}";
},
{
name = top;
position = "{280, 494}";
}
);
background = {
paths = (
{
closed = 1;
nodes = (
"380 -10 OFFCURVE",
"445 44 OFFCURVE",
"445 44 CURVE",
"417 91 LINE",
"417 91 OFFCURVE",
"355 55 OFFCURVE",
"277 55 CURVE SMOOTH",
"177 55 OFFCURVE",
"141 146 OFFCURVE",
"141 246 CURVE SMOOTH",
"141 346 OFFCURVE",
"178 446 OFFCURVE",
"277 446 CURVE SMOOTH",
"313 446 OFFCURVE",
"348 429 OFFCURVE",
"384 410 CURVE",
"350 445 LINE",
"357 423 OFFCURVE",
"366 394 OFFCURVE",
"366 382 CURVE SMOOTH",
"366 346 LINE",
"424 343 LINE",
"434 468 LINE",
"374 488 OFFCURVE",
"336 503 OFFCURVE",
"277 503 CURVE SMOOTH",
"124 503 OFFCURVE",
"47 399 OFFCURVE",
"47 246 CURVE SMOOTH",
"47 93 OFFCURVE",
"123 -10 OFFCURVE",
"276 -10 CURVE SMOOTH"
);
}
);
};
layerId = UUID0;
paths = (
{
closed = 1;
nodes = (
"335 -10 OFFCURVE",
"389 6 OFFCURVE",
"445 44 CURVE",
"417 91 LINE",
"370 68 OFFCURVE",
"326 55 OFFCURVE",
"277 55 CURVE SMOOTH",
"177 55 OFFCURVE",
"141 146 OFFCURVE",
"141 246 CURVE SMOOTH",
"141 346 OFFCURVE",
"178 446 OFFCURVE",
"277 446 CURVE SMOOTH",
"313 446 OFFCURVE",
"348 429 OFFCURVE",
"384 410 CURVE",
"350 445 LINE",
"357 423 OFFCURVE",
"366 394 OFFCURVE",
"366 382 CURVE SMOOTH",
"366 346 LINE",
"424 343 LINE",
"434 468 LINE",
"374 488 OFFCURVE",
"336 503 OFFCURVE",
"277 503 CURVE SMOOTH",
"124 503 OFFCURVE",
"47 399 OFFCURVE",
"47 246 CURVE SMOOTH",
"47 93 OFFCURVE",
"123 -10 OFFCURVE",
"276 -10 CURVE SMOOTH"
);
}
);
width = 484;
},
{
anchors = (
{
name = bottom;
position = "{291, 0}";
},
{
name = top;
position = "{286, 494}";
}
);
background = {
paths = (
{
closed = 1;
nodes = (
"357 -15 OFFCURVE",
"423 11 OFFCURVE",
"474 56 CURVE",
"439 114 LINE",
"439 114 OFFCURVE",
"391 82 OFFCURVE",
"322 82 CURVE SMOOTH",
"242 82 OFFCURVE",
"202 137 OFFCURVE",
"202 248 CURVE SMOOTH",
"202 373 OFFCURVE",
"232 430 OFFCURVE",
"297 430 CURVE SMOOTH",
"340 430 OFFCURVE",
"381 404 OFFCURVE",
"410 380 CURVE",
"351 446 LINE",
"362 419 OFFCURVE",
"364 392 OFFCURVE",
"366 365 CURVE SMOOTH",
"365 311 LINE",
"450 308 LINE",
"465 485 LINE",
"465 485 OFFCURVE",
"376 509 OFFCURVE",
"288 509 CURVE SMOOTH",
"136 509 OFFCURVE",
"43 410 OFFCURVE",
"43 248 CURVE SMOOTH",
"43 77 OFFCURVE",
"130 -15 OFFCURVE",
"293 -15 CURVE SMOOTH"
);
}
);
};
layerId = "16643525-C5DD-48EC-8E99-463BF28F5E85";
paths = (
{
closed = 1;
nodes = (
"357 -15 OFFCURVE",
"423 11 OFFCURVE",
"474 56 CURVE",
"439 114 LINE",
"400 92 OFFCURVE",
"363 82 OFFCURVE",
"322 82 CURVE SMOOTH",
"242 82 OFFCURVE",
"202 137 OFFCURVE",
"202 248 CURVE SMOOTH",
"202 373 OFFCURVE",
"232 430 OFFCURVE",
"297 430 CURVE SMOOTH",
"340 430 OFFCURVE",
"381 404 OFFCURVE",
"410 380 CURVE",
"351 446 LINE",
"362 419 OFFCURVE",
"364 392 OFFCURVE",
"366 365 CURVE SMOOTH",
"365 311 LINE",
"450 308 LINE",
"465 485 LINE",
"406 497 OFFCURVE",
"348 509 OFFCURVE",
"288 509 CURVE SMOOTH",
"136 509 OFFCURVE",
"43 410 OFFCURVE",
"43 248 CURVE SMOOTH",
"43 77 OFFCURVE",
"130 -15 OFFCURVE",
"293 -15 CURVE SMOOTH"
);
}
);
width = 515;
}
);
leftKerningGroup = lc_Round;
rightKerningGroup = lc_c;
unicode = 0063;
},
{
color = 2;
glyphname = d;
layers = (
{
anchors = (
{
name = bottom;
position = "{282, 0}";
},
{
name = center;
position = "{389, 608}";
},
{
name = top;
position = "{331, 756}";
},
{
name = topright;
position = "{562, 494}";
}
);
background = {
anchors = (
{
name = bottom;
position = "{283, 0}";
},
{
name = center;
position = "{410, 605}";
},
{
name = topright;
position = "{564, 494}";
}
);
paths = (
{
closed = 1;
nodes = (
"309 -10 OFFCURVE",
"393 47 OFFCURVE",
"398 99 CURVE",
"387 116 LINE",
"407 0 LINE",
"537 0 LINE",
"543 54 LINE",
"438 65 LINE",
"480 28 LINE",
"476 50 OFFCURVE",
"464 108 OFFCURVE",
"464 167 CURVE SMOOTH",
"464 585 LINE SMOOTH",
"464 635 OFFCURVE",
"471 738 OFFCURVE",
"471 738 CURVE",
"452 756 LINE",
"394 756 LINE SMOOTH",
"374 756 OFFCURVE",
"290 760 OFFCURVE",
"290 760 CURVE",
"285 707 LINE",
"409 684 LINE",
"367 720 LINE",
"371 704 OFFCURVE",
"383 641 OFFCURVE",
"383 615 CURVE SMOOTH",
"383 207 LINE",
"383 111 OFFCURVE",
"336 54 OFFCURVE",
"256 54 CURVE SMOOTH",
"184 54 OFFCURVE",
"140 127 OFFCURVE",
"140 246 CURVE SMOOTH",
"140 370 OFFCURVE",
"187 442 OFFCURVE",
"268 442 CURVE SMOOTH",
"315 442 OFFCURVE",
"354 428 OFFCURVE",
"398 395 CURVE",
"404 471 LINE",
"337 497 OFFCURVE",
"305 503 OFFCURVE",
"258 503 CURVE SMOOTH",
"128 503 OFFCURVE",
"48 405 OFFCURVE",
"48 247 CURVE SMOOTH",
"48 87 OFFCURVE",
"124 -10 OFFCURVE",
"249 -10 CURVE SMOOTH"
);
}
);
};
layerId = UUID0;
paths = (
{
closed = 1;
nodes = (
"309 -10 OFFCURVE",
"394 48 OFFCURVE",
"397 98 CURVE",
"387 115 LINE",
"407 0 LINE",
"537 0 LINE",
"543 54 LINE",
"438 65 LINE",
"480 28 LINE",
"475 51 OFFCURVE",
"464 112 OFFCURVE",
"464 166 CURVE SMOOTH",
"464 586 LINE SMOOTH",
"464 635 OFFCURVE",
"471 738 OFFCURVE",
"471 738 CURVE",
"452 756 LINE",
"393 756 LINE",
"363 756 OFFCURVE",
"311 759 OFFCURVE",
"290 760 CURVE",
"285 707 LINE",
"408 685 LINE",
"367 720 LINE",
"371 704 OFFCURVE",
"383 642 OFFCURVE",
"383 616 CURVE SMOOTH",
"383 206 LINE",
"383 110 OFFCURVE",
"335 53 OFFCURVE",
"255 53 CURVE SMOOTH",
"183 53 OFFCURVE",
"138 126 OFFCURVE",
"138 246 CURVE SMOOTH",
"138 370 OFFCURVE",
"186 443 OFFCURVE",
"267 443 CURVE SMOOTH",
"312 443 OFFCURVE",
"352 430 OFFCURVE",
"398 395 CURVE",
"404 470 LINE",
"336 497 OFFCURVE",
"304 503 OFFCURVE",
"257 503 CURVE SMOOTH",
"128 503 OFFCURVE",
"48 405 OFFCURVE",
"48 247 CURVE SMOOTH",
"48 87 OFFCURVE",
"125 -10 OFFCURVE",
"249 -10 CURVE SMOOTH"
);
}
);
width = 565;
},
{
anchors = (
{
name = bottom;
position = "{315, 0}";
},
{
name = center;
position = "{431, 585}";
},
{
name = top;
position = "{368, 756}";
},
{
name = topright;
position = "{627, 494}";
}
);
background = {
paths = (
{
closed = 1;
nodes = (
"586 71 LINE",
"526 77 LINE",
"526 77 OFFCURVE",
"517 143 OFFCURVE",
"517 193 CURVE SMOOTH",
"517 557 LINE SMOOTH",
"517 607 OFFCURVE",
"527 737 OFFCURVE",
"527 737 CURVE",
"506 756 LINE",
"418 756 LINE SMOOTH",
"376 756 OFFCURVE",
"301 766 OFFCURVE",
"301 766 CURVE",
"292 691 LINE",
"367 674 LINE",
"367 674 OFFCURVE",
"377 607 OFFCURVE",
"377 587 CURVE SMOOTH",
"377 498 LINE",
"348 501 OFFCURVE",
"320 503 OFFCURVE",
"296 503 CURVE SMOOTH",
"136 503 OFFCURVE",
"45 407 OFFCURVE",
"45 239 CURVE SMOOTH",
"45 80 OFFCURVE",
"113 -10 OFFCURVE",
"235 -10 CURVE SMOOTH",
"300 -10 OFFCURVE",
"346 15 OFFCURVE",
"388 75 CURVE",
"396 0 LINE",
"531 0 OFFCURVE",
"580 0 OFFCURVE",
"580 0 CURVE"
);
},
{
closed = 1;
nodes = (
"377 233 LINE",
"372 147 OFFCURVE",
"342 103 OFFCURVE",
"289 103 CURVE SMOOTH",
"231 103 OFFCURVE",
"204 150 OFFCURVE",
"204 252 CURVE SMOOTH",
"204 362 OFFCURVE",
"235 408 OFFCURVE",
"308 408 CURVE SMOOTH",
"326 408 OFFCURVE",
"349 404 OFFCURVE",
"377 395 CURVE"
);
}
);
};
layerId = "16643525-C5DD-48EC-8E99-463BF28F5E85";
paths = (
{
closed = 1;
nodes = (
"315 -10 OFFCURVE",
"366 28 OFFCURVE",
"416 122 CURVE",
"381 138 LINE",
"396 0 LINE",
"580 0 LINE",
"586 71 LINE",
"463 83 LINE",
"531 40 LINE",
"526 74 OFFCURVE",
"517 125 OFFCURVE",
"517 193 CURVE SMOOTH",
"517 557 LINE SMOOTH",
"517 607 OFFCURVE",
"527 737 OFFCURVE",
"527 737 CURVE",
"506 756 LINE",
"418 756 LINE",
"388 756 OFFCURVE",
"328 763 OFFCURVE",
"301 766 CURVE",
"292 691 LINE",
"428 660 LINE",
"362 707 LINE",
"365 690 OFFCURVE",
"377 617 OFFCURVE",
"377 587 CURVE SMOOTH",
"377 233 LINE",
"372 147 OFFCURVE",
"342 103 OFFCURVE",
"289 103 CURVE SMOOTH",
"231 103 OFFCURVE",
"204 151 OFFCURVE",
"204 255 CURVE SMOOTH",
"204 367 OFFCURVE",
"235 414 OFFCURVE",
"308 414 CURVE SMOOTH",
"330 414 OFFCURVE",
"360 408 OFFCURVE",
"397 394 CURVE",
"394 502 LINE",
"359 506 OFFCURVE",
"325 509 OFFCURVE",
"296 509 CURVE SMOOTH",
"136 509 OFFCURVE",
"45 412 OFFCURVE",
"45 242 CURVE SMOOTH",
"45 81 OFFCURVE",
"113 -10 OFFCURVE",
"235 -10 CURVE SMOOTH"
);
}
);
width = 610;
}
);
leftKerningGroup = lc_Round;
rightKerningGroup = lc_LongStem;
unicode = 0064;
},
{
color = 2;
glyphname = dcaron;
layers = (
{
background = {
paths = (
{
closed = 1;
nodes = (
"606 756 LINE",
"593 513 LINE",
"535 516 LINE",
"536 610 LINE",
"535 629 OFFCURVE",
"527 756 OFFCURVE",
"527 756 CURVE"
);
}
);
};
components = (
{
name = d;
},
{
name = caroncomb.alt;
transform = "{1, 0, 0, 1, 479, 0}";
}
);
layerId = UUID0;
width = 565;
},
{
background = {
paths = (
{
closed = 1;
nodes = (
"656 756 LINE",
"643 512 LINE",
"565 517 LINE",
"566 610 LINE",
"565 629 OFFCURVE",
"557 756 OFFCURVE",
"557 756 CURVE"
);
}
);
};
components = (
{
name = d;
},
{
name = caroncomb.alt;
transform = "{1, 0, 0, 1, 521, 0}";
}
);
layerId = "16643525-C5DD-48EC-8E99-463BF28F5E85";
width = 610;
}
);
leftKerningGroup = lc_Round;
rightKerningGroup = lc_SternCaron;
unicode = 010F;
},
{
color = 2;
glyphname = dcroat;
layers = (
{
components = (
{
name = d;
},
{
name = barcomp.short;
transform = "{1, 0, 0, 1, 148, 3}";
}
);
layerId = UUID0;
width = 565;
},
{
background = {
paths = (
{
closed = 1;
nodes = (
"249 624 LINE",
"249 560 LINE",
"610 560 LINE",
"620 624 LINE"
);
}
);
};
components = (
{
name = d;
},
{
name = barcomp.short;
transform = "{1, 0, 0, 1, 206, -7}";
}
);
layerId = "16643525-C5DD-48EC-8E99-463BF28F5E85";
width = 610;
}
);
leftKerningGroup = lc_Round;
rightKerningGroup = lc_dcroat;
unicode = 0111;
},
